SplineFontDB: 3.0
FontName: SreeKrushnadevaraya
FullName: Sree Krushnadevaraya
FamilyName: Sree Krushnadevaraya
OS2FamilyName: "Sree Krushnadevaraya"
OS2StyleName: "regular"
Weight: Regular
Copyright: Copyright (c) 2012, AP Society for Knowledge Networks, Hyderabad, INDIA.
Version: 1.0
FONDName: Sree Krushnadevaraya
ItalicAngle: 0
UnderlinePosition: -623
UnderlineWidth: 20
Ascent: 819
Descent: 205
InvalidEm: 1
UFOAscent: 895
UFODescent: -310
LayerCount: 2
Layer: 0 0 "Back" 1
Layer: 1 0 "Fore" 0
FSType: 0
OS2Version: 0
OS2_WeightWidthSlopeOnly: 0
OS2_UseTypoMetrics: 0
CreationTime: 1416987101
ModificationTime: 1416987101
PfmFamily: 16
TTFWeight: 400
TTFWidth: 5
LineGap: 0
VLineGap: 0
Panose: 0 0 0 0 0 0 0 0 0 0
OS2TypoAscent: 895
OS2TypoAOffset: 0
OS2TypoDescent: -310
OS2TypoDOffset: 0
OS2TypoLinegap: 448
OS2WinAscent: 895
OS2WinAOffset: 0
OS2WinDescent: 653
OS2WinDOffset: 0
HheadAscent: 1119
HheadAOffset: 0
HheadDescent: -534
HheadDOffset: 0
OS2SubXSize: 700
OS2SubYSize: 650
OS2SubXOff: 0
OS2SubYOff: 140
OS2SupXSize: 700
OS2SupYSize: 650
OS2SupXOff: 0
OS2SupYOff: 477
OS2StrikeYSize: 50
OS2StrikeYPos: 250
OS2CapHeight: -1
OS2XHeight: -1
OS2Vendor: 'GPK '
Lookup: 258 0 0 "'kern' Horizontal Kerning in Telugu2 lookup 0" { "'kern' Horizontal Kerning in Telugu2 lookup 0 subtable"  } ['kern' ('tel2' <'dflt' > ) ]
DEI: 91125
GroupKern: "uni0C36_uni0C40.abvs_uni0C30_un" "uni0C36_uni0C4D.blwf" 218
GroupKern: "uni0C36_uni0C3F.abvs_uni0C30_un" "uni0C36_uni0C4D.blwf" 214
GroupKern: "uni0C36_uni0C40_uni0C30_uni0C4D" "uni0C36_uni0C4D.blwf" 214
LangName: 1033 "" "" "" "" "" "Version 1.00 July 31, 2013, initial release" "" "Sree Krushnadevaraya is a trademark of Andhrapradesh Society for Knowledge Networks." "Andhrapradesh Society for Knowledge Networks" "Purushoth Kumar Guthula" "Copyright (c) 2012 by Andhrapradesh Society for Knowledge Networks. All rights reserved." "" "" "GNU General Public License 2.0" "http://www.gnu.org/copyleft/gpl.html"
PickledDataWithLists: "(dp1
."

StartChar: exclam
Encoding: 1 33 1
GlifName: exclam
Width: 318
VWidth: 0
Flags: W
LayerCount: 2
Back
Fore
SplineSet
155 114 m 256
NamedP: "hr00"
 137 114 121 107 108 94 c 256
 95 81 89 66 89 47 c 256
 89 28 95 12 108 0 c 256
 121 -13 137 -20 155 -20 c 256
 173 -20 189 -13 202 0 c 256
 214 12 220 28 220 47 c 256
 220 66 214 81 202 94 c 256
 189 107 173 114 155 114 c 256
NamedP: "hr00"
172 195 m 258
 172 278 182 377 202 492 c 256
 212 550 219 595 223 627 c 257
 223 658 217 681 206 698 c 256
 195 716 178 725 155 725 c 256
 132 725 114 718 102 703 c 256
 90 688 83 667 85 641 c 258
 86 624 l 258
 88 598 96 556 105 499 c 256
 126 373 136 265 136 174 c 257
 172 174 l 257
 172 195 l 258
EndSplineSet
PickledDataWithLists: "(dp1
S'com.adobe.type.autohint'
p2
(S'data'
S'<data>\\n  <hintSetList>\\n    <hintset pointTag=\"hr00\">\\n      <hstem pos=\"-20\" width=\"745\"/>\\n      <hstem pos=\"-20\" width=\"134\"/>\\n      <vstem pos=\"89\" width=\"131\"/>\\n      <vstem pos=\"136\" width=\"36\"/>\\n    </hintset>\\n  </hintSetList>\\n  </data>'
Ntp3
s."
EndChar

StartChar: percent
Encoding: 5 37 5
GlifName: percent
Width: 466
VWidth: 0
Flags: W
LayerCount: 2
Back
Fore
SplineSet
442 88 m 256
NamedP: "hr00"
 442 117 431 142 410 164 c 256
 389 187 363 198 332 198 c 256
 305 198 280 186 259 162 c 256
 238 139 228 112 228 82 c 256
 228 56 239 32 260 11 c 256
 281 -10 305 -20 332 -20 c 256
 359 -20 384 -10 407 11 c 256
 430 32 442 58 442 88 c 256
NamedP: "hr00"
335 522 m 257
 -5 -18 l 257
 99 -18 l 257
 447 522 l 257
 335 522 l 257
215 428 m 256
 215 489 168 535 107 535 c 256
 82 535 59 524 37 502 c 256
 16 480 5 455 5 428 c 256
 5 364 44 323 107 323 c 256
 136 323 162 334 183 355 c 256
 204 376 215 401 215 428 c 256
EndSplineSet
PickledDataWithLists: "(dp1
S'com.adobe.type.autohint'
p2
(S'data'
S'<data>\\n  <hintSetList>\\n    <hintset pointTag=\"hr00\">\\n      <hstem pos=\"-20\" width=\"555\"/>\\n      <hstem pos=\"323\" width=\"212\"/>\\n      <vstem pos=\"-5\" width=\"452\"/>\\n    </hintset>\\n  </hintSetList>\\n  </data>'
Ntp3
s."
EndChar

StartChar: ampersand
Encoding: 6 38 6
GlifName: ampersand
Width: 617
VWidth: 0
Flags: W
LayerCount: 2
Back
Fore
SplineSet
353 135 m 257
NamedP: "hr00"
 322 123 291 117 262 117 c 256
 236 117 213 124 193 138 c 256
 172 153 161 171 161 192 c 256
 161 217 177 236 209 250 c 257
 353 135 l 257
NamedP: "hr00"
282 380 m 256
 282 347 259 327 213 320 c 257
 190 342 179 360 179 373 c 256
 179 402 207 422 242 422 c 256
 265 422 282 400 282 380 c 256
472 119 m 257
 485 152 492 181 492 208 c 256
 492 234 489 257 484 277 c 257
 418 277 l 257
 420 268 421 256 421 242 c 256
 421 227 412 204 394 175 c 257
 266 273 l 257
 337 314 363 345 363 410 c 256
 363 443 350 470 323 492 c 256
 296 515 265 526 230 526 c 256
 191 526 158 516 131 496 c 256
 102 473 87 443 87 405 c 256
 87 372 104 337 138 300 c 257
 46 273 0 223 0 149 c 256
 0 98 25 58 74 26 c 256
 117 -2 169 -17 228 -17 c 256
 321 -17 392 11 441 68 c 257
 489 29 521 5 538 -4 c 257
 555 17 567 34 575 47 c 257
 472 119 l 257
EndSplineSet
PickledDataWithLists: "(dp1
S'com.adobe.type.autohint'
p2
(S'data'
S'<data>\\n  <hintSetList>\\n    <hintset pointTag=\"hr00\">\\n      <hstem pos=\"-17\" width=\"134\"/>\\n      <hstem pos=\"422\" width=\"104\"/>\\n      <vstem pos=\"0\" width=\"161\"/>\\n      <vstem pos=\"87\" width=\"92\"/>\\n      <vstem pos=\"282\" width=\"81\"/>\\n      <vstem pos=\"421\" width=\"71\"/>\\n    </hintset>\\n  </hintSetList>\\n  </data>'
Ntp3
s."
EndChar

StartChar: parenleft
Encoding: 8 40 8
GlifName: parenleft
Width: 244
VWidth: 0
Flags: W
LayerCount: 2
Back
Fore
SplineSet
25 229 m 256
NamedP: "hr00"
 25 136 42 56 83 -10 c 256
 123 -76 174 -108 230 -108 c 256
 246 -108 257 -105 263 -100 c 256
 268 -95 270 -89 270 -82 c 256
 270 -79 268 -76 265 -74 c 257
 262 -69 259 -67 255 -67 c 256
 218 -67 186 -39 159 18 c 256
 131 76 117 146 117 229 c 256
 117 310 130 379 156 435 c 256
 183 493 214 522 250 522 c 256
 255 522 259 523 261 526 c 256
 264 530 265 536 265 545 c 256
 265 556 261 564 254 569 c 256
 248 573 240 575 230 575 c 256
 174 575 125 541 83 472 c 256
 44 406 25 325 25 229 c 256
NamedP: "hr00"
EndSplineSet
PickledDataWithLists: "(dp1
S'com.adobe.type.autohint'
p2
(S'data'
S'<data>\\n  <hintSetList>\\n    <hintset pointTag=\"hr00\">\\n      <hstem pos=\"-108\" width=\"41\"/>\\n      <hstem pos=\"522\" width=\"53\"/>\\n      <vstem pos=\"25\" width=\"92\"/>\\n    </hintset>\\n  </hintSetList>\\n  </data>'
Ntp3
s."
EndChar

StartChar: parenright
Encoding: 9 41 9
GlifName: parenright
Width: 243
VWidth: 0
Flags: W
LayerCount: 2
Back
Fore
SplineSet
220 229 m 256
NamedP: "hr00"
 220 325 200 406 160 472 c 256
 119 541 71 575 15 575 c 256
 4 575 -4 573 -9 569 c 256
 -18 564 -22 556 -22 545 c 256
 -22 536 -21 530 -18 526 c 256
 -15 523 -12 522 -7 522 c 256
 30 522 61 492 87 435 c 256
 113 378 127 310 127 229 c 256
 127 146 113 76 86 18 c 256
 59 -39 27 -67 -11 -67 c 256
 -16 -67 -19 -69 -22 -74 c 256
 -24 -76 -25 -79 -25 -82 c 256
 -25 -89 -23 -95 -19 -100 c 257
 -12 -105 -1 -108 15 -108 c 256
 71 -108 120 -76 160 -10 c 256
 201 57 220 136 220 229 c 256
NamedP: "hr00"
EndSplineSet
PickledDataWithLists: "(dp1
S'com.adobe.type.autohint'
p2
(S'data'
S'<data>\\n  <hintSetList>\\n    <hintset pointTag=\"hr00\">\\n      <hstem pos=\"-108\" width=\"41\"/>\\n      <hstem pos=\"522\" width=\"53\"/>\\n      <vstem pos=\"127\" width=\"93\"/>\\n    </hintset>\\n  </hintSetList>\\n  </data>'
Ntp3
s."
EndChar

StartChar: asterisk
Encoding: 10 42 10
GlifName: asterisk
Width: 610
VWidth: 0
Flags: W
LayerCount: 2
Back
Fore
SplineSet
217 164 m 257
NamedP: "hr00"
 157 -6 l 257
 313 101 l 257
 470 -3 l 257
 407 164 l 257
 565 276 l 257
 373 276 l 257
 313 438 l 257
 255 276 l 257
 56 276 l 257
 217 164 l 257
NamedP: "hr00"
EndSplineSet
PickledDataWithLists: "(dp1
S'com.adobe.type.autohint'
p2
(S'data'
S'<data>\\n  <hintSetList>\\n    <hintset pointTag=\"hr00\">\\n      <hstem pos=\"164\" width=\"112\"/>\\n      <vstem pos=\"56\" width=\"509\"/>\\n    </hintset>\\n  </hintSetList>\\n  </data>'
Ntp3
s."
EndChar

StartChar: plus
Encoding: 11 43 11
GlifName: plus
Width: 605
VWidth: 0
Flags: W
LayerCount: 2
Back
Fore
SplineSet
542 228 m 257
NamedP: "hr00"
 542 299 l 257
 338 299 l 257
 338 501 l 257
 265 501 l 257
 265 299 l 257
 64 299 l 257
 64 228 l 257
 265 228 l 257
 265 24 l 257
 338 24 l 257
 338 228 l 257
 542 228 l 257
NamedP: "hr00"
EndSplineSet
PickledDataWithLists: "(dp1
S'com.adobe.type.autohint'
p2
(S'data'
S'<data>\\n  <hintSetList>\\n    <hintset pointTag=\"hr00\">\\n      <hstem pos=\"228\" width=\"71\"/>\\n      <vstem pos=\"265\" width=\"73\"/>\\n    </hintset>\\n  </hintSetList>\\n  </data>'
Ntp3
s."
EndChar

StartChar: comma
Encoding: 12 44 12
GlifName: comma
Width: 274
VWidth: 0
Flags: W
LayerCount: 2
Back
Fore
SplineSet
64 68 m 256
NamedP: "hr00"
 64 52 69 38 80 26 c 256
 91 13 104 7 119 7 c 256
 128 7 137 8 146 11 c 256
 155 15 161 19 166 23 c 257
 166 6 159 -11 144 -28 c 256
 129 -45 110 -57 87 -63 c 257
 100 -87 l 257
 137 -80 166 -62 186 -33 c 256
 202 -9 210 20 210 53 c 256
 210 76 204 95 191 110 c 256
 176 127 156 135 131 135 c 256
 110 135 94 129 81 117 c 257
 70 104 64 88 64 68 c 256
NamedP: "hr00"
EndSplineSet
PickledDataWithLists: "(dp1
S'com.adobe.type.autohint'
p2
(S'data'
S'<data>\\n  <hintSetList>\\n    <hintset pointTag=\"hr00\">\\n      <hstem pos=\"-87\" width=\"222\"/>\\n      <hstem pos=\"7\" width=\"128\"/>\\n      <vstem pos=\"166\" width=\"44\"/>\\n    </hintset>\\n  </hintSetList>\\n  </data>'
Ntp3
s."
EndChar

StartChar: hyphen
Encoding: 13 45 13
GlifName: hyphen
Width: 428
VWidth: 0
Flags: W
LayerCount: 2
Back
Fore
SplineSet
363 262 m 257
NamedP: "hr00"
 64 262 l 257
 64 198 l 257
 363 198 l 257
 363 262 l 257
NamedP: "hr00"
EndSplineSet
PickledDataWithLists: "(dp1
S'com.adobe.type.autohint'
p2
(S'data'
S'<data>\\n  <hintSetList>\\n    <hintset pointTag=\"hr00\">\\n      <hstem pos=\"198\" width=\"64\"/>\\n      <vstem pos=\"64\" width=\"299\"/>\\n    </hintset>\\n  </hintSetList>\\n  </data>'
Ntp3
s."
EndChar

StartChar: period
Encoding: 14 46 14
GlifName: period
Width: 256
VWidth: 0
Flags: W
LayerCount: 2
Back
Fore
SplineSet
64 57 m 256
NamedP: "hr00"
 64 40 70 25 82 13 c 256
 94 0 109 -6 127 -6 c 256
 145 -6 159 0 172 13 c 256
 185 26 191 40 191 57 c 256
 191 75 185 91 172 104 c 256
 160 116 145 122 127 122 c 256
 109 122 94 116 82 104 c 256
 70 91 64 75 64 57 c 256
NamedP: "hr00"
EndSplineSet
PickledDataWithLists: "(dp1
S'com.adobe.type.autohint'
p2
(S'data'
S'<data>\\n  <hintSetList>\\n    <hintset pointTag=\"hr00\">\\n      <hstem pos=\"-6\" width=\"128\"/>\\n      <vstem pos=\"64\" width=\"127\"/>\\n    </hintset>\\n  </hintSetList>\\n  </data>'
Ntp3
s."
EndChar

StartChar: slash
Encoding: 15 47 15
GlifName: slash
Width: 450
VWidth: 0
Flags: W
LayerCount: 2
Back
Fore
SplineSet
331 610 m 257
NamedP: "hr00"
 64 -122 l 257
 117 -122 l 257
 387 610 l 257
 331 610 l 257
NamedP: "hr00"
EndSplineSet
PickledDataWithLists: "(dp1
S'com.adobe.type.autohint'
p2
(S'data'
S'<data>\\n  <hintSetList>\\n    <hintset pointTag=\"hr00\">\\n      <hstem pos=\"-122\" width=\"732\"/>\\n      <vstem pos=\"64\" width=\"323\"/>\\n    </hintset>\\n  </hintSetList>\\n  </data>'
Ntp3
s."
EndChar

StartChar: zero
Encoding: 16 48 16
GlifName: zero
Width: 489
VWidth: 0
Flags: W
LayerCount: 2
Back
Fore
SplineSet
472 247 m 256
NamedP: "hr00"
 472 322 452 385 412 435 c 256
 371 487 318 513 252 513 c 256
 179 513 120 487 77 435 c 256
 37 387 17 324 17 247 c 256
 17 177 37 118 77 71 c 256
 120 19 179 -7 252 -7 c 256
 317 -7 371 19 412 71 c 256
 452 120 472 179 472 247 c 256
NamedP: "hr00"
400 300 m 256
 400 257 387 218 361 183 c 256
 333 146 297 127 252 127 c 256
 199 127 157 146 131 183 c 256
 109 214 99 253 99 300 c 256
 99 344 112 380 138 407 c 256
 167 436 205 451 252 451 c 256
 293 451 326 436 355 407 c 256
 385 377 400 342 400 300 c 256
EndSplineSet
PickledDataWithLists: "(dp1
S'com.adobe.type.autohint'
p2
(S'data'
S'<data>\\n  <hintSetList>\\n    <hintset pointTag=\"hr00\">\\n      <hstem pos=\"-7\" width=\"134\"/>\\n      <hstem pos=\"451\" width=\"62\"/>\\n      <vstem pos=\"17\" width=\"82\"/>\\n      <vstem pos=\"400\" width=\"72\"/>\\n    </hintset>\\n  </hintSetList>\\n  </data>'
Ntp3
s."
EndChar

StartChar: one
Encoding: 17 49 17
GlifName: one
Width: 418
VWidth: 0
Flags: W
LayerCount: 2
Back
Fore
SplineSet
252 445 m 258
NamedP: "hr00"
 252 467 248 483 240 494 c 256
 231 507 220 513 206 513 c 256
 197 513 189 509 182 501 c 257
 173 493 169 483 168 472 c 257
 165 456 155 442 138 431 c 256
 121 420 100 415 77 415 c 256
 68 415 59 412 50 407 c 257
 43 401 40 394 40 385 c 256
 40 376 43 369 50 364 c 256
 57 359 64 357 72 357 c 258
 149 357 l 258
 155 357 159 356 162 353 c 256
 166 349 168 342 168 333 c 258
 168 98 l 257
 64 98 l 258
 51 98 40 93 31 84 c 256
 22 75 17 63 17 50 c 256
 17 37 22 25 31 14 c 256
 40 5 51 0 64 0 c 258
 353 0 l 258
 366 0 378 5 387 14 c 256
 397 25 402 37 402 50 c 256
 402 63 397 75 387 84 c 256
 378 93 368 98 355 98 c 258
 252 98 l 257
 252 445 l 258
NamedP: "hr00"
EndSplineSet
PickledDataWithLists: "(dp1
S'com.adobe.type.autohint'
p2
(S'data'
S'<data>\\n  <hintSetList>\\n    <hintset pointTag=\"hr00\">\\n      <hstem pos=\"0\" width=\"98\"/>\\n      <hstem pos=\"357\" width=\"58\"/>\\n      <vstem pos=\"168\" width=\"84\"/>\\n    </hintset>\\n  </hintSetList>\\n  </data>'
Ntp3
s."
EndChar

StartChar: two
Encoding: 18 50 18
GlifName: two
Width: 531
VWidth: 0
Flags: W
LayerCount: 2
Back
Fore
SplineSet
515 115 m 256
NamedP: "hr00"
 515 131 511 148 503 165 c 256
 496 180 489 188 482 188 c 256
 473 188 467 181 465 168 c 257
 465 159 464 153 462 148 c 256
 457 134 447 123 431 115 c 256
 418 108 404 105 387 105 c 256
 362 105 332 114 297 131 c 256
 260 148 229 156 202 156 c 256
 177 156 157 152 142 146 c 256
 123 138 103 123 80 100 c 257
 78 108 l 257
 78 139 91 167 117 192 c 256
 143 217 176 229 215 229 c 256
 223 229 237 228 257 226 c 256
 278 224 294 223 304 223 c 256
 357 223 399 234 432 255 c 256
 469 278 488 310 488 351 c 256
 488 406 465 448 418 476 c 256
 378 501 325 513 260 513 c 256
 201 513 151 499 109 472 c 256
 70 447 50 418 50 385 c 256
 50 366 55 350 65 338 c 256
 75 327 88 321 104 321 c 256
 134 321 153 340 161 378 c 256
 172 435 212 464 280 464 c 256
 311 464 338 457 361 442 c 257
 390 427 404 407 404 381 c 256
 404 344 382 320 338 306 c 256
 313 298 278 293 233 293 c 256
 170 293 119 277 80 246 c 256
 38 212 17 167 17 110 c 256
 17 84 19 63 24 47 c 256
 31 27 42 10 57 -4 c 257
 64 -4 69 5 75 23 c 256
 87 62 113 82 149 82 c 256
 191 82 232 68 270 36 c 256
 305 8 337 -7 368 -7 c 256
 417 -7 454 6 481 33 c 256
 504 56 515 83 515 115 c 256
NamedP: "hr00"
EndSplineSet
PickledDataWithLists: "(dp1
S'com.adobe.type.autohint'
p2
(S'data'
S'<data>\\n  <hintSetList>\\n    <hintset pointTag=\"hr00\">\\n      <hstem pos=\"-7\" width=\"112\"/>\\n      <hstem pos=\"82\" width=\"74\"/>\\n      <hstem pos=\"223\" width=\"70\"/>\\n      <hstem pos=\"464\" width=\"49\"/>\\n      <vstem pos=\"17\" width=\"61\"/>\\n      <vstem pos=\"404\" width=\"84\"/>\\n      <vstem pos=\"465\" width=\"50\"/>\\n    </hintset>\\n  </hintSetList>\\n  </data>'
Ntp3
s."
EndChar

StartChar: three
Encoding: 19 51 19
GlifName: three
Width: 489
VWidth: 0
Flags: W
LayerCount: 2
Back
Fore
SplineSet
247 43 m 256
NamedP: "hr00"
 178 43 138 71 127 128 c 256
 119 166 100 185 70 185 c 256
 53 185 40 179 31 168 c 256
 22 155 17 139 17 121 c 256
 17 88 37 58 77 33 c 256
 118 6 168 -7 227 -7 c 256
 290 -7 344 7 391 36 c 256
 445 69 472 113 472 168 c 256
 472 202 463 229 445 250 c 256
 429 267 409 278 385 283 c 257
 403 292 417 304 428 319 c 256
 441 336 447 357 447 383 c 256
 447 428 427 462 388 484 c 256
 353 503 302 513 233 513 c 256
 174 513 124 499 82 472 c 256
 43 447 24 418 24 385 c 256
 24 366 28 351 37 338 c 257
 48 327 61 321 77 321 c 256
 107 321 126 341 135 381 c 256
 146 435 181 462 240 462 c 256
 275 462 302 457 321 448 c 256
 348 435 361 411 361 378 c 256
 361 350 347 330 319 316 c 256
 299 306 276 300 250 300 c 256
 240 300 232 299 225 296 c 256
 218 292 215 286 215 277 c 256
 215 270 218 265 225 262 c 256
 230 260 239 259 250 259 c 256
 283 259 310 251 331 235 c 256
 356 217 368 190 368 155 c 256
 368 121 353 92 324 70 c 256
 299 51 274 43 247 43 c 256
NamedP: "hr00"
EndSplineSet
PickledDataWithLists: "(dp1
S'com.adobe.type.autohint'
p2
(S'data'
S'<data>\\n  <hintSetList>\\n    <hintset pointTag=\"hr00\">\\n      <hstem pos=\"-7\" width=\"50\"/>\\n      <hstem pos=\"259\" width=\"41\"/>\\n      <hstem pos=\"462\" width=\"51\"/>\\n      <vstem pos=\"361\" width=\"86\"/>\\n      <vstem pos=\"368\" width=\"104\"/>\\n    </hintset>\\n  </hintSetList>\\n  </data>'
Ntp3
s."
EndChar

StartChar: four
Encoding: 20 52 20
GlifName: four
Width: 527
VWidth: 0
Flags: W
LayerCount: 2
Back
Fore
SplineSet
108 210 m 257
NamedP: "hr00"
 293 445 l 257
 293 210 l 257
 108 210 l 257
NamedP: "hr00"
511 176 m 256
 511 187 507 196 498 202 c 256
 491 207 481 210 468 210 c 258
 407 210 l 257
 407 428 l 258
 407 453 403 472 395 485 c 256
 387 499 374 506 357 506 c 258
 270 506 l 257
 272 511 267 508 255 498 c 256
 243 487 231 473 218 457 c 258
 31 215 l 257
 26 210 23 205 21 198 c 256
 18 190 17 182 17 175 c 256
 17 164 20 155 27 148 c 257
 32 141 38 138 47 138 c 258
 293 138 l 257
 293 46 l 258
 293 31 299 19 310 10 c 257
 321 -1 335 -7 350 -7 c 256
 365 -7 379 -1 390 10 c 257
 401 19 407 31 407 46 c 258
 407 138 l 257
 468 138 l 258
 481 138 491 141 498 148 c 256
 507 155 511 165 511 176 c 256
EndSplineSet
PickledDataWithLists: "(dp1
S'com.adobe.type.autohint'
p2
(S'data'
S'<data>\\n  <hintSetList>\\n    <hintset pointTag=\"hr00\">\\n      <hstem pos=\"138\" width=\"72\"/>\\n      <hstem pos=\"445\" width=\"61\"/>\\n      <vstem pos=\"293\" width=\"114\"/>\\n    </hintset>\\n  </hintSetList>\\n  </data>'
Ntp3
s."
EndChar

StartChar: five
Encoding: 21 53 21
GlifName: five
Width: 487
VWidth: 0
Flags: W
LayerCount: 2
Back
Fore
SplineSet
230 43 m 256
NamedP: "hr00"
 191 43 163 50 145 65 c 256
 134 75 126 91 122 112 c 257
 122 127 l 258
 122 166 102 185 71 185 c 256
 56 185 43 179 34 168 c 256
 25 155 20 139 20 122 c 256
 20 88 39 58 78 33 c 256
 119 6 168 -7 225 -7 c 256
 295 -7 352 12 398 47 c 256
 446 85 471 133 471 195 c 256
 471 252 453 300 415 336 c 256
 378 372 330 388 270 388 c 256
 220 388 174 381 131 366 c 257
 131 437 l 257
 400 437 l 258
 414 437 425 441 434 449 c 256
 443 458 448 469 448 484 c 256
 448 491 446 497 442 503 c 257
 439 510 434 513 428 513 c 256
 422 513 414 512 405 509 c 256
 398 507 393 506 388 506 c 258
 53 506 l 258
 38 506 28 504 24 501 c 256
 19 496 17 485 17 468 c 258
 17 302 l 258
 17 282 22 266 31 253 c 256
 42 239 57 232 74 232 c 256
 97 232 111 234 118 238 c 256
 125 243 129 255 129 273 c 256
 129 291 139 308 158 320 c 256
 178 333 202 338 229 338 c 256
 272 338 305 329 327 309 c 256
 353 286 365 248 365 198 c 256
 365 152 349 113 317 82 c 256
 290 56 261 43 230 43 c 256
NamedP: "hr00"
EndSplineSet
PickledDataWithLists: "(dp1
S'com.adobe.type.autohint'
p2
(S'data'
S'<data>\\n  <hintSetList>\\n    <hintset pointTag=\"hr00\">\\n      <hstem pos=\"-7\" width=\"50\"/>\\n      <hstem pos=\"338\" width=\"50\"/>\\n      <hstem pos=\"437\" width=\"69\"/>\\n      <vstem pos=\"17\" width=\"114\"/>\\n      <vstem pos=\"20\" width=\"102\"/>\\n      <vstem pos=\"365\" width=\"106\"/>\\n    </hintset>\\n  </hintSetList>\\n  </data>'
Ntp3
s."
EndChar

StartChar: six
Encoding: 22 54 22
GlifName: six
Width: 483
VWidth: 0
Flags: W
LayerCount: 2
Back
Fore
SplineSet
252 513 m 256
NamedP: "hr00"
 176 513 117 486 74 432 c 256
 36 383 17 319 17 242 c 256
 17 167 39 106 82 61 c 256
 125 16 179 -7 245 -7 c 256
 306 -7 358 11 400 46 c 256
 445 83 468 134 468 198 c 256
 468 253 447 295 404 326 c 256
 366 353 320 366 266 366 c 256
 233 366 201 360 172 347 c 256
 134 331 109 306 97 273 c 257
 95 282 94 289 94 296 c 256
 94 337 107 374 134 407 c 256
 164 444 202 462 247 462 c 256
 288 462 319 446 340 414 c 256
 356 389 376 377 400 377 c 256
 414 377 425 381 432 390 c 257
 441 398 445 409 445 422 c 256
 445 446 426 466 387 485 c 256
 349 503 304 513 252 513 c 256
NamedP: "hr00"
373 206 m 256
 373 176 361 152 336 134 c 256
 314 117 289 108 262 108 c 256
 229 108 202 113 182 122 c 256
 145 137 127 164 127 203 c 256
 127 232 141 257 168 277 c 256
 195 297 227 307 264 307 c 256
 293 307 317 299 337 283 c 256
 361 265 373 239 373 206 c 256
EndSplineSet
PickledDataWithLists: "(dp1
S'com.adobe.type.autohint'
p2
(S'data'
S'<data>\\n  <hintSetList>\\n    <hintset pointTag=\"hr00\">\\n      <hstem pos=\"-7\" width=\"115\"/>\\n      <hstem pos=\"307\" width=\"59\"/>\\n      <hstem pos=\"462\" width=\"51\"/>\\n      <vstem pos=\"17\" width=\"77\"/>\\n      <vstem pos=\"373\" width=\"95\"/>\\n    </hintset>\\n  </hintSetList>\\n  </data>'
Ntp3
s."
EndChar

StartChar: seven
Encoding: 23 55 23
GlifName: seven
Width: 482
VWidth: 0
Flags: W
LayerCount: 2
Back
Fore
SplineSet
465 485 m 256
NamedP: "hr00"
 465 492 462 498 455 501 c 256
 450 504 445 506 438 506 c 258
 57 506 l 258
 44 506 35 505 30 502 c 256
 21 498 17 489 17 475 c 256
 17 461 21 452 28 448 c 256
 34 444 44 442 57 442 c 258
 303 442 l 257
 248 419 201 378 163 319 c 256
 126 262 108 205 108 148 c 256
 108 101 117 64 136 36 c 256
 155 7 181 -7 212 -7 c 256
 235 -7 258 -1 280 10 c 256
 306 24 319 42 319 63 c 256
 319 70 316 75 310 80 c 256
 306 83 302 85 297 85 c 256
 277 85 259 95 243 114 c 256
 225 134 216 158 216 185 c 256
 216 252 245 315 304 373 c 256
 355 423 401 448 441 448 c 256
 450 448 457 452 461 461 c 256
 464 468 465 476 465 485 c 256
NamedP: "hr00"
EndSplineSet
PickledDataWithLists: "(dp1
S'com.adobe.type.autohint'
p2
(S'data'
S'<data>\\n  <hintSetList>\\n    <hintset pointTag=\"hr00\">\\n      <hstem pos=\"442\" width=\"64\"/>\\n      <vstem pos=\"108\" width=\"108\"/>\\n    </hintset>\\n  </hintSetList>\\n  </data>'
Ntp3
s."
EndChar

StartChar: eight
Encoding: 24 56 24
GlifName: eight
Width: 475
VWidth: 0
Flags: W
LayerCount: 2
Back
Fore
SplineSet
340 394 m 256
NamedP: "hr00"
 340 372 330 355 310 343 c 256
 293 332 269 326 240 326 c 256
 213 326 191 330 172 341 c 256
 150 354 139 372 139 394 c 256
 139 412 149 428 168 441 c 256
 188 454 211 461 237 461 c 256
 266 461 290 454 310 441 c 256
 330 428 340 412 340 394 c 256
NamedP: "hr00"
458 171 m 256
 458 200 448 229 428 256 c 256
 405 287 379 304 350 307 c 257
 369 314 384 325 395 341 c 256
 406 358 412 375 412 393 c 256
 412 427 396 455 365 478 c 256
 332 501 289 513 236 513 c 256
 179 513 135 503 102 481 c 256
 69 459 53 426 53 385 c 256
 53 366 58 348 71 331 c 256
 83 315 101 302 122 293 c 257
 90 286 64 271 45 246 c 256
 26 221 17 191 17 158 c 256
 17 107 39 67 82 36 c 256
 122 7 170 -7 225 -7 c 256
 293 -7 348 7 391 37 c 256
 436 68 458 114 458 171 c 256
370 191 m 256
 370 156 355 128 326 111 c 256
 302 97 272 92 237 92 c 256
 200 92 170 98 146 111 c 256
 117 127 102 152 102 186 c 256
 102 212 117 235 146 253 c 256
 175 271 207 279 242 279 c 256
 279 279 309 270 334 253 c 256
 358 236 370 216 370 191 c 256
EndSplineSet
PickledDataWithLists: "(dp1
S'com.adobe.type.autohint'
p2
(S'data'
S'<data>\\n  <hintSetList>\\n    <hintset pointTag=\"hr00\">\\n      <hstem pos=\"-7\" width=\"99\"/>\\n      <hstem pos=\"279\" width=\"47\"/>\\n      <hstem pos=\"461\" width=\"52\"/>\\n      <vstem pos=\"17\" width=\"85\"/>\\n      <vstem pos=\"53\" width=\"86\"/>\\n      <vstem pos=\"340\" width=\"72\"/>\\n      <vstem pos=\"370\" width=\"88\"/>\\n    </hintset>\\n  </hintSetList>\\n  </data>'
Ntp3
s."
EndChar

StartChar: nine
Encoding: 25 57 25
GlifName: nine
Width: 509
VWidth: 0
Flags: W
LayerCount: 2
Back
Fore
SplineSet
296 381 m 256
NamedP: "hr00"
 296 361 287 345 270 329 c 256
 255 314 236 306 215 306 c 256
 191 306 172 312 158 323 c 256
 143 336 136 353 136 374 c 256
 136 397 143 415 158 428 c 256
 174 443 194 451 219 451 c 256
 239 451 257 444 272 430 c 256
 288 415 296 399 296 381 c 256
NamedP: "hr00"
237 -7 m 256
 317 -7 382 18 428 70 c 256
 472 118 492 183 492 260 c 256
 492 332 471 391 428 437 c 256
 381 488 316 513 232 513 c 256
 179 513 134 500 97 476 c 256
 54 448 33 410 33 361 c 256
 33 316 51 280 88 253 c 256
 121 230 159 218 202 218 c 256
 249 218 288 233 317 262 c 256
 344 289 357 322 357 361 c 256
 357 376 355 389 350 401 c 256
 345 415 338 428 327 441 c 257
 354 432 375 413 390 383 c 256
 407 350 415 310 415 262 c 256
 415 203 395 155 358 114 c 256
 325 79 291 60 252 60 c 256
 197 60 161 86 144 138 c 256
 131 179 109 199 77 199 c 256
 54 199 38 193 28 181 c 257
 21 170 17 154 17 131 c 256
 17 97 39 66 82 37 c 256
 127 8 178 -7 237 -7 c 256
EndSplineSet
PickledDataWithLists: "(dp1
S'com.adobe.type.autohint'
p2
(S'data'
S'<data>\\n  <hintSetList>\\n    <hintset pointTag=\"hr00\">\\n      <hstem pos=\"-7\" width=\"67\"/>\\n      <hstem pos=\"218\" width=\"88\"/>\\n      <hstem pos=\"451\" width=\"62\"/>\\n      <vstem pos=\"33\" width=\"103\"/>\\n      <vstem pos=\"296\" width=\"61\"/>\\n      <vstem pos=\"415\" width=\"77\"/>\\n    </hintset>\\n  </hintSetList>\\n  </data>'
Ntp3
s."
EndChar

StartChar: colon
Encoding: 26 58 26
GlifName: colon
Width: 256
VWidth: 0
Flags: W
LayerCount: 2
Back
Fore
SplineSet
64 71 m 256
NamedP: "hr00"
 64 54 69 40 82 27 c 256
 94 15 109 10 127 10 c 256
 145 10 160 16 172 27 c 256
 185 40 191 54 191 71 c 256
 191 89 185 104 172 117 c 256
 160 129 145 135 127 135 c 256
 109 135 94 129 82 117 c 256
 70 104 64 89 64 71 c 256
NamedP: "hr00"
64 331 m 256
 64 314 69 300 82 287 c 256
 94 275 109 270 127 270 c 256
 145 270 160 276 172 287 c 256
 185 300 191 314 191 331 c 256
 191 349 185 365 172 378 c 256
 160 389 145 395 127 395 c 256
 109 395 94 390 82 378 c 256
 69 365 64 349 64 331 c 256
EndSplineSet
PickledDataWithLists: "(dp1
S'com.adobe.type.autohint'
p2
(S'data'
S'<data>\\n  <hintSetList>\\n    <hintset pointTag=\"hr00\">\\n      <hstem pos=\"10\" width=\"385\"/>\\n      <hstem pos=\"10\" width=\"125\"/>\\n      <hstem pos=\"270\" width=\"125\"/>\\n      <vstem pos=\"64\" width=\"127\"/>\\n    </hintset>\\n  </hintSetList>\\n  </data>'
Ntp3
s."
EndChar

StartChar: semicolon
Encoding: 27 59 27
GlifName: semicolon
Width: 338
VWidth: 0
Flags: W
LayerCount: 2
Back
Fore
SplineSet
128 68 m 256
NamedP: "hr00"
 128 52 133 38 144 26 c 256
 155 13 168 7 183 7 c 256
 192 7 201 8 210 11 c 256
 219 15 225 19 230 23 c 257
 230 6 223 -11 208 -28 c 256
 193 -45 174 -57 151 -63 c 257
 164 -87 l 257
 201 -80 230 -62 250 -33 c 256
 266 -9 274 20 274 53 c 256
 274 76 268 95 255 110 c 256
 240 127 220 135 195 135 c 256
 174 135 158 129 145 117 c 257
 134 104 128 88 128 68 c 256
NamedP: "hr00"
135 331 m 256
 135 314 141 300 154 287 c 256
 166 276 181 270 198 270 c 256
 216 270 232 276 245 287 c 257
 257 300 263 314 263 331 c 256
 263 349 257 365 245 378 c 257
 232 389 216 395 198 395 c 256
 181 395 166 389 154 378 c 256
 141 365 135 349 135 331 c 256
EndSplineSet
PickledDataWithLists: "(dp1
S'com.adobe.type.autohint'
p2
(S'data'
S'<data>\\n  <hintSetList>\\n    <hintset pointTag=\"hr00\">\\n      <hstem pos=\"-87\" width=\"482\"/>\\n      <hstem pos=\"7\" width=\"128\"/>\\n      <hstem pos=\"270\" width=\"125\"/>\\n      <vstem pos=\"135\" width=\"128\"/>\\n      <vstem pos=\"230\" width=\"44\"/>\\n    </hintset>\\n  </hintSetList>\\n  </data>'
Ntp3
s."
EndChar

StartChar: less
Encoding: 28 60 28
GlifName: less
Width: 497
VWidth: 0
Flags: W
LayerCount: 2
Back
Fore
SplineSet
432 -11 m 257
NamedP: "hr00"
 432 27 l 257
 146 225 l 257
 432 424 l 257
 432 459 l 257
 64 259 l 257
 64 188 l 257
 432 -11 l 257
NamedP: "hr00"
EndSplineSet
PickledDataWithLists: "(dp1
S'com.adobe.type.autohint'
p2
(S'data'
S'<data>\\n  <hintSetList>\\n    <hintset pointTag=\"hr00\">\\n      <hstem pos=\"-11\" width=\"470\"/>\\n      <vstem pos=\"64\" width=\"368\"/>\\n    </hintset>\\n  </hintSetList>\\n  </data>'
Ntp3
s."
EndChar

StartChar: equal
Encoding: 29 61 29
GlifName: equal
Width: 503
VWidth: 0
Flags: W
LayerCount: 2
Back
Fore
SplineSet
439 171 m 257
NamedP: "hr00"
 64 171 l 257
 64 114 l 257
 439 114 l 257
 439 171 l 257
NamedP: "hr00"
439 368 m 257
 64 368 l 257
 64 310 l 257
 439 310 l 257
 439 368 l 257
EndSplineSet
PickledDataWithLists: "(dp1
S'com.adobe.type.autohint'
p2
(S'data'
S'<data>\\n  <hintSetList>\\n    <hintset pointTag=\"hr00\">\\n      <hstem pos=\"114\" width=\"57\"/>\\n      <hstem pos=\"310\" width=\"58\"/>\\n      <vstem pos=\"64\" width=\"375\"/>\\n    </hintset>\\n  </hintSetList>\\n  </data>'
Ntp3
s."
EndChar

StartChar: greater
Encoding: 30 62 30
GlifName: greater
Width: 497
VWidth: 0
Flags: W
LayerCount: 2
Back
Fore
SplineSet
432 266 m 257
NamedP: "hr00"
 64 466 l 257
 64 430 l 257
 353 232 l 257
 64 33 l 257
 64 -6 l 257
 432 195 l 257
 432 266 l 257
NamedP: "hr00"
EndSplineSet
PickledDataWithLists: "(dp1
S'com.adobe.type.autohint'
p2
(S'data'
S'<data>\\n  <hintSetList>\\n    <hintset pointTag=\"hr00\">\\n      <hstem pos=\"-6\" width=\"472\"/>\\n      <vstem pos=\"64\" width=\"368\"/>\\n    </hintset>\\n  </hintSetList>\\n  </data>'
Ntp3
s."
EndChar

StartChar: question
Encoding: 31 63 31
GlifName: question
Width: 611
VWidth: 0
Flags: W
LayerCount: 2
Back
Fore
SplineSet
421 10 m 256
NamedP: "hr00"
 421 32 413 50 398 63 c 256
 382 78 363 85 340 85 c 256
 317 85 299 77 284 61 c 256
 270 45 263 27 263 6 c 256
 263 -14 271 -32 286 -48 c 256
 301 -63 319 -70 340 -70 c 256
 363 -70 382 -63 398 -47 c 256
 414 -31 421 -12 421 10 c 256
NamedP: "hr00"
546 518 m 256
 546 565 525 601 484 626 c 256
 446 649 396 661 334 661 c 256
 265 661 211 645 174 612 c 256
 143 583 128 551 128 516 c 256
 128 484 137 459 154 441 c 256
 173 421 200 411 236 411 c 256
 256 411 272 417 283 428 c 257
 294 437 299 450 299 466 c 256
 299 478 289 486 270 491 c 256
 243 498 229 513 229 536 c 256
 229 562 242 582 267 596 c 256
 291 609 318 616 347 616 c 256
 390 616 424 607 451 590 c 256
 476 574 489 553 489 526 c 256
 489 475 447 427 363 385 c 256
 276 341 233 293 233 240 c 256
 233 210 245 184 266 161 c 256
 288 137 313 125 344 125 c 256
 375 125 402 135 425 155 c 256
 447 174 458 195 458 220 c 256
 458 239 455 255 448 267 c 256
 441 280 434 286 427 286 c 256
 423 286 420 285 418 283 c 256
 416 281 415 279 415 277 c 256
 415 275 416 272 417 267 c 256
 419 260 420 256 420 253 c 256
 420 243 414 234 402 225 c 256
 390 215 378 210 366 210 c 256
 351 210 338 214 327 223 c 256
 316 231 310 242 310 256 c 256
 310 289 344 324 411 360 c 256
 501 407 546 460 546 518 c 256
EndSplineSet
PickledDataWithLists: "(dp1
S'com.adobe.type.autohint'
p2
(S'data'
S'<data>\\n  <hintSetList>\\n    <hintset pointTag=\"hr00\">\\n      <hstem pos=\"-70\" width=\"155\"/>\\n      <hstem pos=\"125\" width=\"85\"/>\\n      <hstem pos=\"616\" width=\"45\"/>\\n      <vstem pos=\"128\" width=\"101\"/>\\n      <vstem pos=\"233\" width=\"77\"/>\\n      <vstem pos=\"263\" width=\"158\"/>\\n      <vstem pos=\"420\" width=\"38\"/>\\n      <vstem pos=\"489\" width=\"57\"/>\\n    </hintset>\\n  </hintSetList>\\n  </data>'
Ntp3
s."
EndChar

StartChar: ellipsis
Encoding: 95 8230 95
GlifName: ellipsis
Width: 1186
VWidth: 0
Flags: W
LayerCount: 2
Back
Fore
SplineSet
914 -47 m 257
NamedP: "hr00"
 1138 -47 l 257
 1138 34 l 257
 914 34 l 257
 914 -47 l 257
NamedP: "hr00"
478 -47 m 257
 702 -47 l 257
 702 34 l 257
 478 34 l 257
 478 -47 l 257
24 -47 m 257
 247 -47 l 257
 247 34 l 257
 24 34 l 257
 24 -47 l 257
EndSplineSet
PickledDataWithLists: "(dp1
S'com.adobe.type.autohint'
p2
(S'data'
S'<data>\\n  <hintSetList>\\n    <hintset pointTag=\"hr00\">\\n      <hstem pos=\"-47\" width=\"81\"/>\\n      <vstem pos=\"24\" width=\"223\"/>\\n      <vstem pos=\"478\" width=\"224\"/>\\n      <vstem pos=\"914\" width=\"224\"/>\\n    </hintset>\\n  </hintSetList>\\n  </data>'
Ntp3
s."
EndChar

StartChar: quoteleft
Encoding: 96 8216 96
GlifName: quoteleft
Width: 274
VWidth: 0
Flags: W
LayerCount: 2
Back
Fore
SplineSet
210 472 m 256
NamedP: "hr00"
 210 489 205 504 195 515 c 256
 184 527 170 533 155 533 c 256
 146 533 138 532 129 529 c 257
 108 518 l 257
 108 535 114 553 129 569 c 256
 145 588 165 598 186 603 c 257
 174 629 l 257
 137 621 108 603 88 575 c 256
 72 551 64 522 64 488 c 256
 64 465 71 446 84 431 c 256
 98 414 118 405 144 405 c 256
 165 405 181 412 193 425 c 256
 204 436 210 452 210 472 c 256
NamedP: "hr00"
EndSplineSet
PickledDataWithLists: "(dp1
S'com.adobe.type.autohint'
p2
(S'data'
S'<data>\\n  <hintSetList>\\n    <hintset pointTag=\"hr00\">\\n      <hstem pos=\"405\" width=\"224\"/>\\n      <hstem pos=\"405\" width=\"128\"/>\\n      <vstem pos=\"64\" width=\"44\"/>\\n    </hintset>\\n  </hintSetList>\\n  </data>'
Ntp3
s."
EndChar

StartChar: quoteright
Encoding: 97 8217 97
GlifName: quoteright
Width: 274
VWidth: 0
Flags: W
LayerCount: 2
Back
Fore
SplineSet
64 560 m 256
NamedP: "hr00"
 64 544 69 530 80 518 c 256
 91 507 104 501 119 501 c 256
 128 501 137 502 146 503 c 257
 155 507 161 511 166 515 c 257
 166 498 159 481 144 464 c 256
 129 447 110 435 87 430 c 257
 100 405 l 257
 137 412 166 429 186 458 c 256
 202 482 210 511 210 545 c 256
 210 568 204 587 191 602 c 256
 176 620 156 629 131 629 c 256
 110 629 93 623 81 609 c 256
 69 596 64 580 64 560 c 256
NamedP: "hr00"
EndSplineSet
PickledDataWithLists: "(dp1
S'com.adobe.type.autohint'
p2
(S'data'
S'<data>\\n  <hintSetList>\\n    <hintset pointTag=\"hr00\">\\n      <hstem pos=\"405\" width=\"224\"/>\\n      <hstem pos=\"501\" width=\"128\"/>\\n      <vstem pos=\"166\" width=\"44\"/>\\n    </hintset>\\n  </hintSetList>\\n  </data>'
Ntp3
s."
EndChar

StartChar: quotedblleft
Encoding: 98 8220 98
GlifName: quotedblleft
Width: 426
VWidth: 0
Flags: W
LayerCount: 2
Back
Fore
SplineSet
361 401 m 256
NamedP: "hr00"
 361 412 356 425 343 441 c 256
 331 456 323 469 323 479 c 256
 323 502 327 523 334 543 c 256
 340 563 349 581 361 596 c 257
 336 609 l 257
 311 588 292 564 279 538 c 256
 266 510 259 482 259 454 c 256
 259 428 265 407 274 390 c 256
 284 372 295 363 310 363 c 256
 324 363 336 367 347 374 c 256
 356 381 361 390 361 401 c 256
NamedP: "hr00"
168 401 m 256
 168 412 161 425 148 441 c 256
 135 456 129 469 129 479 c 256
 129 502 132 523 139 543 c 256
 145 563 155 581 168 596 c 257
 142 609 l 257
 117 588 97 564 84 538 c 256
 71 510 64 482 64 454 c 256
 64 428 69 407 80 390 c 257
 89 372 102 363 117 363 c 256
 131 363 143 367 152 374 c 256
 163 381 168 390 168 401 c 256
EndSplineSet
PickledDataWithLists: "(dp1
S'com.adobe.type.autohint'
p2
(S'data'
S'<data>\\n  <hintSetList>\\n    <hintset pointTag=\"hr00\">\\n      <hstem pos=\"363\" width=\"246\"/>\\n      <vstem pos=\"64\" width=\"65\"/>\\n      <vstem pos=\"259\" width=\"64\"/>\\n    </hintset>\\n  </hintSetList>\\n  </data>'
Ntp3
s."
EndChar

StartChar: quotedblright
Encoding: 99 8221 99
GlifName: quotedblright
Width: 426
VWidth: 0
Flags: W
LayerCount: 2
Back
Fore
SplineSet
259 505 m 256
NamedP: "hr00"
 259 494 265 481 277 466 c 256
 290 450 297 437 297 428 c 256
 297 405 294 384 287 364 c 256
 280 343 271 325 259 310 c 257
 284 297 l 257
 309 318 329 342 341 368 c 256
 355 397 361 425 361 454 c 256
 361 479 357 499 347 516 c 256
 337 534 324 543 310 543 c 256
 295 543 283 539 274 532 c 256
 264 525 259 516 259 505 c 256
NamedP: "hr00"
64 505 m 256
 64 494 71 481 84 466 c 256
 97 450 104 437 104 428 c 256
 104 405 100 384 92 364 c 257
 87 343 77 325 64 310 c 257
 90 297 l 257
 115 318 133 342 146 368 c 256
 161 397 168 425 168 454 c 256
 168 479 163 499 152 516 c 257
 143 534 131 543 117 543 c 256
 102 543 89 539 80 532 c 256
 69 525 64 516 64 505 c 256
EndSplineSet
PickledDataWithLists: "(dp1
S'com.adobe.type.autohint'
p2
(S'data'
S'<data>\\n  <hintSetList>\\n    <hintset pointTag=\"hr00\">\\n      <hstem pos=\"297\" width=\"246\"/>\\n      <vstem pos=\"104\" width=\"64\"/>\\n      <vstem pos=\"297\" width=\"64\"/>\\n    </hintset>\\n  </hintSetList>\\n  </data>'
Ntp3
s."
EndChar

StartChar: bullet
Encoding: 100 8226 100
GlifName: bullet
Width: 659
VWidth: 0
Flags: W
LayerCount: 2
Back
Fore
SplineSet
304 317 m 257
NamedP: "hr00"
 298 312 293 310 290 309 c 257
 290 326 294 347 302 373 c 256
 307 391 315 414 327 441 c 256
 337 465 342 480 342 501 c 256
 342 517 335 532 321 545 c 256
 308 557 294 566 277 572 c 257
 236 560 207 533 207 494 c 256
 207 484 210 470 216 452 c 257
 222 444 260 349 260 317 c 258
 260 309 l 257
 249 314 234 323 221 341 c 258
 184 391 l 258
 169 412 157 426 147 435 c 256
 132 450 116 457 98 457 c 256
 82 457 68 453 55 444 c 257
 50 442 42 437 31 428 c 257
 29 395 l 258
 27 366 41 344 65 331 c 256
 78 324 103 317 139 313 c 256
 184 307 226 295 247 283 c 257
 232 274 195 261 160 256 c 258
 116 250 l 258
 91 247 71 240 56 230 c 256
 37 217 28 198 28 174 c 256
 28 163 28 156 31 137 c 257
 59 117 71 110 99 110 c 256
 114 110 128 115 140 124 c 256
 151 133 161 144 172 158 c 258
 214 215 l 257
 232 235 247 249 260 256 c 257
 260 257 l 257
 260 225 248 199 234 158 c 258
 223 127 l 258
 215 105 210 86 210 71 c 256
 210 51 217 34 230 21 c 257
 241 7 257 -2 277 -7 c 257
 317 2 344 30 344 73 c 256
 344 86 342 96 337 105 c 257
 337 108 335 115 332 124 c 257
 314 161 l 258
 306 177 302 193 297 208 c 256
 291 226 288 241 288 253 c 258
 288 256 l 257
 301 247 316 235 332 218 c 257
 375 162 l 258
 388 145 399 133 408 124 c 257
 421 115 437 110 456 110 c 256
 479 110 497 117 517 137 c 257
 520 144 522 158 522 169 c 256
 522 213 487 244 440 250 c 258
 391 256 l 258
 356 260 326 271 301 283 c 257
 315 292 334 299 359 304 c 258
 429 317 l 258
 456 322 483 327 498 339 c 256
 513 351 523 377 523 394 c 256
 523 405 521 411 517 428 c 257
 490 447 475 455 452 455 c 256
 435 455 419 449 406 438 c 256
 399 431 389 420 376 404 c 258
 352 373 l 257
 304 317 l 257
NamedP: "hr00"
EndSplineSet
PickledDataWithLists: "(dp1
S'com.adobe.type.autohint'
p2
(S'data'
S'<data>\\n  <hintSetList>\\n    <hintset pointTag=\"hr00\">\\n      <hstem pos=\"-7\" width=\"579\"/>\\n      <vstem pos=\"260\" width=\"30\"/>\\n    </hintset>\\n  </hintSetList>\\n  </data>'
Ntp3
s."
EndChar

StartChar: endash
Encoding: 101 8211 101
GlifName: endash
Width: 755
VWidth: 0
Flags: W
LayerCount: 2
Back
Fore
SplineSet
24 220 m 257
NamedP: "hr00"
 705 220 l 257
 705 314 l 257
 24 314 l 257
 24 220 l 257
NamedP: "hr00"
EndSplineSet
PickledDataWithLists: "(dp1
S'com.adobe.type.autohint'
p2
(S'data'
S'<data>\\n  <hintSetList>\\n    <hintset pointTag=\"hr00\">\\n      <hstem pos=\"220\" width=\"94\"/>\\n      <vstem pos=\"24\" width=\"681\"/>\\n    </hintset>\\n  </hintSetList>\\n  </data>'
Ntp3
s."
EndChar

StartChar: emdash
Encoding: 102 8212 102
GlifName: emdash
Width: 1645
VWidth: 0
Flags: W
LayerCount: 2
Back
Fore
SplineSet
4 220 m 257
NamedP: "hr00"
 1557 220 l 257
 1557 314 l 257
 4 314 l 257
 4 220 l 257
NamedP: "hr00"
EndSplineSet
PickledDataWithLists: "(dp1
S'com.adobe.type.autohint'
p2
(S'data'
S'<data>\\n  <hintSetList>\\n    <hintset pointTag=\"hr00\">\\n      <hstem pos=\"220\" width=\"94\"/>\\n      <vstem pos=\"4\" width=\"1553\"/>\\n    </hintset>\\n  </hintSetList>\\n  </data>'
Ntp3
s."
EndChar

StartChar: .notdef
Encoding: 111 -1 111
GlifName: _notdef
Width: 800
VWidth: 0
Flags: W
LayerCount: 2
Back
Fore
SplineSet
650 50 m 257
NamedP: "hr00"
 150 50 l 257
 150 650 l 257
 650 650 l 257
 650 50 l 257
NamedP: "hr00"
100 700 m 257
 100 0 l 257
 700 0 l 257
 700 700 l 257
 100 700 l 257
EndSplineSet
PickledDataWithLists: "(dp1
S'com.adobe.type.autohint'
p2
(S'data'
S'<data>\\n  <hintSetList>\\n    <hintset pointTag=\"hr00\">\\n      <hstem pos=\"0\" width=\"50\"/>\\n      <hstem pos=\"650\" width=\"50\"/>\\n      <vstem pos=\"100\" width=\"50\"/>\\n      <vstem pos=\"650\" width=\"50\"/>\\n    </hintset>\\n  </hintSetList>\\n  </data>'
Ntp3
s."
EndChar

StartChar: uni0951
Encoding: 115 2385 115
GlifName: uni0951
Width: 0
VWidth: 0
Flags: W
LayerCount: 2
Back
Fore
SplineSet
-229 1572 m 257
NamedP: "hr00"
 -304 1572 l 257
 -304 1072 l 257
 -229 1072 l 257
 -229 1572 l 257
NamedP: "hr00"
EndSplineSet
PickledDataWithLists: "(dp1
S'com.adobe.type.autohint'
p2
(S'data'
S'<data>\\n  <hintSetList>\\n    <hintset pointTag=\"hr00\">\\n      <hstem pos=\"1072\" width=\"500\"/>\\n      <vstem pos=\"-304\" width=\"75\"/>\\n    </hintset>\\n  </hintSetList>\\n  </data>'
Ntp3
s."
EndChar

StartChar: uni0952
Encoding: 116 2386 116
GlifName: uni0952
Width: 0
VWidth: 0
Flags: W
LayerCount: 2
Back
Fore
SplineSet
-59 -415 m 257
NamedP: "hr00"
 -750 -415 l 257
 -750 -485 l 257
 -59 -485 l 257
 -59 -415 l 257
NamedP: "hr00"
EndSplineSet
PickledDataWithLists: "(dp1
S'com.adobe.type.autohint'
p2
(S'data'
S'<data>\\n  <hintSetList>\\n    <hintset pointTag=\"hr00\">\\n      <hstem pos=\"-485\" width=\"70\"/>\\n      <vstem pos=\"-750\" width=\"691\"/>\\n    </hintset>\\n  </hintSetList>\\n  </data>'
Ntp3
s."
EndChar

StartChar: uni0964
Encoding: 117 2404 117
GlifName: uni0964
Width: 126
VWidth: 0
Flags: W
LayerCount: 2
Back
Fore
SplineSet
91 451 m 257
NamedP: "hr00"
 21 451 l 257
 21 -16 l 257
 91 -16 l 257
 91 451 l 257
NamedP: "hr00"
EndSplineSet
PickledDataWithLists: "(dp1
S'com.adobe.type.autohint'
p2
(S'data'
S'<data>\\n  <hintSetList>\\n    <hintset pointTag=\"hr00\">\\n      <hstem pos=\"-16\" width=\"467\"/>\\n      <vstem pos=\"21\" width=\"70\"/>\\n    </hintset>\\n  </hintSetList>\\n  </data>'
Ntp3
s."
EndChar

StartChar: uni0965
Encoding: 118 2405 118
GlifName: uni0965
Width: 287
VWidth: 0
Flags: W
LayerCount: 2
Back
Fore
SplineSet
251 447 m 257
NamedP: "hr00"
 185 447 l 257
 185 -18 l 257
 251 -18 l 257
 251 447 l 257
NamedP: "hr00"
91 451 m 257
 21 451 l 257
 21 -16 l 257
 91 -16 l 257
 91 451 l 257
EndSplineSet
PickledDataWithLists: "(dp1
S'com.adobe.type.autohint'
p2
(S'data'
S'<data>\\n  <hintSetList>\\n    <hintset pointTag=\"hr00\">\\n      <hstem pos=\"-18\" width=\"469\"/>\\n      <vstem pos=\"21\" width=\"70\"/>\\n      <vstem pos=\"185\" width=\"66\"/>\\n    </hintset>\\n  </hintSetList>\\n  </data>'
Ntp3
s."
EndChar

StartChar: uni0C01
Encoding: 119 3073 119
GlifName: uni0C01_
Width: 388
VWidth: 0
Flags: W
LayerCount: 2
Back
Fore
SplineSet
314 410 m 257
NamedP: "hr00"
 311 419 306 426 298 430 c 256
 288 436 270 439 243 439 c 256
 166 439 108 415 68 367 c 256
 37 329 21 283 21 230 c 256
 21 171 38 121 72 78 c 256
 114 24 175 -3 254 -3 c 256
 269 -3 280 -1 287 4 c 256
 296 10 301 19 301 31 c 256
 301 38 299 43 294 47 c 256
 285 54 270 57 249 57 c 256
 216 57 186 68 159 90 c 256
 125 117 108 159 108 216 c 256
 108 278 125 322 159 348 c 256
 186 368 223 378 271 378 c 256
 287 378 298 380 304 383 c 256
 311 386 314 395 314 410 c 257
NamedP: "hr00"
EndSplineSet
PickledDataWithLists: "(dp1
S'com.adobe.type.autohint'
p2
(S'data'
S'<data>\\n  <hintSetList>\\n    <hintset pointTag=\"hr00\">\\n      <hstem pos=\"-3\" width=\"60\"/>\\n      <hstem pos=\"378\" width=\"61\"/>\\n      <vstem pos=\"21\" width=\"87\"/>\\n    </hintset>\\n  </hintSetList>\\n  </data>'
Ntp3
s."
EndChar

StartChar: uni0C02
Encoding: 120 3074 120
GlifName: uni0C02_
Width: 519
VWidth: 0
Flags: W
LayerCount: 2
Back
Fore
SplineSet
483 215 m 256
NamedP: "hr00"
 483 278 464 333 423 375 c 256
 381 420 326 441 259 441 c 256
 185 441 128 419 84 375 c 256
 42 333 21 280 21 215 c 256
 21 155 42 105 84 63 c 256
 128 19 186 -3 259 -3 c 256
 326 -3 381 18 423 63 c 256
 464 105 483 156 483 215 c 256
NamedP: "hr00"
409 259 m 256
 409 222 396 189 371 161 c 256
 342 128 305 111 259 111 c 256
 204 111 165 129 139 161 c 256
 118 187 106 218 106 259 c 256
 106 296 119 326 146 351 c 256
 175 377 212 390 259 390 c 256
 302 390 338 377 367 351 c 256
 395 326 409 295 409 259 c 256
EndSplineSet
PickledDataWithLists: "(dp1
S'com.adobe.type.autohint'
p2
(S'data'
S'<data>\\n  <hintSetList>\\n    <hintset pointTag=\"hr00\">\\n      <hstem pos=\"-3\" width=\"114\"/>\\n      <hstem pos=\"390\" width=\"51\"/>\\n      <vstem pos=\"21\" width=\"85\"/>\\n      <vstem pos=\"409\" width=\"74\"/>\\n    </hintset>\\n  </hintSetList>\\n  </data>'
Ntp3
s."
EndChar

StartChar: uni0C03
Encoding: 121 3075 121
GlifName: uni0C03_
Width: 267
VWidth: 0
Flags: W
LayerCount: 2
Back
Fore
SplineSet
71 118 m 256
NamedP: "hr00"
 71 135 76 149 86 158 c 256
 97 167 111 171 126 171 c 256
 142 171 155 167 166 158 c 256
 179 149 185 135 185 118 c 256
 185 103 180 91 169 82 c 257
 158 71 143 65 126 65 c 256
 111 65 97 71 86 82 c 256
 76 92 71 104 71 118 c 256
NamedP: "hr00"
21 101 m 256
 21 72 31 48 52 27 c 256
 73 6 97 -4 126 -4 c 256
 155 -4 180 5 202 27 c 256
 222 47 231 72 231 101 c 256
 231 130 222 156 202 176 c 256
 181 198 155 208 126 208 c 256
 97 208 72 197 52 176 c 256
 31 155 21 130 21 101 c 256
71 377 m 256
 71 394 76 407 86 417 c 257
 97 426 111 430 126 430 c 256
 142 430 155 426 166 417 c 256
 179 407 185 394 185 377 c 256
 185 363 180 351 169 340 c 257
 158 331 143 326 126 326 c 256
 111 326 97 331 86 340 c 257
 76 351 71 363 71 377 c 256
21 360 m 256
 21 331 31 307 52 286 c 256
 73 265 97 255 126 255 c 256
 155 255 180 264 202 286 c 256
 222 306 231 331 231 360 c 256
 231 389 222 415 202 435 c 256
 181 457 155 466 126 466 c 256
 97 466 72 456 52 435 c 256
 31 414 21 389 21 360 c 256
EndSplineSet
PickledDataWithLists: "(dp1
S'com.adobe.type.autohint'
p2
(S'data'
S'<data>\\n  <hintSetList>\\n    <hintset pointTag=\"hr00\">\\n      <hstem pos=\"-4\" width=\"69\"/>\\n      <hstem pos=\"171\" width=\"37\"/>\\n      <hstem pos=\"255\" width=\"71\"/>\\n      <hstem pos=\"430\" width=\"36\"/>\\n      <vstem pos=\"21\" width=\"50\"/>\\n      <vstem pos=\"185\" width=\"46\"/>\\n    </hintset>\\n  </hintSetList>\\n  </data>'
Ntp3
s."
EndChar

StartChar: uni0C05
Encoding: 122 3077 122
GlifName: uni0C05_
Width: 603
VWidth: 0
Flags: W
LayerCount: 2
Back
Fore
SplineSet
567 256 m 256
NamedP: "hr00"
 567 311 556 358 532 395 c 256
 504 438 467 458 422 458 c 256
 386 458 358 446 337 422 c 256
 318 401 308 372 308 336 c 256
 308 319 311 302 317 287 c 256
 324 269 334 257 347 250 c 257
 199 250 l 258
 188 250 181 248 176 243 c 257
 171 240 169 233 169 223 c 256
 169 214 171 208 176 205 c 257
 180 201 188 199 199 199 c 258
 385 199 l 258
 396 199 406 202 415 208 c 256
 424 215 428 223 428 233 c 256
 428 249 417 261 394 267 c 256
 365 275 350 292 350 323 c 256
 350 342 357 358 367 371 c 256
 381 389 401 398 428 398 c 256
 455 398 477 384 495 357 c 256
 510 334 519 308 519 277 c 256
 519 221 499 179 459 151 c 256
 424 126 370 114 298 114 c 256
 215 114 154 130 116 161 c 256
 86 186 71 221 71 267 c 256
 71 291 75 314 82 336 c 257
 90 313 105 297 126 286 c 256
 141 279 158 276 176 276 c 256
 207 276 233 284 254 300 c 256
 279 318 291 341 291 370 c 256
 291 398 280 421 257 438 c 256
 238 451 216 458 189 458 c 256
 132 458 88 433 57 383 c 256
 33 343 21 297 21 246 c 256
 21 168 46 108 96 65 c 256
 145 22 211 0 294 0 c 256
 382 0 450 23 499 70 c 256
 544 115 567 177 567 256 c 256
NamedP: "hr00"
116 368 m 256
 116 379 121 390 131 400 c 256
 141 409 154 414 169 414 c 256
 184 414 197 410 207 402 c 256
 218 394 224 383 224 368 c 256
 224 353 218 342 207 334 c 256
 197 327 184 323 169 323 c 256
 154 323 141 327 131 336 c 256
 121 345 116 356 116 368 c 256
EndSplineSet
PickledDataWithLists: "(dp1
S'com.adobe.type.autohint'
p2
(S'data'
S'<data>\\n  <hintSetList>\\n    <hintset pointTag=\"hr00\">\\n      <hstem pos=\"0\" width=\"114\"/>\\n      <hstem pos=\"199\" width=\"51\"/>\\n      <hstem pos=\"276\" width=\"47\"/>\\n      <hstem pos=\"398\" width=\"60\"/>\\n      <hstem pos=\"414\" width=\"44\"/>\\n      <vstem pos=\"21\" width=\"50\"/>\\n      <vstem pos=\"224\" width=\"67\"/>\\n      <vstem pos=\"308\" width=\"42\"/>\\n      <vstem pos=\"519\" width=\"48\"/>\\n    </hintset>\\n  </hintSetList>\\n  </data>'
Ntp3
s."
EndChar

StartChar: uni0C06
Encoding: 123 3078 123
GlifName: uni0C06_
Width: 583
VWidth: 0
Flags: W
LayerCount: 2
Back
Fore
SplineSet
116 368 m 256
NamedP: "hr00"
 116 379 121 390 131 400 c 256
 141 409 154 414 169 414 c 256
 184 414 197 410 207 402 c 256
 218 394 224 383 224 368 c 256
 224 353 218 342 207 334 c 256
 197 327 184 323 169 323 c 256
 154 323 141 327 131 336 c 256
 121 345 116 356 116 368 c 256
NamedP: "hr00"
21 257 m 256
 21 180 46 118 96 71 c 256
 147 24 213 1 295 1 c 256
 369 1 428 17 472 50 c 256
 517 83 539 127 539 181 c 256
 539 210 530 237 513 260 c 257
 524 271 531 285 537 300 c 256
 543 317 547 336 547 356 c 256
 547 388 536 414 513 435 c 256
 488 457 458 468 421 468 c 256
 388 468 361 458 340 437 c 256
 322 418 313 395 313 368 c 256
 313 335 322 309 340 289 c 256
 354 274 374 261 399 250 c 257
 372 250 l 257
 210 250 l 258
 197 250 187 249 182 246 c 256
 173 242 169 235 169 225 c 256
 169 215 173 208 182 203 c 256
 187 200 197 199 210 199 c 258
 384 199 l 258
 400 199 416 202 432 208 c 257
 452 213 466 222 475 233 c 257
 478 224 479 216 479 208 c 256
 479 177 461 154 425 138 c 256
 391 122 346 114 291 114 c 256
 217 114 161 129 122 158 c 256
 87 185 69 220 69 263 c 256
 69 294 73 319 82 336 c 257
 90 313 105 297 126 286 c 256
 141 279 158 276 176 276 c 256
 207 276 233 283 256 300 c 256
 279 317 291 341 291 370 c 256
 291 398 280 421 257 438 c 256
 238 451 216 458 189 458 c 256
 132 458 88 434 57 387 c 256
 33 349 21 306 21 257 c 256
496 338 m 256
 496 324 493 311 486 299 c 256
 479 288 471 283 462 283 c 256
 436 283 414 289 396 302 c 256
 378 315 369 331 369 351 c 256
 369 364 374 375 385 385 c 256
 398 395 412 400 429 400 c 256
 452 400 469 393 482 378 c 256
 491 368 496 355 496 338 c 256
EndSplineSet
PickledDataWithLists: "(dp1
S'com.adobe.type.autohint'
p2
(S'data'
S'<data>\\n  <hintSetList>\\n    <hintset pointTag=\"hr00\">\\n      <hstem pos=\"1\" width=\"113\"/>\\n      <hstem pos=\"199\" width=\"51\"/>\\n      <hstem pos=\"276\" width=\"47\"/>\\n      <hstem pos=\"400\" width=\"68\"/>\\n      <hstem pos=\"414\" width=\"44\"/>\\n      <vstem pos=\"21\" width=\"48\"/>\\n      <vstem pos=\"224\" width=\"67\"/>\\n      <vstem pos=\"313\" width=\"56\"/>\\n      <vstem pos=\"479\" width=\"60\"/>\\n      <vstem pos=\"496\" width=\"51\"/>\\n    </hintset>\\n  </hintSetList>\\n  </data>'
Ntp3
s."
EndChar

StartChar: uni0C07
Encoding: 124 3079 124
GlifName: uni0C07_
Width: 583
VWidth: 0
Flags: W
LayerCount: 2
Back
Fore
SplineSet
419 142 m 257
NamedP: "hr00"
 398 122 370 108 337 100 c 256
 313 94 289 91 266 91 c 256
 241 91 220 93 202 101 c 256
 178 111 166 127 166 146 c 256
 166 169 176 187 197 198 c 256
 214 206 234 210 259 210 c 256
 295 210 328 205 357 193 c 256
 388 181 409 163 419 142 c 257
NamedP: "hr00"
193 405 m 256
 208 405 223 399 236 388 c 256
 250 377 257 365 257 353 c 256
 257 342 259 334 263 329 c 256
 266 325 272 323 281 323 c 256
 294 323 303 325 307 329 c 256
 312 334 314 343 314 356 c 256
 314 370 321 382 334 391 c 256
 346 400 362 404 381 404 c 256
 410 404 435 392 456 368 c 256
 477 343 487 314 487 279 c 256
 487 245 480 212 465 181 c 257
 439 206 406 225 367 240 c 256
 325 255 282 263 239 263 c 256
 186 263 141 251 103 230 c 256
 60 206 38 175 38 135 c 256
 38 90 58 57 96 33 c 256
 132 11 176 -1 231 -1 c 256
 269 -1 307 5 344 18 c 256
 384 33 418 54 446 82 c 257
 449 71 451 61 451 53 c 256
 451 36 447 17 439 -4 c 256
 434 -17 432 -26 432 -33 c 256
 432 -53 437 -69 446 -80 c 257
 455 -88 468 -92 486 -92 c 256
 510 -92 527 -82 536 -63 c 256
 543 -48 547 -26 547 1 c 256
 547 44 531 88 500 134 c 257
 531 175 547 219 547 266 c 256
 547 321 531 366 502 402 c 256
 472 439 435 458 389 458 c 256
 362 458 339 452 320 441 c 256
 303 430 292 417 288 400 c 257
 279 419 263 433 241 442 c 257
 220 453 196 459 167 459 c 256
 122 459 84 447 57 421 c 256
 32 398 21 369 21 338 c 256
 21 321 25 308 32 297 c 257
 41 286 52 280 65 280 c 256
 89 280 105 287 112 302 c 256
 117 311 119 326 119 347 c 256
 119 363 124 376 135 385 c 257
 147 398 166 404 193 405 c 256
EndSplineSet
PickledDataWithLists: "(dp1
S'com.adobe.type.autohint'
p2
(S'data'
S'<data>\\n  <hintSetList>\\n    <hintset pointTag=\"hr00\">\\n      <hstem pos=\"-1\" width=\"92\"/>\\n      <hstem pos=\"210\" width=\"53\"/>\\n      <hstem pos=\"404\" width=\"54\"/>\\n      <vstem pos=\"21\" width=\"98\"/>\\n      <vstem pos=\"38\" width=\"128\"/>\\n      <vstem pos=\"257\" width=\"57\"/>\\n      <vstem pos=\"451\" width=\"96\"/>\\n      <vstem pos=\"487\" width=\"60\"/>\\n    </hintset>\\n  </hintSetList>\\n  </data>'
Ntp3
s."
EndChar

StartChar: uni0C08
Encoding: 125 3080 125
GlifName: uni0C08_
Width: 965
VWidth: 0
Flags: W
LayerCount: 2
Back
Fore
SplineSet
869 172 m 256
NamedP: "hr00"
 869 149 862 132 847 121 c 257
 835 108 816 102 789 102 c 256
 765 102 746 108 732 121 c 256
 720 132 714 148 714 168 c 256
 714 186 721 201 736 212 c 256
 751 223 769 229 790 229 c 256
 811 229 829 224 844 215 c 256
 861 204 869 190 869 172 c 256
NamedP: "hr00"
357 398 m 256
 396 398 431 387 462 366 c 256
 492 345 511 318 519 286 c 257
 193 286 l 257
 199 319 216 346 244 366 c 256
 273 387 311 398 357 398 c 256
357 105 m 256
 302 105 260 119 231 148 c 256
 208 170 195 200 192 238 c 257
 519 238 l 257
 513 203 497 173 470 148 c 256
 439 119 401 105 357 105 c 256
311 438 m 256
 292 438 276 457 259 494 c 256
 241 533 220 553 199 553 c 256
 184 553 171 549 162 540 c 257
 149 531 143 516 143 496 c 256
 143 477 151 460 167 445 c 256
 182 432 201 420 226 411 c 257
 199 399 177 381 159 358 c 256
 141 337 128 313 119 286 c 257
 45 286 l 258
 36 286 30 284 27 280 c 256
 23 275 21 269 21 262 c 256
 21 254 23 248 27 245 c 257
 30 240 36 238 45 238 c 258
 109 238 l 257
 109 215 l 258
 109 155 130 104 173 63 c 256
 218 19 280 -3 357 -3 c 256
 427 -3 484 19 527 63 c 256
 569 106 590 156 590 215 c 258
 590 238 l 257
 699 238 l 257
 684 228 673 213 664 193 c 256
 655 174 651 156 651 138 c 256
 651 102 663 72 687 47 c 256
 712 20 747 7 792 7 c 256
 831 7 863 18 890 44 c 256
 918 70 930 105 930 148 c 256
 930 173 923 197 910 219 c 256
 896 243 875 260 847 270 c 257
 862 277 874 288 883 303 c 256
 892 319 897 338 897 361 c 256
 897 392 886 418 864 437 c 256
 843 455 815 464 778 464 c 256
 742 464 713 456 689 442 c 256
 661 425 645 401 645 366 c 256
 645 349 650 336 660 327 c 256
 668 320 677 316 687 316 c 256
 700 316 711 319 719 326 c 256
 727 333 731 343 731 357 c 257
 728 383 l 257
 728 396 734 405 746 412 c 257
 757 420 771 424 788 424 c 256
 807 424 822 418 835 405 c 256
 846 394 852 380 852 363 c 256
 852 344 846 327 835 313 c 256
 822 298 807 289 790 286 c 257
 580 286 l 257
 567 325 548 359 519 385 c 256
 489 413 450 429 406 438 c 257
 424 451 448 475 485 501 c 258
 492 506 l 257
 522 528 l 258
 562 557 580 585 580 610 c 256
 580 626 575 639 564 650 c 256
 553 661 539 667 522 667 c 256
 509 667 498 664 489 658 c 256
 478 652 468 638 458 620 c 258
 441 589 l 258
 386 488 343 438 311 438 c 256
EndSplineSet
PickledDataWithLists: "(dp1
S'com.adobe.type.autohint'
p2
(S'data'
S'<data>\\n  <hintSetList>\\n    <hintset pointTag=\"hr00\">\\n      <hstem pos=\"-3\" width=\"108\"/>\\n      <hstem pos=\"7\" width=\"95\"/>\\n      <hstem pos=\"238\" width=\"48\"/>\\n      <hstem pos=\"398\" width=\"40\"/>\\n      <hstem pos=\"424\" width=\"40\"/>\\n      <vstem pos=\"109\" width=\"83\"/>\\n      <vstem pos=\"519\" width=\"71\"/>\\n      <vstem pos=\"645\" width=\"86\"/>\\n      <vstem pos=\"651\" width=\"63\"/>\\n      <vstem pos=\"852\" width=\"45\"/>\\n      <vstem pos=\"869\" width=\"61\"/>\\n    </hintset>\\n  </hintSetList>\\n  </data>'
Ntp3
s."
EndChar

StartChar: uni0C09
Encoding: 126 3081 126
GlifName: uni0C09_
Width: 672
VWidth: 0
Flags: W
LayerCount: 2
Back
Fore
SplineSet
569 230 m 256
NamedP: "hr00"
 569 221 565 213 557 208 c 257
 550 201 540 198 526 198 c 256
 517 198 509 201 502 208 c 257
 495 213 492 221 492 230 c 256
 492 240 496 248 505 253 c 257
 512 259 520 262 530 262 c 256
 539 262 548 259 556 253 c 256
 565 246 569 239 569 230 c 256
NamedP: "hr00"
274 115 m 256
 235 115 205 125 186 148 c 256
 168 169 160 198 160 233 c 257
 367 233 l 258
 380 233 390 235 395 238 c 256
 400 241 402 247 402 255 c 256
 402 265 400 272 396 277 c 257
 391 281 382 283 367 283 c 258
 172 283 l 257
 181 318 204 347 241 368 c 256
 276 388 312 398 351 398 c 256
 403 398 444 382 472 348 c 256
 487 331 501 321 517 321 c 256
 530 321 539 324 544 329 c 257
 552 334 556 341 556 351 c 256
 556 377 533 398 486 415 c 256
 445 430 402 438 357 438 c 256
 306 438 260 425 219 400 c 256
 173 373 140 334 121 283 c 257
 47 283 l 258
 38 283 32 282 28 280 c 257
 23 275 21 267 21 255 c 256
 21 245 23 239 28 236 c 256
 31 234 37 233 47 233 c 258
 101 233 l 257
 101 225 l 258
 101 205 99 190 99 181 c 256
 99 119 119 71 160 36 c 256
 189 11 219 -1 250 -1 c 256
 277 -1 301 4 321 14 c 256
 343 25 361 43 374 68 c 257
 384 47 398 30 415 18 c 256
 434 6 456 0 482 0 c 256
 535 0 575 18 603 54 c 256
 626 85 637 123 637 168 c 256
 637 203 627 233 607 259 c 256
 587 284 560 297 526 297 c 256
 499 297 476 291 459 280 c 256
 439 267 429 249 429 226 c 256
 429 207 437 191 452 178 c 256
 468 163 489 155 515 155 c 256
 533 155 549 159 564 168 c 256
 581 179 591 195 594 215 c 257
 596 204 597 196 597 191 c 256
 597 162 585 142 561 129 c 256
 543 120 518 115 485 115 c 256
 459 115 438 121 421 132 c 256
 402 143 392 158 392 178 c 256
 392 185 391 192 389 198 c 257
 386 201 382 203 377 203 c 256
 372 203 368 201 365 198 c 256
 362 193 361 187 361 178 c 256
 361 160 351 144 330 131 c 256
 313 120 294 115 274 115 c 256
406 539 m 256
 406 552 402 564 395 575 c 256
 386 588 374 594 357 594 c 256
 342 594 330 588 321 575 c 256
 314 564 310 552 310 539 c 256
 310 520 319 499 337 476 c 256
 346 463 351 454 354 448 c 257
 362 448 l 257
 364 455 370 464 379 476 c 256
 397 499 406 520 406 539 c 256
EndSplineSet
PickledDataWithLists: "(dp1
S'com.adobe.type.autohint'
p2
(S'data'
S'<data>\\n  <hintSetList>\\n    <hintset pointTag=\"hr00\">\\n      <hstem pos=\"0\" width=\"115\"/>\\n      <hstem pos=\"155\" width=\"43\"/>\\n      <hstem pos=\"233\" width=\"50\"/>\\n      <hstem pos=\"262\" width=\"35\"/>\\n      <hstem pos=\"398\" width=\"40\"/>\\n      <vstem pos=\"99\" width=\"61\"/>\\n      <vstem pos=\"354\" width=\"8\"/>\\n      <vstem pos=\"361\" width=\"31\"/>\\n      <vstem pos=\"429\" width=\"63\"/>\\n      <vstem pos=\"569\" width=\"25\"/>\\n      <vstem pos=\"597\" width=\"40\"/>\\n    </hintset>\\n  </hintSetList>\\n  </data>'
Ntp3
s."
EndChar

StartChar: uni0C0A
Encoding: 127 3082 127
GlifName: uni0C0A_
Width: 965
VWidth: 0
Flags: W
LayerCount: 2
Back
Fore
SplineSet
485 533 m 256
NamedP: "hr00"
 485 546 481 558 472 569 c 256
 463 582 450 589 433 589 c 256
 419 589 408 582 399 569 c 256
 391 558 387 546 387 533 c 256
 387 515 397 495 415 471 c 256
 425 459 429 448 432 442 c 257
 441 442 l 257
 442 450 449 460 458 471 c 256
 477 494 485 515 485 533 c 256
NamedP: "hr00"
364 533 m 256
 364 546 360 558 352 569 c 256
 344 582 331 589 314 589 c 256
 299 589 287 582 278 569 c 256
 271 558 267 546 267 533 c 256
 267 515 276 494 294 471 c 256
 303 458 308 448 311 442 c 257
 320 442 l 257
 322 450 328 460 337 471 c 256
 355 494 364 515 364 533 c 256
869 168 m 256
 869 145 862 128 847 115 c 256
 835 103 816 97 789 97 c 256
 765 97 746 103 732 115 c 257
 720 128 714 144 714 164 c 256
 714 181 721 195 736 208 c 257
 751 218 769 223 790 223 c 256
 811 223 829 219 844 210 c 256
 861 200 869 186 869 168 c 256
556 223 m 256
 550 223 546 222 543 219 c 256
 540 215 539 211 539 206 c 256
 539 201 541 196 544 192 c 256
 548 185 550 177 550 168 c 256
 550 153 544 141 532 131 c 256
 517 120 500 115 480 115 c 256
 455 115 434 121 416 132 c 256
 398 143 389 158 389 178 c 256
 389 185 388 192 385 198 c 257
 381 201 377 203 374 203 c 256
 368 203 364 201 361 198 c 256
 358 193 357 187 357 178 c 256
 357 160 346 144 325 131 c 256
 308 120 290 115 270 115 c 256
 234 115 206 126 185 148 c 256
 165 168 155 193 155 223 c 258
 155 233 l 257
 699 233 l 257
 684 224 674 209 664 188 c 256
 656 170 651 151 651 132 c 256
 651 97 663 67 687 41 c 256
 712 14 747 1 792 1 c 256
 831 1 863 14 890 40 c 256
 917 67 930 101 930 142 c 256
 930 168 923 192 910 213 c 256
 895 238 875 254 847 263 c 257
 862 272 875 283 883 297 c 256
 893 314 897 334 897 356 c 256
 897 388 886 413 864 431 c 256
 843 449 815 458 778 458 c 256
 742 458 712 451 689 438 c 256
 660 421 645 395 645 360 c 256
 645 344 650 332 660 323 c 257
 668 314 677 310 687 310 c 256
 700 310 711 313 719 320 c 256
 727 327 731 338 731 353 c 257
 728 378 l 257
 728 391 734 401 746 408 c 256
 757 415 771 418 788 418 c 256
 807 418 822 412 835 400 c 256
 846 389 852 374 852 357 c 256
 852 338 847 322 835 307 c 256
 823 292 807 283 790 280 c 257
 166 280 l 257
 179 313 200 342 229 363 c 256
 262 387 299 398 341 398 c 256
 372 398 397 394 416 387 c 256
 431 381 445 373 453 361 c 258
 469 338 l 257
 482 315 500 303 522 303 c 256
 531 303 540 306 547 313 c 256
 556 320 560 327 560 336 c 256
 560 367 538 392 493 411 c 256
 453 429 408 438 357 438 c 256
 293 438 240 421 199 391 c 256
 161 363 133 327 116 280 c 257
 45 280 l 258
 36 280 30 278 27 274 c 256
 23 269 21 263 21 256 c 256
 21 249 23 244 27 240 c 257
 30 235 36 233 45 233 c 258
 105 233 l 257
 104 224 103 213 103 198 c 256
 103 144 118 99 146 61 c 256
 176 22 214 1 263 1 c 256
 284 1 304 6 325 17 c 256
 346 28 361 41 368 58 c 257
 377 40 389 26 406 17 c 257
 423 6 445 1 470 1 c 256
 508 1 539 13 564 37 c 256
 593 64 607 101 607 148 c 256
 607 166 602 183 591 198 c 257
 582 215 570 223 556 223 c 256
EndSplineSet
PickledDataWithLists: "(dp1
S'com.adobe.type.autohint'
p2
(S'data'
S'<data>\\n  <hintSetList>\\n    <hintset pointTag=\"hr00\">\\n      <hstem pos=\"1\" width=\"114\"/>\\n      <hstem pos=\"1\" width=\"96\"/>\\n      <hstem pos=\"233\" width=\"47\"/>\\n      <hstem pos=\"398\" width=\"40\"/>\\n      <hstem pos=\"418\" width=\"40\"/>\\n      <hstem pos=\"442\" width=\"147\"/>\\n      <vstem pos=\"103\" width=\"52\"/>\\n      <vstem pos=\"311\" width=\"9\"/>\\n      <vstem pos=\"357\" width=\"32\"/>\\n      <vstem pos=\"432\" width=\"9\"/>\\n      <vstem pos=\"550\" width=\"57\"/>\\n      <vstem pos=\"645\" width=\"86\"/>\\n      <vstem pos=\"651\" width=\"63\"/>\\n      <vstem pos=\"852\" width=\"45\"/>\\n      <vstem pos=\"869\" width=\"61\"/>\\n    </hintset>\\n  </hintSetList>\\n  </data>'
Ntp3
s."
EndChar

StartChar: uni0C0B
Encoding: 128 3083 128
GlifName: uni0C0B_
Width: 1147
VWidth: 0
Flags: W
LayerCount: 2
Back
Fore
SplineSet
406 108 m 256
NamedP: "hr00"
 379 108 357 115 342 129 c 256
 327 144 320 163 320 186 c 256
 320 194 318 201 314 208 c 256
 312 213 309 215 304 215 c 256
 298 215 294 213 291 210 c 256
 288 205 287 199 287 192 c 256
 287 168 278 150 259 134 c 256
 239 118 219 108 195 108 c 256
 158 108 131 112 116 121 c 257
 99 128 91 141 91 159 c 256
 91 174 97 186 109 195 c 256
 120 204 148 214 192 225 c 256
 229 235 255 249 271 267 c 256
 286 284 293 307 293 336 c 256
 293 367 280 394 253 415 c 256
 226 437 194 448 156 448 c 256
 119 448 88 438 62 417 c 256
 37 397 24 372 24 343 c 256
 24 327 29 313 39 302 c 256
 51 290 64 284 78 284 c 256
 95 284 107 287 116 293 c 256
 125 299 129 308 129 319 c 256
 129 322 127 328 122 338 c 256
 118 346 116 352 116 356 c 256
 116 365 122 374 135 383 c 256
 147 390 161 394 177 394 c 256
 200 394 218 388 229 377 c 256
 241 364 247 348 247 327 c 256
 247 310 240 297 226 286 c 256
 211 275 189 268 159 263 c 256
 110 254 75 240 54 219 c 256
 32 197 21 168 21 131 c 256
 21 95 36 66 64 40 c 256
 93 14 126 0 166 0 c 256
 197 0 224 6 246 17 c 256
 267 28 285 44 298 65 c 257
 309 46 324 29 344 17 c 256
 364 5 386 0 409 0 c 256
 436 0 461 5 485 18 c 256
 508 30 525 48 537 70 c 257
 552 47 571 30 594 17 c 256
 616 4 640 -3 665 -3 c 256
 696 -3 724 4 749 18 c 256
 773 31 792 49 805 73 c 257
 819 49 838 32 862 18 c 256
 885 5 910 -3 937 -3 c 256
 993 -3 1035 17 1065 58 c 256
 1095 99 1112 155 1112 228 c 256
 1112 287 1095 337 1062 378 c 256
 1028 420 987 441 940 441 c 256
 923 441 910 438 901 431 c 256
 893 426 889 418 889 407 c 256
 889 394 893 384 900 378 c 257
 907 375 922 373 944 373 c 256
 976 373 1004 361 1028 336 c 256
 1051 311 1063 282 1063 247 c 256
 1063 210 1052 177 1029 148 c 256
 1006 121 979 108 948 108 c 256
 923 108 901 114 881 125 c 256
 862 136 847 150 837 168 c 257
 840 186 842 206 842 228 c 256
 842 287 825 337 792 378 c 256
 758 420 717 441 668 441 c 256
 652 441 640 438 631 431 c 257
 622 426 617 418 617 407 c 256
 617 394 621 384 630 378 c 257
 637 375 652 373 674 373 c 256
 706 373 734 361 758 336 c 256
 781 311 792 282 792 247 c 256
 792 210 782 176 759 148 c 256
 737 120 709 108 677 108 c 256
 653 108 631 114 610 125 c 256
 590 136 575 150 566 168 c 257
 569 193 570 213 570 228 c 256
 570 287 552 337 519 378 c 256
 485 420 445 441 396 441 c 256
 380 441 368 438 359 431 c 256
 351 426 347 418 347 407 c 256
 347 394 350 384 357 378 c 257
 365 375 380 373 402 373 c 256
 435 373 463 361 486 336 c 256
 510 311 522 282 522 247 c 256
 522 210 510 177 487 148 c 256
 464 121 437 108 406 108 c 256
NamedP: "hr00"
EndSplineSet
PickledDataWithLists: "(dp1
S'com.adobe.type.autohint'
p2
(S'data'
S'<data>\\n  <hintSetList>\\n    <hintset pointTag=\"hr00\">\\n      <hstem pos=\"-3\" width=\"111\"/>\\n      <hstem pos=\"0\" width=\"108\"/>\\n      <hstem pos=\"373\" width=\"68\"/>\\n      <hstem pos=\"394\" width=\"54\"/>\\n      <vstem pos=\"21\" width=\"70\"/>\\n      <vstem pos=\"24\" width=\"92\"/>\\n      <vstem pos=\"247\" width=\"46\"/>\\n      <vstem pos=\"287\" width=\"33\"/>\\n      <vstem pos=\"522\" width=\"48\"/>\\n      <vstem pos=\"792\" width=\"50\"/>\\n      <vstem pos=\"1063\" width=\"49\"/>\\n    </hintset>\\n  </hintSetList>\\n  </data>'
Ntp3
s."
EndChar

StartChar: uni0C0C
Encoding: 129 3084 129
GlifName: uni0C0C_
Width: 827
VWidth: 0
Flags: W
LayerCount: 2
Back
Fore
SplineSet
559 307 m 256
NamedP: "hr00"
 561 320 564 333 564 348 c 256
 564 388 548 420 517 445 c 256
 490 468 457 479 419 479 c 256
 382 479 352 472 328 457 c 256
 312 446 298 431 287 412 c 257
 278 429 266 444 249 454 c 256
 226 468 198 474 166 474 c 256
 125 474 92 460 64 431 c 256
 36 401 21 367 21 324 c 256
 21 285 30 255 48 232 c 256
 59 217 73 206 88 199 c 258
 95 196 l 257
 101 196 l 258
 106 196 109 197 111 199 c 256
 114 201 116 203 116 206 c 256
 116 207 116 208 115 209 c 256
 101 228 94 252 94 280 c 256
 94 303 103 321 118 338 c 256
 135 356 155 366 180 366 c 256
 209 366 230 360 243 348 c 256
 258 335 266 317 266 293 c 256
 266 284 267 277 268 272 c 257
 272 266 276 263 280 263 c 256
 287 263 292 266 295 272 c 256
 297 275 298 280 298 287 c 256
 298 311 309 331 331 348 c 256
 351 363 371 370 391 370 c 256
 422 370 445 366 460 361 c 256
 482 353 493 340 493 319 c 256
 493 292 475 258 438 216 c 257
 355 151 314 95 314 50 c 258
 314 40 l 258
 314 11 326 -20 350 -53 c 257
 407 -112 470 -142 537 -142 c 256
 573 -142 610 -137 644 -121 c 256
 744 -76 792 25 792 174 c 256
 792 199 791 228 785 259 c 256
 759 383 715 445 654 445 c 258
 652 445 l 256
 633 441 623 429 623 408 c 256
 623 390 634 373 658 360 c 256
 715 328 745 273 745 191 c 256
 745 140 736 97 718 64 c 256
 678 -11 620 -48 544 -48 c 258
 522 -48 l 258
 515 -48 506 -47 493 -46 c 257
 416 -25 378 7 378 48 c 256
 378 89 421 142 506 206 c 257
 536 239 553 272 559 307 c 256
NamedP: "hr00"
EndSplineSet
PickledDataWithLists: "(dp1
S'com.adobe.type.autohint'
p2
(S'data'
S'<data>\\n  <hintSetList>\\n    <hintset pointTag=\"hr00\">\\n      <hstem pos=\"-142\" width=\"94\"/>\\n      <hstem pos=\"366\" width=\"108\"/>\\n      <hstem pos=\"370\" width=\"109\"/>\\n      <vstem pos=\"21\" width=\"73\"/>\\n      <vstem pos=\"266\" width=\"32\"/>\\n      <vstem pos=\"314\" width=\"64\"/>\\n      <vstem pos=\"493\" width=\"71\"/>\\n      <vstem pos=\"745\" width=\"47\"/>\\n    </hintset>\\n  </hintSetList>\\n  </data>'
Ntp3
s."
EndChar

StartChar: uni0C0E
Encoding: 130 3086 130
GlifName: uni0C0E_
Width: 644
VWidth: 0
Flags: W
LayerCount: 2
Back
Fore
SplineSet
284 208 m 256
NamedP: "hr00"
 284 181 278 158 264 139 c 256
 249 118 223 108 189 108 c 256
 156 108 131 119 113 142 c 256
 98 161 91 183 91 208 c 256
 91 231 100 250 118 267 c 256
 137 284 159 292 186 292 c 256
 213 292 235 283 254 267 c 256
 274 250 284 231 284 208 c 256
NamedP: "hr00"
608 272 m 256
 608 358 583 438 530 511 c 256
 473 590 401 630 318 630 c 256
 298 630 281 626 266 619 c 256
 247 609 237 594 237 573 c 256
 237 560 242 550 251 543 c 257
 260 538 271 535 284 535 c 256
 291 535 302 537 317 540 c 256
 333 543 345 545 352 545 c 256
 401 545 446 519 487 468 c 256
 530 415 551 352 551 280 c 256
 551 237 542 200 524 169 c 256
 505 135 478 118 445 118 c 256
 400 118 365 150 344 215 c 256
 336 238 332 253 327 262 c 256
 314 283 298 300 278 314 c 256
 253 331 226 340 196 340 c 256
 141 340 98 324 68 292 c 256
 37 259 21 217 21 165 c 256
 21 118 37 79 69 47 c 256
 100 15 138 -1 182 -1 c 256
 213 -1 242 8 268 26 c 256
 290 42 305 59 313 77 c 257
 316 59 327 42 344 27 c 256
 364 9 388 0 415 0 c 256
 483 0 533 27 566 80 c 256
 594 125 608 189 608 272 c 256
EndSplineSet
PickledDataWithLists: "(dp1
S'com.adobe.type.autohint'
p2
(S'data'
S'<data>\\n  <hintSetList>\\n    <hintset pointTag=\"hr00\">\\n      <hstem pos=\"-1\" width=\"109\"/>\\n      <hstem pos=\"0\" width=\"118\"/>\\n      <hstem pos=\"292\" width=\"48\"/>\\n      <hstem pos=\"545\" width=\"85\"/>\\n      <vstem pos=\"21\" width=\"70\"/>\\n      <vstem pos=\"551\" width=\"57\"/>\\n    </hintset>\\n  </hintSetList>\\n  </data>'
Ntp3
s."
EndChar

StartChar: uni0C0F
Encoding: 131 3087 131
GlifName: uni0C0F_
Width: 644
VWidth: 0
Flags: W
LayerCount: 2
Back
Fore
SplineSet
284 208 m 256
NamedP: "hr00"
 284 181 278 158 264 139 c 256
 249 118 223 108 189 108 c 256
 156 108 131 119 113 142 c 256
 98 161 91 183 91 208 c 256
 91 231 100 250 118 267 c 256
 137 284 159 292 186 292 c 256
 213 292 235 283 254 267 c 256
 274 250 284 231 284 208 c 256
NamedP: "hr00"
608 272 m 256
 608 358 583 438 530 511 c 256
 473 590 401 630 318 630 c 256
 298 630 281 626 266 619 c 256
 247 609 237 594 237 573 c 256
 237 560 242 550 251 543 c 257
 260 538 271 535 284 535 c 256
 291 535 302 537 317 540 c 256
 333 543 345 545 352 545 c 256
 401 545 446 519 487 468 c 256
 530 415 551 352 551 280 c 256
 551 237 542 200 524 169 c 256
 505 135 478 118 445 118 c 256
 400 118 365 150 344 215 c 256
 336 238 332 253 327 262 c 256
 314 283 298 300 278 314 c 256
 253 331 226 340 196 340 c 256
 141 340 98 324 68 292 c 256
 37 259 21 217 21 165 c 256
 21 118 37 79 69 47 c 256
 100 15 138 -1 182 -1 c 256
 213 -1 242 8 268 26 c 256
 290 42 305 59 313 77 c 257
 316 59 327 42 344 27 c 256
 364 9 388 0 415 0 c 256
 483 0 533 27 566 80 c 256
 594 125 608 189 608 272 c 256
222 745 m 256
 178 745 142 729 111 698 c 256
 82 669 68 636 68 596 c 256
 68 567 75 543 89 522 c 256
 105 497 125 485 149 485 c 256
 152 485 154 485 156 486 c 256
 158 488 159 491 159 494 c 258
 159 494 158 495 156 498 c 257
 156 500 156 501 155 501 c 256
 146 509 140 518 136 529 c 256
 133 536 132 547 132 560 c 256
 132 593 144 619 169 643 c 256
 195 667 224 680 259 680 c 256
 278 680 296 676 314 667 c 257
 314 668 l 257
 316 672 317 675 317 677 c 256
 317 696 306 712 284 727 c 256
 266 739 245 745 222 745 c 256
EndSplineSet
PickledDataWithLists: "(dp1
S'com.adobe.type.autohint'
p2
(S'data'
S'<data>\\n  <hintSetList>\\n    <hintset pointTag=\"hr00\">\\n      <hstem pos=\"-1\" width=\"109\"/>\\n      <hstem pos=\"0\" width=\"118\"/>\\n      <hstem pos=\"292\" width=\"48\"/>\\n      <hstem pos=\"485\" width=\"9\"/>\\n      <hstem pos=\"545\" width=\"85\"/>\\n      <hstem pos=\"680\" width=\"65\"/>\\n      <vstem pos=\"21\" width=\"70\"/>\\n      <vstem pos=\"68\" width=\"64\"/>\\n      <vstem pos=\"551\" width=\"57\"/>\\n    </hintset>\\n  </hintSetList>\\n  </data>'
Ntp3
s."
EndChar

StartChar: uni0C10
Encoding: 132 3088 132
GlifName: uni0C10_
Width: 607
VWidth: 0
Flags: W
LayerCount: 2
Back
Fore
SplineSet
249 181 m 256
NamedP: "hr00"
 249 159 242 141 229 128 c 256
 214 113 193 105 165 105 c 256
 137 105 116 113 101 129 c 256
 88 144 82 160 82 178 c 256
 82 198 90 215 105 230 c 257
 121 243 140 250 163 250 c 256
 187 250 207 243 223 230 c 256
 240 217 249 200 249 181 c 256
NamedP: "hr00"
517 260 m 256
 517 205 502 166 472 141 c 256
 450 123 422 114 387 114 c 256
 362 114 343 121 328 135 c 256
 316 146 308 163 304 185 c 256
 297 217 286 242 270 259 c 256
 247 282 215 293 172 293 c 256
 126 293 89 279 61 250 c 256
 34 223 21 187 21 142 c 256
 21 102 35 68 62 40 c 256
 89 13 122 -1 159 -1 c 256
 193 -1 221 8 244 23 c 256
 262 35 274 48 281 65 c 257
 286 48 298 33 317 20 c 256
 338 6 364 -1 396 -1 c 256
 455 -1 499 20 527 63 c 256
 556 107 571 172 571 259 c 256
 571 324 555 377 522 420 c 256
 489 463 446 484 395 484 c 256
 368 484 346 478 327 466 c 256
 310 456 299 442 294 425 c 257
 285 444 269 459 247 468 c 257
 226 479 202 485 173 485 c 256
 128 485 91 472 64 447 c 256
 40 423 28 396 28 366 c 256
 28 347 32 333 39 323 c 256
 48 312 58 307 71 307 c 256
 104 307 123 326 126 364 c 256
 129 409 154 431 199 431 c 256
 219 431 235 425 246 414 c 256
 256 405 261 394 261 381 c 256
 261 372 264 364 270 357 c 256
 275 351 281 348 288 348 c 256
 301 348 309 351 314 356 c 256
 318 359 320 368 320 381 c 256
 320 395 327 407 340 417 c 256
 353 426 368 430 387 430 c 256
 428 430 461 411 485 374 c 256
 506 342 517 304 517 260 c 256
EndSplineSet
PickledDataWithLists: "(dp1
S'com.adobe.type.autohint'
p2
(S'data'
S'<data>\\n  <hintSetList>\\n    <hintset pointTag=\"hr00\">\\n      <hstem pos=\"-1\" width=\"115\"/>\\n      <hstem pos=\"-1\" width=\"106\"/>\\n      <hstem pos=\"250\" width=\"43\"/>\\n      <hstem pos=\"430\" width=\"54\"/>\\n      <vstem pos=\"21\" width=\"61\"/>\\n      <vstem pos=\"261\" width=\"59\"/>\\n      <vstem pos=\"517\" width=\"54\"/>\\n    </hintset>\\n  </hintSetList>\\n  </data>'
Ntp3
s."
EndChar

StartChar: uni0C12
Encoding: 133 3090 133
GlifName: uni0C12_
Width: 600
VWidth: 0
Flags: W
LayerCount: 2
Back
Fore
SplineSet
564 155 m 256
NamedP: "hr00"
 564 193 554 224 536 247 c 256
 524 262 511 273 496 280 c 257
 494 280 492 281 489 283 c 257
 483 283 l 258
 480 283 477 282 475 280 c 256
 471 278 469 276 469 273 c 256
 469 272 469 272 469 272 c 257
 469 271 469 270 470 270 c 257
 485 250 492 226 492 198 c 256
 492 176 484 156 468 139 c 256
 451 121 430 112 404 112 c 256
 376 112 355 118 342 131 c 256
 327 145 320 163 320 186 c 256
 320 195 319 202 317 208 c 257
 313 213 309 215 304 215 c 256
 297 215 291 213 288 208 c 257
 287 204 287 199 287 192 c 256
 287 167 276 147 253 131 c 256
 233 116 214 108 195 108 c 256
 162 108 139 111 125 117 c 257
 102 124 91 138 91 159 c 256
 91 186 118 208 173 225 c 256
 256 250 297 291 297 348 c 256
 297 383 285 411 261 431 c 256
 238 450 204 459 160 459 c 256
 127 459 99 451 74 435 c 256
 43 415 28 389 28 356 c 256
 28 339 33 325 44 313 c 256
 55 302 68 296 82 296 c 256
 100 296 113 300 122 307 c 256
 129 312 132 319 132 330 c 256
 132 335 130 342 126 351 c 256
 123 358 121 363 121 366 c 256
 121 381 128 391 143 398 c 256
 154 403 167 405 182 405 c 256
 202 405 218 400 229 391 c 256
 244 380 251 362 251 338 c 256
 251 321 241 304 220 289 c 256
 201 275 181 267 159 263 c 256
 119 255 90 247 71 235 c 256
 38 213 21 178 21 131 c 256
 21 91 37 58 68 33 c 256
 95 11 128 0 166 0 c 256
 202 0 232 8 257 23 c 256
 273 32 287 46 298 65 c 257
 307 49 320 36 337 26 c 256
 360 13 387 6 419 6 c 256
 459 6 493 19 522 48 c 256
 551 77 564 112 564 155 c 256
NamedP: "hr00"
EndSplineSet
PickledDataWithLists: "(dp1
S'com.adobe.type.autohint'
p2
(S'data'
S'<data>\\n  <hintSetList>\\n    <hintset pointTag=\"hr00\">\\n      <hstem pos=\"0\" width=\"108\"/>\\n      <hstem pos=\"6\" width=\"106\"/>\\n      <hstem pos=\"272\" width=\"11\"/>\\n      <hstem pos=\"405\" width=\"54\"/>\\n      <vstem pos=\"21\" width=\"70\"/>\\n      <vstem pos=\"28\" width=\"93\"/>\\n      <vstem pos=\"251\" width=\"46\"/>\\n      <vstem pos=\"287\" width=\"33\"/>\\n      <vstem pos=\"492\" width=\"72\"/>\\n    </hintset>\\n  </hintSetList>\\n  </data>'
Ntp3
s."
EndChar

StartChar: uni0C13
Encoding: 134 3091 134
GlifName: uni0C13_
Width: 600
VWidth: 0
Flags: W
LayerCount: 2
Back
Fore
SplineSet
564 155 m 256
NamedP: "hr00"
 564 193 554 224 536 247 c 256
 524 262 511 273 496 280 c 257
 494 280 492 281 489 283 c 257
 483 283 l 258
 480 283 477 282 475 280 c 256
 471 278 469 276 469 273 c 256
 469 272 469 272 469 272 c 257
 469 271 469 270 470 270 c 257
 485 250 492 226 492 198 c 256
 492 176 484 156 468 139 c 256
 451 121 430 112 404 112 c 256
 376 112 355 118 342 131 c 256
 327 145 320 163 320 186 c 256
 320 195 319 202 317 208 c 257
 313 213 309 215 304 215 c 256
 297 215 291 213 288 208 c 257
 287 204 287 199 287 192 c 256
 287 167 276 147 253 131 c 256
 233 116 214 108 195 108 c 256
 162 108 139 111 125 117 c 257
 102 124 91 138 91 159 c 256
 91 186 118 208 173 225 c 256
 256 250 297 291 297 348 c 256
 297 378 288 402 271 421 c 256
 253 440 229 452 199 457 c 257
 192 462 187 468 182 475 c 256
 176 484 173 494 173 505 c 256
 173 528 180 544 195 553 c 257
 206 562 222 566 241 566 c 256
 260 566 276 562 287 553 c 256
 298 544 304 530 304 511 c 256
 304 500 303 491 300 484 c 257
 320 479 l 257
 330 490 338 501 344 511 c 257
 348 521 350 532 350 543 c 256
 350 572 341 597 321 616 c 256
 300 637 269 646 231 646 c 256
 195 646 167 637 146 619 c 256
 126 602 116 579 116 550 c 256
 116 534 118 520 121 508 c 256
 126 490 135 473 148 458 c 257
 117 455 90 446 67 430 c 256
 41 411 28 386 28 356 c 256
 28 339 33 325 44 313 c 256
 55 302 68 296 82 296 c 256
 100 296 113 300 122 307 c 256
 129 312 132 319 132 330 c 256
 132 335 130 342 126 351 c 256
 123 358 121 363 121 366 c 256
 121 381 128 391 143 398 c 256
 154 403 167 405 182 405 c 256
 202 405 218 400 229 391 c 256
 244 380 251 362 251 338 c 256
 251 321 241 304 220 289 c 256
 201 275 181 267 159 263 c 256
 119 255 90 247 71 235 c 256
 38 213 21 178 21 131 c 256
 21 91 37 58 68 33 c 256
 95 11 128 0 166 0 c 256
 202 0 232 8 257 23 c 256
 273 32 287 46 298 65 c 257
 307 49 320 36 337 26 c 256
 360 13 387 6 419 6 c 256
 459 6 493 19 522 48 c 256
 551 77 564 112 564 155 c 256
NamedP: "hr00"
EndSplineSet
PickledDataWithLists: "(dp1
S'com.adobe.type.autohint'
p2
(S'data'
S'<data>\\n  <hintSetList>\\n    <hintset pointTag=\"hr00\">\\n      <hstem pos=\"0\" width=\"108\"/>\\n      <hstem pos=\"6\" width=\"106\"/>\\n      <hstem pos=\"272\" width=\"11\"/>\\n      <hstem pos=\"405\" width=\"53\"/>\\n      <hstem pos=\"566\" width=\"80\"/>\\n      <vstem pos=\"21\" width=\"70\"/>\\n      <vstem pos=\"28\" width=\"93\"/>\\n      <vstem pos=\"116\" width=\"57\"/>\\n      <vstem pos=\"251\" width=\"46\"/>\\n      <vstem pos=\"287\" width=\"33\"/>\\n      <vstem pos=\"304\" width=\"46\"/>\\n      <vstem pos=\"492\" width=\"72\"/>\\n    </hintset>\\n  </hintSetList>\\n  </data>'
Ntp3
s."
EndChar

StartChar: uni0C14
Encoding: 135 3092 135
GlifName: uni0C14_
Width: 605
VWidth: 0
Flags: W
LayerCount: 2
Back
Fore
SplineSet
446 472 m 256
NamedP: "hr00"
 461 472 474 467 483 458 c 256
 494 449 499 439 499 428 c 256
 499 408 493 393 480 383 c 256
 471 375 459 371 446 371 c 256
 429 371 416 376 406 385 c 256
 396 395 391 408 391 425 c 256
 391 438 396 449 406 458 c 256
 416 467 429 472 446 472 c 256
NamedP: "hr00"
436 536 m 258
 457 536 476 532 492 521 c 256
 510 509 519 492 519 471 c 257
 508 483 496 493 483 501 c 257
 471 506 457 509 441 509 c 256
 408 509 383 500 364 481 c 256
 345 461 335 434 335 400 c 256
 335 371 346 346 367 326 c 256
 388 306 414 296 446 296 c 256
 481 296 509 309 530 334 c 256
 551 361 561 397 561 444 c 256
 561 490 550 528 529 559 c 256
 502 597 461 616 406 616 c 258
 69 616 l 258
 53 616 41 613 34 606 c 256
 25 599 21 588 21 573 c 256
 21 560 26 550 37 543 c 256
 44 538 55 536 69 536 c 258
 220 536 l 258
 227 536 234 532 240 523 c 256
 245 515 247 507 247 498 c 256
 247 487 244 478 237 471 c 256
 230 463 223 459 214 459 c 258
 74 459 l 258
 70 459 67 458 64 455 c 256
 62 452 61 448 61 441 c 256
 61 438 61 435 62 432 c 256
 63 429 66 428 69 428 c 257
 58 419 49 408 44 395 c 257
 37 383 34 370 34 356 c 256
 34 339 40 325 51 313 c 256
 62 302 75 296 88 296 c 256
 107 296 120 300 129 307 c 256
 136 312 139 319 139 330 c 256
 139 335 137 342 132 351 c 256
 128 358 126 363 126 366 c 256
 126 381 134 391 150 398 c 256
 161 403 174 405 189 405 c 256
 209 405 225 400 237 391 c 256
 252 380 259 362 259 338 c 256
 259 321 248 304 227 289 c 256
 208 275 188 267 165 263 c 256
 125 255 95 247 76 235 c 256
 44 213 28 178 28 131 c 256
 28 91 43 58 74 33 c 256
 102 11 135 0 172 0 c 256
 209 0 239 9 263 23 c 256
 280 33 293 46 304 65 c 257
 313 49 326 36 344 26 c 256
 366 13 393 6 425 6 c 256
 466 6 500 20 527 48 c 256
 556 77 570 112 570 155 c 256
 570 193 561 224 543 247 c 256
 532 262 518 273 502 280 c 257
 501 280 499 281 496 283 c 257
 489 283 l 258
 486 283 483 282 480 280 c 256
 477 278 475 276 475 273 c 256
 475 272 475 272 475 272 c 257
 475 271 475 270 476 270 c 257
 490 250 497 226 497 198 c 256
 497 176 490 156 475 139 c 256
 458 121 436 112 411 112 c 256
 383 112 362 118 348 131 c 256
 334 144 327 163 327 186 c 256
 327 195 326 202 323 208 c 257
 319 213 315 215 311 215 c 256
 304 215 298 213 295 208 c 257
 294 204 293 199 293 192 c 256
 293 167 282 147 259 131 c 256
 239 116 220 108 202 108 c 256
 169 108 146 112 131 117 c 256
 109 125 98 138 98 159 c 256
 98 186 125 208 180 225 c 256
 263 250 304 291 304 348 c 256
 304 366 300 382 293 395 c 257
 287 410 278 422 266 431 c 257
 275 438 283 447 288 458 c 256
 293 469 295 481 295 492 c 256
 295 499 295 507 291 515 c 257
 289 524 286 531 281 536 c 257
 436 536 l 258
EndSplineSet
PickledDataWithLists: "(dp1
S'com.adobe.type.autohint'
p2
(S'data'
S'<data>\\n  <hintSetList>\\n    <hintset pointTag=\"hr00\">\\n      <hstem pos=\"0\" width=\"108\"/>\\n      <hstem pos=\"6\" width=\"106\"/>\\n      <hstem pos=\"272\" width=\"11\"/>\\n      <hstem pos=\"296\" width=\"75\"/>\\n      <hstem pos=\"405\" width=\"54\"/>\\n      <hstem pos=\"472\" width=\"37\"/>\\n      <hstem pos=\"536\" width=\"80\"/>\\n      <vstem pos=\"28\" width=\"70\"/>\\n      <vstem pos=\"34\" width=\"92\"/>\\n      <vstem pos=\"247\" width=\"48\"/>\\n      <vstem pos=\"259\" width=\"45\"/>\\n      <vstem pos=\"293\" width=\"34\"/>\\n      <vstem pos=\"335\" width=\"56\"/>\\n      <vstem pos=\"497\" width=\"73\"/>\\n      <vstem pos=\"519\" width=\"42\"/>\\n    </hintset>\\n  </hintSetList>\\n  </data>'
Ntp3
s."
EndChar

StartChar: uni0C15
Encoding: 136 3093 136
GlifName: uni0C15_
Width: 524
VWidth: 0
Flags: W
LayerCount: 2
Back
Fore
SplineSet
310 434 m 257
NamedP: "hr00"
 329 448 350 465 374 485 c 258
 402 509 l 257
 432 530 l 258
 472 558 489 588 489 613 c 256
 489 629 483 642 472 653 c 256
 461 663 448 668 432 668 c 256
 418 668 407 666 398 661 c 256
 387 654 377 642 367 623 c 258
 350 590 l 258
 299 490 253 441 220 441 c 256
 201 441 183 459 167 496 c 256
 149 536 131 556 108 556 c 256
 93 556 81 552 71 543 c 257
 58 534 52 519 52 498 c 256
 52 469 73 443 116 420 c 257
 116 420 117 419 118 418 c 257
 95 407 l 258
 48 385 28 346 28 302 c 256
 28 259 44 229 76 210 c 256
 103 195 139 187 185 188 c 258
 241 189 l 258
 270 190 295 184 318 174 c 256
 349 161 364 142 364 117 c 256
 364 98 354 79 330 65 c 256
 309 52 286 47 264 47 c 256
 208 47 164 72 133 121 c 256
 115 150 97 164 78 164 c 256
 65 164 52 160 41 152 c 256
 28 143 21 131 21 115 c 256
 21 77 43 47 86 27 c 256
 127 8 182 0 250 0 c 256
 301 0 348 14 394 40 c 256
 448 71 476 111 476 162 c 256
 476 199 458 228 423 249 c 256
 392 267 354 276 307 276 c 258
 291 276 l 257
 259 274 l 258
 219 272 188 277 167 283 c 256
 134 292 118 309 118 336 c 256
 118 354 129 368 150 377 c 256
 167 384 189 388 216 388 c 256
 257 388 290 372 317 341 c 256
 340 316 365 303 394 303 c 256
 405 303 415 306 423 313 c 257
 435 320 441 330 441 344 c 256
 441 366 423 387 387 407 c 256
 364 419 338 428 310 434 c 257
NamedP: "hr00"
EndSplineSet
PickledDataWithLists: "(dp1
S'com.adobe.type.autohint'
p2
(S'data'
S'<data>\\n  <hintSetList>\\n    <hintset pointTag=\"hr00\">\\n      <hstem pos=\"0\" width=\"47\"/>\\n      <hstem pos=\"188\" width=\"86\"/>\\n      <hstem pos=\"388\" width=\"53\"/>\\n      <vstem pos=\"28\" width=\"90\"/>\\n      <vstem pos=\"364\" width=\"112\"/>\\n    </hintset>\\n  </hintSetList>\\n  </data>'
Ntp3
s."
EndChar

StartChar: uni0C16
Encoding: 137 3094 137
GlifName: uni0C16_
Width: 698
VWidth: 0
Flags: W
LayerCount: 2
Back
Fore
SplineSet
423 -80 m 256
NamedP: "hr00"
 423 -65 419 -49 411 -33 c 256
 402 -16 390 1 374 18 c 257
 367 24 l 257
 348 5 334 -13 324 -31 c 256
 314 -49 308 -65 308 -80 c 256
 308 -97 313 -110 324 -119 c 256
 335 -129 349 -134 367 -134 c 256
 384 -134 397 -129 408 -119 c 256
 418 -109 423 -96 423 -80 c 256
NamedP: "hr00"
249 363 m 256
 249 348 244 336 233 327 c 256
 222 318 209 313 195 313 c 256
 178 313 163 317 152 326 c 256
 141 334 135 344 135 356 c 256
 135 373 140 385 150 394 c 256
 161 403 177 408 196 408 c 256
 211 408 224 404 233 395 c 256
 244 386 249 375 249 363 c 256
341 135 m 257
 325 119 307 107 288 98 c 256
 267 89 246 85 223 85 c 256
 190 85 164 90 146 100 c 256
 128 109 119 122 119 138 c 256
 119 156 128 171 146 181 c 256
 163 191 187 195 216 195 c 256
 246 195 272 189 294 178 c 256
 317 167 332 153 341 135 c 257
502 111 m 256
 482 111 464 116 449 125 c 256
 433 134 422 145 415 159 c 257
 416 174 l 257
 424 205 428 223 428 230 c 256
 428 301 408 356 369 395 c 256
 330 434 275 454 204 454 c 256
 154 454 115 444 86 425 c 256
 56 405 41 379 41 348 c 256
 41 325 52 305 74 290 c 256
 97 275 126 267 163 267 c 256
 201 267 234 277 261 296 c 256
 288 316 301 339 301 366 c 256
 301 374 301 380 300 385 c 257
 323 378 341 361 355 334 c 256
 370 307 377 275 377 238 c 256
 377 218 374 201 367 186 c 257
 350 207 326 224 297 236 c 256
 268 247 235 253 199 253 c 256
 145 253 103 241 71 219 c 256
 39 196 21 168 21 131 c 256
 21 94 39 62 74 36 c 256
 108 10 149 -3 197 -3 c 256
 232 -3 265 3 295 16 c 256
 326 29 350 47 369 68 c 257
 382 47 400 30 422 17 c 256
 444 5 467 -1 492 -1 c 256
 546 -1 587 20 617 60 c 256
 646 100 662 155 662 228 c 256
 662 291 645 346 610 393 c 256
 576 437 535 459 486 459 c 256
 473 459 461 456 452 449 c 256
 443 442 438 433 438 424 c 256
 438 413 443 404 452 395 c 257
 461 388 473 385 486 385 c 256
 522 385 554 372 579 346 c 256
 605 319 617 287 617 249 c 256
 617 205 607 171 587 148 c 256
 567 123 539 111 502 111 c 256
EndSplineSet
PickledDataWithLists: "(dp1
S'com.adobe.type.autohint'
p2
(S'data'
S'<data>\\n  <hintSetList>\\n    <hintset pointTag=\"hr00\">\\n      <hstem pos=\"-3\" width=\"88\"/>\\n      <hstem pos=\"-1\" width=\"112\"/>\\n      <hstem pos=\"195\" width=\"58\"/>\\n      <hstem pos=\"267\" width=\"46\"/>\\n      <hstem pos=\"385\" width=\"74\"/>\\n      <hstem pos=\"408\" width=\"46\"/>\\n      <vstem pos=\"21\" width=\"98\"/>\\n      <vstem pos=\"41\" width=\"94\"/>\\n      <vstem pos=\"249\" width=\"52\"/>\\n      <vstem pos=\"308\" width=\"115\"/>\\n      <vstem pos=\"377\" width=\"51\"/>\\n      <vstem pos=\"617\" width=\"45\"/>\\n    </hintset>\\n  </hintSetList>\\n  </data>'
Ntp3
s."
EndChar

StartChar: uni0C17
Encoding: 138 3095 138
GlifName: uni0C17_
Width: 564
VWidth: 0
Flags: W
LayerCount: 2
Back
Fore
SplineSet
342 432 m 257
NamedP: "hr00"
 361 447 382 465 406 485 c 258
 435 509 l 257
 465 530 l 258
 506 559 523 588 523 613 c 256
 523 629 517 642 506 653 c 256
 495 663 481 668 465 668 c 256
 452 668 441 666 432 661 c 256
 421 654 410 642 399 623 c 257
 384 590 l 258
 338 488 287 441 254 441 c 256
 235 441 218 459 202 496 c 256
 185 536 165 556 142 556 c 256
 127 556 114 552 105 543 c 257
 92 534 86 519 86 498 c 256
 86 469 107 443 149 420 c 257
 151 418 153 417 155 417 c 257
 130 404 107 387 86 366 c 256
 43 320 21 264 21 198 c 256
 21 139 29 93 41 60 c 256
 53 27 70 7 94 0 c 256
 97 -1 107 0 122 0 c 258
 142 0 l 258
 153 0 163 8 172 23 c 256
 181 37 185 50 185 61 c 256
 185 90 174 118 152 146 c 256
 126 179 113 213 113 250 c 256
 113 290 127 323 156 348 c 256
 187 375 226 388 274 388 c 256
 323 388 363 375 394 348 c 256
 422 323 436 290 436 250 c 256
 436 213 424 179 399 146 c 256
 378 118 367 90 367 61 c 256
 367 50 370 37 378 23 c 256
 386 8 397 0 409 0 c 258
 449 0 l 257
 476 5 495 24 507 58 c 257
 522 91 529 138 529 198 c 256
 529 263 505 318 459 366 c 256
 426 399 388 422 342 432 c 257
NamedP: "hr00"
EndSplineSet
PickledDataWithLists: "(dp1
S'com.adobe.type.autohint'
p2
(S'data'
S'<data>\\n  <hintSetList>\\n    <hintset pointTag=\"hr00\">\\n      <hstem pos=\"21\" width=\"-21\"/>\\n      <hstem pos=\"388\" width=\"53\"/>\\n      <vstem pos=\"21\" width=\"92\"/>\\n      <vstem pos=\"436\" width=\"93\"/>\\n    </hintset>\\n  </hintSetList>\\n  </data>'
Ntp3
s."
EndChar

StartChar: uni0C18
Encoding: 139 3096 139
GlifName: uni0C18_
Width: 887
VWidth: 0
Flags: W
LayerCount: 2
Back
Fore
SplineSet
354 -129 m 256
NamedP: "hr00"
 363 -119 368 -106 368 -91 c 256
 368 -76 363 -59 352 -40 c 256
 343 -24 332 -8 317 7 c 258
 311 13 l 257
 295 -5 283 -20 274 -33 c 256
 260 -54 253 -74 253 -92 c 256
 253 -110 259 -123 270 -132 c 256
 279 -141 293 -145 311 -145 c 256
 329 -145 343 -140 354 -129 c 256
NamedP: "hr00"
559 78 m 257
 564 62 571 48 580 37 c 256
 602 10 634 -3 677 -3 c 256
 740 -3 787 24 817 78 c 256
 840 118 852 168 852 228 c 256
 852 281 835 329 800 373 c 256
 765 418 725 441 679 441 c 256
 663 441 651 438 643 432 c 257
 633 427 628 418 628 407 c 256
 628 394 631 386 638 381 c 256
 646 376 661 373 684 373 c 256
 719 373 749 362 771 336 c 256
 793 311 803 282 803 247 c 256
 803 216 793 187 772 159 c 256
 747 125 715 108 675 108 c 256
 645 108 619 117 598 135 c 256
 591 141 585 148 581 155 c 257
 583 170 584 187 584 206 c 256
 584 270 569 324 540 368 c 256
 509 417 467 441 415 441 c 256
 401 441 391 438 384 431 c 256
 375 424 371 413 371 398 c 256
 371 385 376 375 387 368 c 257
 395 361 406 358 419 358 c 256
 448 358 474 350 496 330 c 256
 522 308 534 280 534 247 c 256
 534 214 530 187 519 165 c 256
 504 134 478 118 445 118 c 256
 400 118 365 150 344 215 c 256
 336 238 332 253 327 262 c 256
 314 283 298 300 278 314 c 256
 253 331 226 340 196 340 c 256
 141 340 98 324 68 292 c 256
 37 259 21 217 21 165 c 256
 21 118 37 79 69 47 c 256
 100 15 138 -1 182 -1 c 256
 213 -1 242 8 268 26 c 256
 290 42 305 59 313 77 c 257
 316 59 327 42 344 27 c 256
 364 9 388 0 415 0 c 256
 480 0 526 23 554 70 c 256
 556 73 558 75 559 78 c 257
318 590 m 258
 264 492 224 441 192 441 c 256
 173 441 155 460 139 498 c 256
 122 539 102 559 79 559 c 256
 64 559 53 556 44 549 c 256
 31 538 24 523 24 502 c 256
 24 473 45 446 86 421 c 256
 124 399 159 388 192 388 c 256
 219 388 269 420 341 484 c 258
 374 513 l 257
 404 535 l 258
 444 564 462 592 462 616 c 256
 462 633 456 646 445 656 c 256
 434 667 420 673 404 673 c 256
 389 673 378 671 369 666 c 256
 359 659 349 646 338 626 c 258
 318 590 l 258
254 267 m 256
 274 250 284 231 284 208 c 256
 284 181 278 158 264 139 c 256
 249 118 223 108 189 108 c 256
 156 108 131 119 113 142 c 256
 98 161 91 183 91 208 c 256
 91 231 100 250 118 267 c 256
 137 284 159 292 186 292 c 256
 213 292 235 283 254 267 c 256
EndSplineSet
PickledDataWithLists: "(dp1
S'com.adobe.type.autohint'
p2
(S'data'
S'<data>\\n  <hintSetList>\\n    <hintset pointTag=\"hr00\">\\n      <hstem pos=\"-1\" width=\"109\"/>\\n      <hstem pos=\"0\" width=\"118\"/>\\n      <hstem pos=\"292\" width=\"48\"/>\\n      <hstem pos=\"358\" width=\"83\"/>\\n      <hstem pos=\"373\" width=\"68\"/>\\n      <hstem pos=\"388\" width=\"53\"/>\\n      <vstem pos=\"21\" width=\"70\"/>\\n      <vstem pos=\"253\" width=\"115\"/>\\n      <vstem pos=\"534\" width=\"50\"/>\\n      <vstem pos=\"803\" width=\"49\"/>\\n    </hintset>\\n  </hintSetList>\\n  </data>'
Ntp3
s."
EndChar

StartChar: uni0C19
Encoding: 140 3097 140
GlifName: uni0C19_
Width: 600
VWidth: 0
Flags: W
LayerCount: 2
Back
Fore
SplineSet
510 360 m 257
NamedP: "hr00"
 392 360 l 257
 404 377 l 258
 420 399 429 414 429 425 c 256
 429 436 425 445 416 454 c 256
 408 463 398 468 387 468 c 256
 374 468 363 465 355 458 c 256
 346 451 342 440 342 425 c 256
 342 414 351 397 368 375 c 257
 374 369 378 364 379 360 c 257
 295 360 l 257
 292 392 280 417 257 434 c 256
 234 451 201 459 160 459 c 256
 127 459 99 451 74 435 c 256
 43 415 28 389 28 356 c 256
 28 339 33 325 44 313 c 256
 55 302 68 296 82 296 c 256
 100 296 113 300 122 307 c 256
 129 312 132 319 132 330 c 256
 132 335 130 342 126 351 c 256
 123 358 121 363 121 366 c 256
 121 381 128 391 143 398 c 256
 154 403 167 405 182 405 c 256
 202 405 218 400 229 391 c 256
 244 380 251 362 251 338 c 256
 251 321 241 304 220 289 c 256
 201 275 181 267 159 263 c 256
 119 255 90 247 71 235 c 256
 38 213 21 178 21 131 c 256
 21 91 37 58 68 33 c 256
 95 11 128 0 166 0 c 256
 202 0 232 8 257 23 c 256
 273 32 287 46 298 65 c 257
 308 48 321 34 337 23 c 256
 360 8 387 0 419 0 c 256
 459 0 493 15 522 46 c 256
 550 76 564 112 564 155 c 256
 564 193 554 224 536 247 c 256
 524 262 511 273 496 280 c 257
 494 280 492 281 489 283 c 257
 483 283 l 258
 480 283 477 282 475 280 c 256
 471 278 469 276 469 273 c 256
 469 272 469 272 469 272 c 257
 469 271 469 270 470 270 c 257
 485 250 492 226 492 198 c 256
 492 176 484 156 468 139 c 256
 451 121 430 112 404 112 c 256
 376 112 355 118 342 131 c 256
 327 145 320 163 320 186 c 256
 320 195 319 202 317 208 c 257
 313 213 309 215 304 215 c 256
 297 215 291 213 288 208 c 257
 287 204 287 199 287 192 c 256
 287 167 276 147 253 131 c 256
 233 116 214 108 195 108 c 256
 162 108 139 111 125 117 c 257
 102 124 91 138 91 159 c 256
 91 186 118 208 173 225 c 256
 240 245 280 273 291 309 c 257
 510 309 l 257
 510 360 l 257
NamedP: "hr00"
EndSplineSet
PickledDataWithLists: "(dp1
S'com.adobe.type.autohint'
p2
(S'data'
S'<data>\\n  <hintSetList>\\n    <hintset pointTag=\"hr00\">\\n      <hstem pos=\"0\" width=\"108\"/>\\n      <hstem pos=\"0\" width=\"112\"/>\\n      <hstem pos=\"272\" width=\"11\"/>\\n      <hstem pos=\"309\" width=\"51\"/>\\n      <hstem pos=\"405\" width=\"54\"/>\\n      <vstem pos=\"21\" width=\"70\"/>\\n      <vstem pos=\"28\" width=\"93\"/>\\n      <vstem pos=\"251\" width=\"44\"/>\\n      <vstem pos=\"287\" width=\"33\"/>\\n      <vstem pos=\"342\" width=\"87\"/>\\n      <vstem pos=\"469\" width=\"41\"/>\\n      <vstem pos=\"492\" width=\"72\"/>\\n    </hintset>\\n  </hintSetList>\\n  </data>'
Ntp3
s."
EndChar

StartChar: uni0C1A
Encoding: 141 3098 141
GlifName: uni0C1A_
Width: 657
VWidth: 0
Flags: W
LayerCount: 2
Back
Fore
SplineSet
505 485 m 257
NamedP: "hr00"
 532 509 l 257
 561 530 l 258
 601 559 620 588 620 613 c 256
 620 629 615 642 604 653 c 256
 593 663 578 668 561 668 c 256
 548 668 538 666 529 661 c 256
 518 654 507 643 497 623 c 258
 480 590 l 258
 428 490 383 441 351 441 c 256
 332 441 315 459 298 496 c 256
 280 536 260 556 239 556 c 256
 224 556 211 552 202 543 c 257
 189 534 183 519 183 498 c 256
 183 469 204 443 246 420 c 256
 281 400 314 388 345 388 c 258
 414 388 l 258
 458 388 495 374 524 347 c 256
 554 320 569 285 569 243 c 256
 569 202 557 169 532 145 c 256
 511 124 485 114 455 114 c 256
 433 114 414 120 399 132 c 256
 384 145 377 160 377 178 c 256
 377 185 375 192 372 198 c 257
 369 201 364 203 359 203 c 256
 354 203 351 201 348 198 c 256
 345 193 344 187 344 178 c 256
 344 158 333 141 311 128 c 256
 293 117 273 112 250 112 c 256
 219 112 194 120 177 135 c 256
 163 146 156 161 156 178 c 256
 156 197 161 211 172 220 c 257
 184 233 204 240 231 240 c 256
 244 240 254 242 261 247 c 256
 271 254 276 263 276 274 c 256
 276 283 273 290 266 296 c 256
 259 303 249 306 236 306 c 258
 64 306 l 258
 49 306 38 303 32 297 c 257
 25 292 21 282 21 267 c 256
 21 254 24 245 31 240 c 256
 38 235 48 233 61 233 c 258
 132 233 l 257
 119 220 110 204 103 186 c 256
 96 170 92 153 92 135 c 256
 92 98 103 66 129 41 c 256
 157 13 195 0 240 0 c 256
 267 0 290 6 310 17 c 256
 326 26 341 40 355 58 c 257
 366 41 381 27 399 17 c 256
 421 5 444 0 468 0 c 256
 507 0 543 16 573 50 c 256
 606 86 621 135 621 195 c 256
 621 260 606 315 577 360 c 256
 546 408 503 434 449 439 c 257
 505 485 l 257
NamedP: "hr00"
EndSplineSet
PickledDataWithLists: "(dp1
S'com.adobe.type.autohint'
p2
(S'data'
S'<data>\\n  <hintSetList>\\n    <hintset pointTag=\"hr00\">\\n      <hstem pos=\"21\" width=\"-21\"/>\\n      <hstem pos=\"0\" width=\"112\"/>\\n      <hstem pos=\"233\" width=\"73\"/>\\n      <hstem pos=\"388\" width=\"53\"/>\\n      <vstem pos=\"92\" width=\"64\"/>\\n      <vstem pos=\"344\" width=\"33\"/>\\n      <vstem pos=\"569\" width=\"52\"/>\\n    </hintset>\\n  </hintSetList>\\n  </data>'
Ntp3
s."
EndChar

StartChar: uni0C1B
Encoding: 142 3099 142
GlifName: uni0C1B_
Width: 657
VWidth: 0
Flags: W
LayerCount: 2
Back
Fore
SplineSet
448 438 m 257
NamedP: "hr00"
 466 451 484 468 505 485 c 258
 534 509 l 257
 564 530 l 258
 604 558 621 588 621 613 c 256
 621 629 615 642 604 653 c 256
 593 663 579 668 564 668 c 256
 550 668 539 666 530 661 c 256
 520 654 509 643 499 623 c 258
 482 590 l 258
 431 490 385 441 352 441 c 256
 333 441 316 459 300 496 c 256
 283 536 263 556 240 556 c 256
 226 556 214 552 203 543 c 256
 191 534 185 519 185 498 c 256
 185 469 206 443 247 420 c 256
 281 401 313 388 344 388 c 258
 414 388 l 258
 458 388 495 374 524 347 c 256
 554 320 569 285 569 243 c 256
 569 202 557 169 532 145 c 256
 511 124 485 114 455 114 c 256
 433 114 414 120 399 132 c 256
 384 145 377 160 377 178 c 256
 377 185 375 192 372 198 c 257
 369 201 364 203 359 203 c 256
 354 203 351 201 348 198 c 256
 345 193 344 187 344 178 c 256
 344 158 333 141 311 128 c 256
 293 117 273 112 250 112 c 256
 219 112 194 120 177 135 c 256
 163 146 156 161 156 178 c 256
 156 197 161 211 172 220 c 257
 184 233 204 240 231 240 c 256
 244 240 254 242 261 247 c 256
 271 254 276 263 276 274 c 256
 276 283 273 290 266 296 c 256
 259 303 249 306 236 306 c 258
 64 306 l 258
 49 306 38 303 32 297 c 257
 25 292 21 282 21 267 c 256
 21 254 24 245 31 240 c 256
 38 235 48 233 61 233 c 258
 132 233 l 257
 119 220 110 204 103 186 c 256
 96 170 92 153 92 135 c 256
 92 98 103 66 129 41 c 256
 157 13 195 0 240 0 c 256
 267 0 290 6 310 17 c 256
 326 26 341 40 355 58 c 257
 366 41 381 27 399 17 c 256
 421 5 444 0 468 0 c 256
 507 0 543 16 573 50 c 256
 606 86 621 135 621 195 c 256
 621 276 604 337 569 378 c 256
 540 413 500 433 448 438 c 257
NamedP: "hr00"
398 -129 m 256
 407 -119 412 -106 412 -91 c 256
 412 -77 407 -61 396 -44 c 256
 388 -30 376 -15 361 0 c 257
 355 13 l 257
 339 -5 326 -20 317 -33 c 256
 304 -54 297 -74 297 -92 c 256
 297 -110 303 -123 314 -132 c 256
 325 -141 338 -145 355 -145 c 256
 373 -145 387 -140 398 -129 c 256
EndSplineSet
PickledDataWithLists: "(dp1
S'com.adobe.type.autohint'
p2
(S'data'
S'<data>\\n  <hintSetList>\\n    <hintset pointTag=\"hr00\">\\n      <hstem pos=\"21\" width=\"-21\"/>\\n      <hstem pos=\"0\" width=\"112\"/>\\n      <hstem pos=\"233\" width=\"73\"/>\\n      <hstem pos=\"388\" width=\"53\"/>\\n      <vstem pos=\"92\" width=\"64\"/>\\n      <vstem pos=\"297\" width=\"115\"/>\\n      <vstem pos=\"344\" width=\"33\"/>\\n      <vstem pos=\"569\" width=\"52\"/>\\n    </hintset>\\n  </hintSetList>\\n  </data>'
Ntp3
s."
EndChar

StartChar: uni0C1C
Encoding: 143 3100 143
GlifName: uni0C1C_
Width: 588
VWidth: 0
Flags: W
LayerCount: 2
Back
Fore
SplineSet
419 4 m 256
NamedP: "hr00"
 458 4 491 17 517 44 c 256
 541 69 553 99 553 132 c 256
 553 165 546 189 532 206 c 256
 521 221 505 229 485 229 c 256
 481 229 478 228 475 225 c 256
 473 224 472 221 472 218 c 256
 472 213 474 208 479 205 c 256
 488 198 492 189 492 176 c 256
 492 156 483 140 466 128 c 256
 449 116 426 110 396 110 c 256
 373 110 354 116 340 128 c 256
 323 141 314 159 314 182 c 256
 314 191 313 198 311 203 c 257
 307 208 303 210 300 210 c 256
 292 210 287 208 284 203 c 256
 282 200 281 195 281 188 c 256
 281 159 266 137 237 122 c 256
 215 111 192 105 169 105 c 256
 146 105 128 107 113 115 c 256
 97 123 89 137 89 156 c 256
 89 182 117 203 172 220 c 256
 231 238 268 262 283 293 c 257
 294 280 310 270 331 263 c 256
 351 256 375 253 404 253 c 256
 434 253 460 262 482 280 c 256
 507 300 519 325 519 356 c 256
 519 384 507 406 482 425 c 256
 458 443 429 454 394 454 c 256
 369 454 351 450 340 442 c 257
 327 437 320 427 320 414 c 256
 320 401 326 392 337 385 c 256
 346 380 356 378 369 378 c 256
 375 378 382 379 389 381 c 257
 399 382 408 383 416 383 c 256
 427 383 437 379 445 370 c 256
 452 363 455 354 455 343 c 256
 455 330 450 319 441 310 c 256
 430 299 415 293 396 293 c 256
 366 293 342 300 324 314 c 256
 311 324 300 339 291 358 c 257
 286 387 273 409 250 425 c 256
 227 441 197 451 159 451 c 256
 126 451 96 441 71 425 c 256
 42 406 28 381 28 348 c 256
 28 333 33 320 44 309 c 256
 55 298 68 292 81 292 c 256
 99 292 112 295 119 300 c 256
 126 306 129 314 129 323 c 256
 129 328 128 335 125 344 c 257
 121 352 119 357 119 360 c 256
 119 374 127 384 142 391 c 256
 151 396 164 398 179 398 c 256
 199 398 215 393 227 383 c 256
 240 372 247 355 247 333 c 256
 247 315 237 298 216 283 c 256
 198 270 178 263 156 259 c 256
 117 253 89 242 71 230 c 256
 38 208 21 175 21 128 c 256
 21 89 36 58 67 33 c 256
 94 11 126 0 163 0 c 256
 200 0 231 8 256 23 c 257
 275 32 289 46 300 65 c 257
 311 44 328 28 351 18 c 256
 372 9 394 4 419 4 c 256
NamedP: "hr00"
EndSplineSet
PickledDataWithLists: "(dp1
S'com.adobe.type.autohint'
p2
(S'data'
S'<data>\\n  <hintSetList>\\n    <hintset pointTag=\"hr00\">\\n      <hstem pos=\"0\" width=\"105\"/>\\n      <hstem pos=\"4\" width=\"106\"/>\\n      <hstem pos=\"253\" width=\"40\"/>\\n      <hstem pos=\"383\" width=\"71\"/>\\n      <hstem pos=\"398\" width=\"53\"/>\\n      <vstem pos=\"21\" width=\"68\"/>\\n      <vstem pos=\"28\" width=\"91\"/>\\n      <vstem pos=\"281\" width=\"33\"/>\\n      <vstem pos=\"455\" width=\"64\"/>\\n      <vstem pos=\"492\" width=\"61\"/>\\n    </hintset>\\n  </hintSetList>\\n  </data>'
Ntp3
s."
EndChar

StartChar: uni0C1D
Encoding: 144 3101 144
GlifName: uni0C1D_
Width: 1069
VWidth: 0
Flags: W
LayerCount: 2
Back
Fore
SplineSet
149 417 m 257
NamedP: "hr00"
 125 406 104 392 86 374 c 256
 43 333 21 280 21 215 c 256
 21 155 43 105 86 65 c 256
 132 22 193 0 268 0 c 256
 339 0 396 22 441 65 c 257
 455 81 l 257
 462 69 470 58 480 47 c 256
 509 16 546 0 590 0 c 256
 653 0 700 27 731 80 c 256
 733 83 735 86 736 91 c 257
 741 69 750 52 762 37 c 256
 785 11 816 -3 857 -3 c 256
 921 -3 967 24 998 78 c 256
 1021 118 1034 168 1034 228 c 256
 1034 281 1017 329 982 373 c 256
 946 418 905 441 860 441 c 256
 845 441 833 438 825 432 c 257
 814 427 809 418 809 407 c 256
 809 394 813 386 820 381 c 256
 828 376 843 373 864 373 c 256
 900 373 931 362 953 336 c 256
 975 311 984 282 984 247 c 256
 984 216 974 187 953 159 c 256
 929 125 897 108 856 108 c 256
 825 108 800 117 779 135 c 256
 770 142 764 150 759 159 c 257
 763 180 765 203 765 228 c 256
 765 281 748 329 714 373 c 256
 678 418 637 441 591 441 c 256
 574 441 563 440 556 437 c 256
 547 432 542 424 542 412 c 256
 542 401 545 394 551 393 c 257
 558 390 573 388 597 388 c 256
 632 388 661 373 684 343 c 256
 705 314 716 282 716 247 c 256
 716 214 708 185 692 159 c 256
 671 125 640 108 601 108 c 256
 560 108 529 120 506 144 c 257
 496 158 l 257
 500 176 502 195 502 215 c 256
 502 278 482 331 441 374 c 256
 412 403 378 422 338 432 c 257
 357 447 379 464 404 485 c 258
 432 509 l 257
 462 530 l 258
 502 558 519 588 519 613 c 256
 519 629 513 642 502 653 c 256
 491 663 478 668 462 668 c 256
 448 668 437 666 428 661 c 256
 417 654 406 643 396 623 c 258
 379 590 l 258
 328 490 283 441 250 441 c 256
 231 441 213 459 197 496 c 256
 179 536 161 556 138 556 c 256
 123 556 111 552 101 543 c 257
 88 534 82 519 82 498 c 256
 82 469 103 443 146 420 c 257
 149 417 l 257
NamedP: "hr00"
778 -118 m 257
 787 -107 792 -95 792 -80 c 256
 792 -65 787 -47 778 -28 c 257
 767 -12 755 3 742 18 c 257
 735 24 l 257
 719 6 707 -10 698 -23 c 256
 684 -43 677 -62 677 -80 c 256
 677 -99 683 -112 695 -121 c 257
 704 -130 718 -134 735 -134 c 256
 753 -134 767 -129 778 -118 c 257
387 353 m 256
 418 329 433 297 433 260 c 256
 433 219 419 184 391 155 c 256
 360 122 319 105 268 105 c 256
 213 105 170 119 139 148 c 256
 114 173 101 204 101 243 c 256
 101 287 115 322 143 348 c 256
 174 375 215 388 268 388 c 256
 316 388 356 377 387 353 c 256
EndSplineSet
PickledDataWithLists: "(dp1
S'com.adobe.type.autohint'
p2
(S'data'
S'<data>\\n  <hintSetList>\\n    <hintset pointTag=\"hr00\">\\n      <hstem pos=\"-3\" width=\"111\"/>\\n      <hstem pos=\"0\" width=\"105\"/>\\n      <hstem pos=\"0\" width=\"108\"/>\\n      <hstem pos=\"373\" width=\"68\"/>\\n      <hstem pos=\"388\" width=\"53\"/>\\n      <vstem pos=\"21\" width=\"80\"/>\\n      <vstem pos=\"433\" width=\"69\"/>\\n      <vstem pos=\"677\" width=\"115\"/>\\n      <vstem pos=\"716\" width=\"49\"/>\\n      <vstem pos=\"984\" width=\"50\"/>\\n    </hintset>\\n  </hintSetList>\\n  </data>'
Ntp3
s."
EndChar

StartChar: uni0C1E
Encoding: 145 3102 145
GlifName: uni0C1E_
Width: 758
VWidth: 0
Flags: W
LayerCount: 2
Back
Fore
SplineSet
419 135 m 257
NamedP: "hr00"
 398 115 370 100 337 92 c 256
 313 86 289 84 266 84 c 256
 241 84 220 88 202 95 c 256
 178 105 166 120 166 139 c 256
 166 162 176 180 197 191 c 256
 214 200 234 205 259 205 c 256
 295 205 328 198 357 186 c 256
 388 173 409 157 419 135 c 257
NamedP: "hr00"
722 327 m 257
 623 327 l 257
 630 338 l 258
 647 365 657 385 657 398 c 256
 657 409 653 418 645 425 c 256
 638 431 628 434 615 434 c 256
 603 434 593 431 586 425 c 256
 577 418 573 409 573 398 c 256
 573 382 584 362 601 336 c 258
 607 327 l 257
 536 327 l 257
 527 366 509 395 482 417 c 256
 455 439 424 451 389 451 c 256
 363 451 340 443 320 428 c 256
 303 415 292 400 288 383 c 257
 277 402 261 418 241 431 c 256
 218 446 194 454 167 454 c 256
 122 454 85 441 57 414 c 256
 33 390 21 363 21 333 c 256
 21 316 25 302 34 292 c 257
 41 280 52 274 65 274 c 256
 89 274 105 281 112 296 c 256
 117 305 119 320 119 340 c 256
 119 357 124 370 135 378 c 257
 147 391 166 398 193 398 c 256
 208 398 223 393 236 383 c 256
 250 372 257 359 257 346 c 256
 257 335 259 327 263 323 c 257
 266 318 272 316 281 316 c 256
 294 316 303 318 307 323 c 257
 312 327 314 335 314 348 c 256
 314 363 321 375 334 385 c 256
 346 394 362 398 381 398 c 256
 410 398 434 386 456 361 c 256
 477 338 487 308 487 272 c 256
 487 237 480 205 465 175 c 257
 439 198 406 218 367 233 c 256
 325 248 282 256 239 256 c 256
 186 256 141 244 103 223 c 256
 60 199 38 168 38 128 c 256
 38 85 57 51 96 26 c 256
 131 4 176 -7 231 -7 c 256
 269 -7 307 0 344 13 c 256
 384 28 418 49 446 75 c 257
 449 63 451 53 451 46 c 256
 451 31 447 12 439 -10 c 256
 434 -23 432 -33 432 -40 c 256
 432 -60 437 -75 446 -85 c 256
 455 -95 468 -100 486 -100 c 256
 510 -100 527 -90 536 -70 c 256
 543 -55 547 -34 547 -7 c 256
 547 38 531 82 500 127 c 257
 531 168 547 212 547 259 c 256
 547 266 546 272 544 276 c 257
 722 276 l 257
 722 327 l 257
EndSplineSet
PickledDataWithLists: "(dp1
S'com.adobe.type.autohint'
p2
(S'data'
S'<data>\\n  <hintSetList>\\n    <hintset pointTag=\"hr00\">\\n      <hstem pos=\"-7\" width=\"91\"/>\\n      <hstem pos=\"205\" width=\"51\"/>\\n      <hstem pos=\"276\" width=\"51\"/>\\n      <hstem pos=\"398\" width=\"53\"/>\\n      <hstem pos=\"398\" width=\"56\"/>\\n      <vstem pos=\"21\" width=\"98\"/>\\n      <vstem pos=\"38\" width=\"128\"/>\\n      <vstem pos=\"257\" width=\"57\"/>\\n      <vstem pos=\"451\" width=\"96\"/>\\n      <vstem pos=\"487\" width=\"60\"/>\\n      <vstem pos=\"573\" width=\"84\"/>\\n    </hintset>\\n  </hintSetList>\\n  </data>'
Ntp3
s."
EndChar

StartChar: uni0C1F
Encoding: 146 3103 146
GlifName: uni0C1F_
Width: 625
VWidth: 0
Flags: W
LayerCount: 2
Back
Fore
SplineSet
241 565 m 256
NamedP: "hr00"
 241 580 236 592 227 603 c 256
 217 614 203 619 185 619 c 256
 168 619 154 615 143 606 c 256
 132 597 126 584 126 566 c 256
 126 548 133 529 146 508 c 256
 155 495 168 479 185 461 c 257
 190 468 l 257
 205 482 217 497 226 513 c 256
 236 533 241 550 241 565 c 256
NamedP: "hr00"
590 230 m 256
 590 281 574 326 544 368 c 256
 510 416 470 441 419 441 c 256
 405 441 394 438 387 431 c 256
 378 424 374 413 374 398 c 256
 374 385 379 375 389 368 c 256
 399 361 410 358 422 358 c 256
 451 358 477 349 500 331 c 256
 526 310 539 283 539 250 c 256
 539 204 526 169 499 145 c 256
 476 125 449 115 416 115 c 256
 391 115 369 121 352 132 c 256
 333 143 324 158 324 178 c 256
 324 185 323 192 320 198 c 257
 316 201 312 203 308 203 c 256
 303 203 300 201 297 198 c 256
 294 193 293 187 293 178 c 256
 293 160 282 144 261 131 c 256
 244 120 226 115 206 115 c 256
 156 115 122 131 101 161 c 256
 85 185 75 218 75 263 c 256
 75 281 80 305 91 334 c 257
 96 304 110 282 133 267 c 257
 150 258 168 253 186 253 c 256
 216 253 242 262 264 280 c 256
 288 300 300 325 300 356 c 256
 300 386 288 411 264 430 c 256
 243 448 220 457 193 457 c 256
 136 457 93 432 61 383 c 256
 35 343 21 298 21 247 c 256
 21 168 35 106 64 63 c 256
 93 20 135 -1 190 -1 c 256
 217 -1 240 5 259 17 c 256
 274 26 289 39 304 58 c 257
 313 41 329 28 350 17 c 256
 373 6 396 0 419 0 c 256
 483 0 530 27 559 82 c 256
 580 121 590 171 590 230 c 256
125 366 m 256
 125 379 130 389 140 398 c 256
 151 407 163 412 177 412 c 256
 194 412 207 408 216 401 c 256
 227 392 233 381 233 366 c 256
 233 351 227 340 216 333 c 257
 207 325 194 321 177 321 c 256
 163 321 151 325 140 334 c 256
 130 343 125 354 125 366 c 256
EndSplineSet
PickledDataWithLists: "(dp1
S'com.adobe.type.autohint'
p2
(S'data'
S'<data>\\n  <hintSetList>\\n    <hintset pointTag=\"hr00\">\\n      <hstem pos=\"0\" width=\"115\"/>\\n      <hstem pos=\"253\" width=\"68\"/>\\n      <hstem pos=\"358\" width=\"83\"/>\\n      <hstem pos=\"412\" width=\"45\"/>\\n      <vstem pos=\"21\" width=\"54\"/>\\n      <vstem pos=\"91\" width=\"34\"/>\\n      <vstem pos=\"126\" width=\"115\"/>\\n      <vstem pos=\"233\" width=\"67\"/>\\n      <vstem pos=\"293\" width=\"31\"/>\\n      <vstem pos=\"539\" width=\"51\"/>\\n    </hintset>\\n  </hintSetList>\\n  </data>'
Ntp3
s."
EndChar

StartChar: uni0C20
Encoding: 147 3104 147
GlifName: uni0C20_
Width: 554
VWidth: 0
Flags: W
LayerCount: 2
Back
Fore
SplineSet
338 432 m 257
NamedP: "hr00"
 357 447 379 464 404 485 c 258
 432 509 l 257
 462 530 l 258
 502 558 519 588 519 613 c 256
 519 629 513 642 502 653 c 256
 491 663 478 668 462 668 c 256
 448 668 437 666 428 661 c 256
 417 654 406 643 396 623 c 258
 379 590 l 258
 328 490 283 441 250 441 c 256
 231 441 213 459 197 496 c 256
 179 536 161 556 138 556 c 256
 123 556 111 552 101 543 c 257
 88 534 82 519 82 498 c 256
 82 469 103 443 146 420 c 257
 149 417 l 257
 125 406 104 392 86 374 c 256
 43 333 21 280 21 215 c 256
 21 155 43 105 86 65 c 256
 132 22 193 0 268 0 c 256
 339 0 396 22 441 65 c 256
 482 106 502 156 502 215 c 256
 502 278 482 331 441 374 c 256
 412 403 378 422 338 432 c 257
NamedP: "hr00"
381 353 m 256
 413 328 429 297 429 260 c 256
 429 219 415 184 387 155 c 256
 356 122 314 105 263 105 c 256
 202 105 158 120 131 151 c 256
 109 176 98 210 98 255 c 256
 98 294 111 326 140 350 c 256
 170 376 212 388 263 388 c 256
 310 388 350 376 381 353 c 256
300 238 m 257
 309 248 314 259 314 270 c 256
 314 283 309 294 300 303 c 256
 289 312 278 316 266 316 c 256
 253 316 243 312 234 303 c 256
 225 294 220 283 220 270 c 256
 220 259 225 248 234 238 c 256
 243 228 253 223 266 223 c 256
 278 223 289 228 300 238 c 257
EndSplineSet
PickledDataWithLists: "(dp1
S'com.adobe.type.autohint'
p2
(S'data'
S'<data>\\n  <hintSetList>\\n    <hintset pointTag=\"hr00\">\\n      <hstem pos=\"0\" width=\"105\"/>\\n      <hstem pos=\"223\" width=\"93\"/>\\n      <hstem pos=\"388\" width=\"53\"/>\\n      <vstem pos=\"21\" width=\"77\"/>\\n      <vstem pos=\"220\" width=\"94\"/>\\n      <vstem pos=\"429\" width=\"73\"/>\\n    </hintset>\\n  </hintSetList>\\n  </data>'
Ntp3
s."
EndChar

StartChar: uni0C21
Encoding: 148 3105 148
GlifName: uni0C21_
Width: 595
VWidth: 0
Flags: W
LayerCount: 2
Back
Fore
SplineSet
357 432 m 257
NamedP: "hr00"
 376 447 397 464 421 485 c 258
 449 509 l 257
 479 530 l 258
 520 559 537 588 537 613 c 256
 537 629 532 642 522 653 c 257
 511 663 496 668 479 668 c 256
 466 668 455 666 446 661 c 256
 435 654 425 642 415 623 c 258
 398 590 l 258
 346 490 301 441 268 441 c 256
 249 441 232 459 216 496 c 256
 198 536 178 556 156 556 c 256
 141 556 128 552 119 543 c 257
 107 534 101 519 101 498 c 256
 101 469 122 443 163 420 c 257
 164 420 165 419 165 418 c 257
 139 407 116 392 95 371 c 256
 46 325 21 263 21 186 c 256
 21 123 39 75 76 40 c 256
 105 13 137 0 172 0 c 256
 201 0 225 6 244 16 c 256
 265 27 282 43 295 68 c 257
 307 47 321 29 337 18 c 256
 356 5 378 0 404 0 c 256
 457 0 497 18 524 54 c 256
 548 85 560 123 560 168 c 256
 560 203 551 233 530 259 c 256
 510 284 482 297 449 297 c 256
 420 297 398 291 381 280 c 256
 362 267 352 249 352 226 c 256
 352 207 359 191 374 178 c 256
 391 163 412 155 438 155 c 256
 455 155 471 159 486 168 c 256
 504 179 514 195 517 215 c 257
 518 204 519 196 519 191 c 256
 519 162 508 141 485 127 c 256
 465 114 439 108 406 108 c 256
 383 108 362 115 344 128 c 256
 324 141 314 158 314 178 c 256
 314 185 313 192 311 198 c 257
 307 201 303 203 300 203 c 256
 294 203 290 201 288 198 c 256
 285 193 284 187 284 178 c 256
 284 160 273 144 251 131 c 256
 234 120 216 115 196 115 c 256
 157 115 126 125 106 148 c 256
 87 169 79 198 79 233 c 256
 79 284 102 324 149 353 c 256
 186 376 227 388 274 388 c 256
 326 388 366 373 394 344 c 257
 432 329 447 321 439 321 c 256
 452 321 462 324 468 329 c 256
 475 334 478 341 478 351 c 256
 478 377 455 399 408 417 c 256
 391 424 374 429 357 432 c 257
NamedP: "hr00"
478 253 m 256
 487 246 492 239 492 230 c 256
 492 221 488 213 479 208 c 257
 472 201 462 198 449 198 c 256
 440 198 432 201 426 208 c 257
 419 213 415 221 415 230 c 256
 415 240 419 248 428 253 c 257
 435 259 443 262 452 262 c 256
 461 262 470 259 478 253 c 256
EndSplineSet
PickledDataWithLists: "(dp1
S'com.adobe.type.autohint'
p2
(S'data'
S'<data>\\n  <hintSetList>\\n    <hintset pointTag=\"hr00\">\\n      <hstem pos=\"0\" width=\"108\"/>\\n      <hstem pos=\"0\" width=\"115\"/>\\n      <hstem pos=\"155\" width=\"43\"/>\\n      <hstem pos=\"262\" width=\"35\"/>\\n      <hstem pos=\"388\" width=\"53\"/>\\n      <vstem pos=\"21\" width=\"58\"/>\\n      <vstem pos=\"284\" width=\"30\"/>\\n      <vstem pos=\"352\" width=\"63\"/>\\n      <vstem pos=\"492\" width=\"25\"/>\\n      <vstem pos=\"519\" width=\"41\"/>\\n    </hintset>\\n  </hintSetList>\\n  </data>'
Ntp3
s."
EndChar

StartChar: uni0C22
Encoding: 149 3106 149
GlifName: uni0C22_
Width: 595
VWidth: 0
Flags: W
LayerCount: 2
Back
Fore
SplineSet
357 432 m 257
NamedP: "hr00"
 376 447 397 464 421 485 c 258
 449 509 l 257
 479 530 l 258
 520 559 537 588 537 613 c 256
 537 629 532 642 522 653 c 257
 511 663 496 668 479 668 c 256
 466 668 455 666 446 661 c 256
 435 654 425 642 415 623 c 258
 398 590 l 258
 346 490 301 441 268 441 c 256
 249 441 232 459 216 496 c 256
 198 536 178 556 156 556 c 256
 141 556 128 552 119 543 c 257
 107 534 101 519 101 498 c 256
 101 469 122 443 163 420 c 257
 164 420 165 419 165 418 c 257
 139 407 116 392 95 371 c 256
 46 325 21 263 21 186 c 256
 21 123 39 75 76 40 c 256
 105 13 137 0 172 0 c 256
 201 0 225 6 244 16 c 256
 265 27 282 43 295 68 c 257
 307 47 321 29 337 18 c 256
 356 5 378 0 404 0 c 256
 457 0 497 18 524 54 c 256
 548 85 560 123 560 168 c 256
 560 203 551 233 530 259 c 256
 510 284 482 297 449 297 c 256
 420 297 398 291 381 280 c 256
 362 267 352 249 352 226 c 256
 352 207 359 191 374 178 c 256
 391 163 412 155 438 155 c 256
 455 155 471 159 486 168 c 256
 504 179 514 195 517 215 c 257
 518 204 519 196 519 191 c 256
 519 162 508 141 485 127 c 256
 465 114 439 108 406 108 c 256
 383 108 362 115 344 128 c 256
 324 141 314 158 314 178 c 256
 314 185 313 192 311 198 c 257
 307 201 303 203 300 203 c 256
 294 203 290 201 288 198 c 256
 285 193 284 187 284 178 c 256
 284 160 273 144 251 131 c 256
 234 120 216 115 196 115 c 256
 157 115 126 125 106 148 c 256
 87 169 79 198 79 233 c 256
 79 284 102 324 149 353 c 256
 186 376 227 388 274 388 c 256
 326 388 366 373 394 344 c 257
 432 329 447 321 439 321 c 256
 452 321 462 324 468 329 c 256
 475 334 478 341 478 351 c 256
 478 377 455 399 408 417 c 256
 391 424 374 429 357 432 c 257
NamedP: "hr00"
338 -129 m 256
 347 -119 352 -106 352 -91 c 256
 352 -77 347 -61 337 -44 c 256
 328 -30 316 -15 301 0 c 257
 295 13 l 257
 279 -5 268 -20 259 -33 c 256
 245 -54 237 -74 237 -92 c 256
 237 -110 243 -123 256 -132 c 257
 265 -141 278 -145 295 -145 c 256
 314 -145 328 -140 338 -129 c 256
478 253 m 256
 487 246 492 239 492 230 c 256
 492 221 488 213 479 208 c 257
 472 201 462 198 449 198 c 256
 440 198 432 201 426 208 c 257
 419 213 415 221 415 230 c 256
 415 240 419 248 428 253 c 257
 435 259 443 262 452 262 c 256
 461 262 470 259 478 253 c 256
EndSplineSet
PickledDataWithLists: "(dp1
S'com.adobe.type.autohint'
p2
(S'data'
S'<data>\\n  <hintSetList>\\n    <hintset pointTag=\"hr00\">\\n      <hstem pos=\"0\" width=\"108\"/>\\n      <hstem pos=\"0\" width=\"115\"/>\\n      <hstem pos=\"155\" width=\"43\"/>\\n      <hstem pos=\"262\" width=\"35\"/>\\n      <hstem pos=\"388\" width=\"53\"/>\\n      <vstem pos=\"21\" width=\"58\"/>\\n      <vstem pos=\"237\" width=\"115\"/>\\n      <vstem pos=\"284\" width=\"30\"/>\\n      <vstem pos=\"352\" width=\"63\"/>\\n      <vstem pos=\"492\" width=\"25\"/>\\n      <vstem pos=\"519\" width=\"41\"/>\\n    </hintset>\\n  </hintSetList>\\n  </data>'
Ntp3
s."
EndChar

StartChar: uni0C23
Encoding: 150 3107 150
GlifName: uni0C23_
Width: 634
VWidth: 0
Flags: W
LayerCount: 2
Back
Fore
SplineSet
598 218 m 256
NamedP: "hr00"
 598 279 580 329 547 371 c 256
 510 417 463 441 404 441 c 256
 373 441 344 433 318 418 c 256
 295 405 280 389 274 371 c 257
 269 390 258 407 241 420 c 256
 223 434 201 441 176 441 c 256
 133 441 99 429 74 408 c 256
 49 387 37 361 37 326 c 256
 37 308 41 292 48 279 c 256
 57 263 69 252 86 245 c 257
 63 235 48 219 37 198 c 256
 27 178 21 153 21 122 c 256
 21 88 32 60 54 37 c 256
 79 12 113 0 155 0 c 256
 193 0 223 14 244 41 c 256
 262 64 271 89 271 117 c 256
 271 135 269 148 264 156 c 257
 261 167 253 172 241 172 c 256
 236 172 232 171 229 168 c 256
 226 165 224 161 224 155 c 256
 224 137 218 122 207 111 c 256
 196 100 181 95 163 95 c 256
 140 95 123 98 112 105 c 256
 93 118 84 139 84 168 c 256
 84 191 94 208 113 218 c 257
 126 223 142 226 159 226 c 258
 173 226 l 258
 179 226 183 228 186 233 c 256
 189 236 190 240 190 245 c 256
 190 248 189 252 186 257 c 256
 183 261 179 263 173 263 c 258
 159 263 l 258
 146 263 135 270 125 283 c 257
 114 294 109 306 109 319 c 256
 109 336 115 351 126 366 c 257
 141 381 159 388 182 388 c 256
 209 388 230 376 244 353 c 256
 254 336 259 319 259 304 c 258
 259 296 l 258
 259 293 260 290 261 287 c 256
 263 284 266 283 271 283 c 256
 277 283 281 284 284 287 c 256
 287 289 288 292 288 296 c 258
 288 307 l 258
 288 324 298 341 317 358 c 256
 340 378 365 388 394 388 c 256
 431 388 462 375 489 350 c 256
 522 319 539 277 539 223 c 257
 528 238 513 250 496 257 c 257
 480 266 462 270 443 270 c 256
 404 270 374 256 351 228 c 256
 331 203 321 172 321 134 c 256
 321 98 331 68 350 43 c 256
 373 14 406 0 449 0 c 256
 493 0 529 18 556 54 c 256
 584 93 598 147 598 218 c 256
NamedP: "hr00"
510 169 m 256
 510 149 504 133 492 122 c 256
 481 113 467 108 451 108 c 256
 431 108 415 114 404 125 c 256
 391 137 385 152 385 171 c 256
 385 187 390 200 399 210 c 256
 410 222 427 228 449 228 c 256
 467 228 482 221 495 208 c 256
 505 197 510 184 510 169 c 256
EndSplineSet
PickledDataWithLists: "(dp1
S'com.adobe.type.autohint'
p2
(S'data'
S'<data>\\n  <hintSetList>\\n    <hintset pointTag=\"hr00\">\\n      <hstem pos=\"0\" width=\"95\"/>\\n      <hstem pos=\"0\" width=\"108\"/>\\n      <hstem pos=\"226\" width=\"37\"/>\\n      <hstem pos=\"228\" width=\"42\"/>\\n      <hstem pos=\"388\" width=\"53\"/>\\n      <vstem pos=\"21\" width=\"63\"/>\\n      <vstem pos=\"37\" width=\"72\"/>\\n      <vstem pos=\"224\" width=\"47\"/>\\n      <vstem pos=\"259\" width=\"29\"/>\\n      <vstem pos=\"321\" width=\"64\"/>\\n      <vstem pos=\"539\" width=\"59\"/>\\n    </hintset>\\n  </hintSetList>\\n  </data>'
Ntp3
s."
EndChar

StartChar: uni0C24
Encoding: 151 3108 151
GlifName: uni0C24_
Width: 617
VWidth: 0
Flags: W
LayerCount: 2
Back
Fore
SplineSet
492 503 m 257
NamedP: "hr00"
 522 526 l 258
 560 555 579 582 579 607 c 256
 579 623 573 636 561 647 c 256
 550 658 537 664 522 664 c 256
 507 664 496 661 487 656 c 256
 477 649 467 636 456 617 c 258
 442 592 l 258
 386 492 343 441 310 441 c 256
 291 441 273 459 257 494 c 256
 240 531 220 550 197 550 c 256
 183 550 171 546 160 539 c 257
 148 528 142 513 142 494 c 256
 142 464 163 438 204 417 c 256
 237 400 269 388 300 388 c 258
 372 388 l 258
 389 388 406 386 421 383 c 257
 438 377 450 369 458 360 c 257
 452 362 442 363 429 363 c 256
 396 363 370 355 351 340 c 256
 332 325 323 304 323 277 c 256
 323 254 333 236 354 223 c 256
 371 212 392 206 419 206 c 256
 444 206 467 212 489 223 c 256
 509 234 523 249 530 267 c 257
 533 256 534 245 534 235 c 256
 534 196 516 165 479 142 c 256
 437 117 375 105 293 105 c 256
 215 105 158 116 121 138 c 256
 88 158 71 186 71 223 c 258
 71 242 l 257
 80 225 93 211 111 202 c 256
 129 193 148 189 169 189 c 256
 198 189 222 196 241 210 c 256
 263 227 274 250 274 277 c 256
 274 304 263 325 240 340 c 256
 221 353 200 360 176 360 c 256
 120 360 79 341 52 303 c 256
 31 274 21 238 21 193 c 256
 21 126 50 75 109 41 c 256
 156 14 215 0 284 0 c 256
 385 0 461 19 512 58 c 256
 558 94 581 145 581 210 c 256
 581 239 576 265 566 289 c 256
 555 314 541 331 524 340 c 257
 516 369 500 392 475 411 c 256
 453 429 430 439 406 441 c 257
 492 503 l 257
NamedP: "hr00"
195 310 m 256
 204 303 209 293 209 280 c 256
 209 268 204 258 195 249 c 256
 185 240 173 236 159 236 c 256
 146 236 134 240 123 247 c 256
 111 256 105 267 105 280 c 256
 105 293 111 303 122 310 c 256
 131 317 143 320 156 320 c 256
 172 320 185 317 195 310 c 256
472 317 m 257
 481 312 485 303 485 292 c 256
 485 280 481 270 472 263 c 257
 463 254 450 249 432 249 c 256
 421 249 412 252 404 259 c 256
 394 266 389 276 389 287 c 256
 389 300 395 309 406 316 c 256
 415 323 427 326 442 326 c 256
 455 326 465 323 472 317 c 257
EndSplineSet
PickledDataWithLists: "(dp1
S'com.adobe.type.autohint'
p2
(S'data'
S'<data>\\n  <hintSetList>\\n    <hintset pointTag=\"hr00\">\\n      <hstem pos=\"0\" width=\"105\"/>\\n      <hstem pos=\"189\" width=\"47\"/>\\n      <hstem pos=\"206\" width=\"43\"/>\\n      <hstem pos=\"320\" width=\"40\"/>\\n      <hstem pos=\"326\" width=\"37\"/>\\n      <hstem pos=\"388\" width=\"53\"/>\\n      <vstem pos=\"21\" width=\"50\"/>\\n      <vstem pos=\"209\" width=\"65\"/>\\n      <vstem pos=\"323\" width=\"66\"/>\\n      <vstem pos=\"534\" width=\"47\"/>\\n    </hintset>\\n  </hintSetList>\\n  </data>'
Ntp3
s."
EndChar

StartChar: uni0C25
Encoding: 152 3109 152
GlifName: uni0C25_
Width: 593
VWidth: 0
Flags: W
LayerCount: 2
Back
Fore
SplineSet
368 430 m 257
NamedP: "hr00"
 388 445 410 464 436 485 c 258
 465 509 l 257
 495 530 l 258
 536 559 553 588 553 613 c 256
 553 629 547 642 536 653 c 256
 525 663 511 668 495 668 c 256
 482 668 471 666 462 661 c 256
 451 654 440 642 429 623 c 257
 414 590 l 258
 368 488 317 441 284 441 c 256
 265 441 248 459 231 496 c 256
 213 536 193 556 172 556 c 256
 157 556 144 552 135 543 c 257
 122 534 116 519 116 498 c 256
 116 469 136 443 177 420 c 257
 148 408 121 390 96 366 c 256
 46 319 21 262 21 195 c 256
 21 143 34 99 61 63 c 256
 91 21 133 0 186 0 c 256
 208 0 228 5 247 16 c 256
 265 26 279 39 288 55 c 257
 299 39 313 26 331 16 c 256
 350 5 370 0 392 0 c 256
 445 0 487 21 517 63 c 256
 544 99 557 143 557 195 c 256
 557 263 532 320 483 366 c 256
 451 397 413 418 368 430 c 257
NamedP: "hr00"
331 -129 m 257
 342 -119 347 -106 347 -91 c 256
 347 -77 342 -61 331 -44 c 256
 322 -30 310 -15 295 0 c 257
 288 13 l 257
 272 -5 260 -20 251 -33 c 256
 238 -54 231 -74 231 -92 c 256
 231 -110 236 -123 247 -132 c 256
 258 -141 271 -145 288 -145 c 256
 307 -145 322 -140 331 -129 c 257
304 189 m 257
 300 193 295 195 288 195 c 256
 283 195 278 193 274 189 c 257
 271 184 270 178 270 171 c 256
 270 153 261 138 244 125 c 257
 227 115 208 110 186 110 c 256
 154 110 130 119 113 138 c 256
 95 158 86 186 86 223 c 256
 86 270 108 310 152 343 c 256
 192 373 237 388 288 388 c 256
 341 388 387 373 426 343 c 256
 470 310 492 270 492 223 c 256
 492 186 483 158 465 138 c 256
 448 119 423 110 392 110 c 256
 370 110 351 115 334 125 c 257
 317 138 308 153 308 171 c 256
 308 178 307 184 304 189 c 257
314 249 m 256
 325 258 331 270 331 283 c 256
 331 297 326 309 317 319 c 257
 306 328 294 333 281 333 c 256
 268 333 256 328 247 319 c 256
 236 309 231 297 231 283 c 256
 231 270 236 258 247 249 c 256
 256 240 268 235 281 235 c 256
 294 235 305 240 314 249 c 256
EndSplineSet
PickledDataWithLists: "(dp1
S'com.adobe.type.autohint'
p2
(S'data'
S'<data>\\n  <hintSetList>\\n    <hintset pointTag=\"hr00\">\\n      <hstem pos=\"0\" width=\"110\"/>\\n      <hstem pos=\"235\" width=\"98\"/>\\n      <hstem pos=\"388\" width=\"53\"/>\\n      <vstem pos=\"21\" width=\"65\"/>\\n      <vstem pos=\"231\" width=\"116\"/>\\n      <vstem pos=\"231\" width=\"100\"/>\\n      <vstem pos=\"270\" width=\"38\"/>\\n      <vstem pos=\"492\" width=\"65\"/>\\n    </hintset>\\n  </hintSetList>\\n  </data>'
Ntp3
s."
EndChar

StartChar: uni0C26
Encoding: 153 3110 153
GlifName: uni0C26_
Width: 593
VWidth: 0
Flags: W
LayerCount: 2
Back
Fore
SplineSet
368 430 m 257
NamedP: "hr00"
 388 445 410 464 436 485 c 258
 465 509 l 257
 495 530 l 258
 536 559 553 588 553 613 c 256
 553 629 547 642 536 653 c 256
 525 663 511 668 495 668 c 256
 482 668 471 666 462 661 c 256
 451 654 440 642 429 623 c 257
 414 590 l 258
 368 488 317 441 284 441 c 256
 265 441 248 459 231 496 c 256
 213 536 193 556 172 556 c 256
 157 556 144 552 135 543 c 257
 122 534 116 519 116 498 c 256
 116 469 136 443 177 420 c 257
 148 408 121 390 96 366 c 256
 46 319 21 262 21 195 c 256
 21 143 34 99 61 63 c 256
 91 21 133 0 186 0 c 256
 208 0 228 5 247 16 c 256
 265 26 279 39 288 55 c 257
 299 39 313 26 331 16 c 256
 350 5 370 0 392 0 c 256
 445 0 487 21 517 63 c 256
 544 99 557 143 557 195 c 256
 557 263 532 320 483 366 c 256
 451 397 413 418 368 430 c 257
NamedP: "hr00"
304 189 m 257
 300 193 295 195 288 195 c 256
 283 195 278 193 274 189 c 257
 271 184 270 178 270 171 c 256
 270 153 261 138 244 125 c 257
 227 115 208 110 186 110 c 256
 154 110 130 119 113 138 c 256
 95 158 86 186 86 223 c 256
 86 270 108 310 152 343 c 256
 192 373 237 388 288 388 c 256
 341 388 387 373 426 343 c 256
 470 310 492 270 492 223 c 256
 492 186 483 158 465 138 c 256
 448 119 423 110 392 110 c 256
 370 110 351 115 334 125 c 257
 317 138 308 153 308 171 c 256
 308 178 307 184 304 189 c 257
EndSplineSet
PickledDataWithLists: "(dp1
S'com.adobe.type.autohint'
p2
(S'data'
S'<data>\\n  <hintSetList>\\n    <hintset pointTag=\"hr00\">\\n      <hstem pos=\"0\" width=\"110\"/>\\n      <hstem pos=\"388\" width=\"53\"/>\\n      <vstem3 stem3List=\"21,65,270,38,492,65\"/>\\n    </hintset>\\n  </hintSetList>\\n  </data>'
Ntp3
s."
EndChar

StartChar: uni0C27
Encoding: 154 3111 154
GlifName: uni0C27_
Width: 593
VWidth: 0
Flags: W
LayerCount: 2
Back
Fore
SplineSet
368 430 m 257
NamedP: "hr00"
 388 445 410 464 436 485 c 258
 465 509 l 257
 495 530 l 258
 536 559 553 588 553 613 c 256
 553 629 547 642 536 653 c 256
 525 663 511 668 495 668 c 256
 482 668 471 666 462 661 c 256
 451 654 440 642 429 623 c 257
 414 590 l 258
 368 488 317 441 284 441 c 256
 265 441 248 459 231 496 c 256
 213 536 193 556 172 556 c 256
 157 556 144 552 135 543 c 257
 122 534 116 519 116 498 c 256
 116 469 136 443 177 420 c 257
 148 408 121 390 96 366 c 256
 46 319 21 262 21 195 c 256
 21 143 34 99 61 63 c 256
 91 21 133 0 186 0 c 256
 208 0 228 5 247 16 c 256
 265 26 279 39 288 55 c 257
 299 39 313 26 331 16 c 256
 350 5 370 0 392 0 c 256
 445 0 487 21 517 63 c 256
 544 99 557 143 557 195 c 256
 557 263 532 320 483 366 c 256
 451 397 413 418 368 430 c 257
NamedP: "hr00"
331 -129 m 257
 342 -119 347 -106 347 -91 c 256
 347 -77 342 -61 331 -44 c 256
 322 -30 310 -15 295 0 c 257
 288 13 l 257
 272 -5 260 -20 251 -33 c 256
 238 -54 231 -74 231 -92 c 256
 231 -110 236 -123 247 -132 c 256
 258 -141 271 -145 288 -145 c 256
 307 -145 322 -140 331 -129 c 257
304 189 m 257
 300 193 295 195 288 195 c 256
 283 195 278 193 274 189 c 257
 271 184 270 178 270 171 c 256
 270 153 261 138 244 125 c 257
 227 115 208 110 186 110 c 256
 154 110 130 119 113 138 c 256
 95 158 86 186 86 223 c 256
 86 270 108 310 152 343 c 256
 192 373 237 388 288 388 c 256
 341 388 387 373 426 343 c 256
 470 310 492 270 492 223 c 256
 492 186 483 158 465 138 c 256
 448 119 423 110 392 110 c 256
 370 110 351 115 334 125 c 257
 317 138 308 153 308 171 c 256
 308 178 307 184 304 189 c 257
EndSplineSet
PickledDataWithLists: "(dp1
S'com.adobe.type.autohint'
p2
(S'data'
S'<data>\\n  <hintSetList>\\n    <hintset pointTag=\"hr00\">\\n      <hstem pos=\"0\" width=\"110\"/>\\n      <hstem pos=\"388\" width=\"53\"/>\\n      <vstem pos=\"21\" width=\"65\"/>\\n      <vstem pos=\"231\" width=\"116\"/>\\n      <vstem pos=\"270\" width=\"38\"/>\\n      <vstem pos=\"492\" width=\"65\"/>\\n    </hintset>\\n  </hintSetList>\\n  </data>'
Ntp3
s."
EndChar

StartChar: uni0C28
Encoding: 155 3112 155
GlifName: uni0C28_
Width: 622
VWidth: 0
Flags: W
LayerCount: 2
Back
Fore
SplineSet
297 441 m 257
NamedP: "hr00"
 312 452 335 469 364 494 c 258
 384 511 l 257
 414 532 l 258
 454 560 472 589 472 613 c 256
 472 630 466 644 455 654 c 256
 444 665 430 671 414 671 c 256
 399 671 388 668 379 663 c 256
 369 656 358 644 348 624 c 258
 331 590 l 258
 281 489 234 441 202 441 c 256
 183 441 165 459 149 496 c 256
 132 536 112 556 89 556 c 256
 75 556 63 553 54 546 c 256
 41 535 34 520 34 501 c 256
 34 472 55 445 96 421 c 256
 132 399 166 388 199 388 c 258
 392 388 l 258
 433 388 465 375 492 348 c 256
 519 321 532 289 532 250 c 256
 532 199 520 162 497 138 c 256
 480 119 456 110 423 110 c 256
 390 110 367 120 354 141 c 256
 345 154 340 175 338 203 c 256
 336 236 324 265 301 289 c 256
 274 316 240 329 199 329 c 256
 142 329 97 311 65 276 c 256
 36 243 21 200 21 148 c 256
 21 87 36 46 65 23 c 256
 83 8 108 0 140 0 c 256
 151 0 160 6 169 18 c 256
 176 28 180 38 180 47 c 256
 180 69 169 88 149 108 c 256
 124 131 113 159 113 188 c 256
 113 216 119 239 135 256 c 256
 150 272 172 280 199 280 c 256
 217 280 234 274 249 263 c 256
 266 252 274 236 274 216 c 256
 274 196 272 176 268 156 c 256
 265 142 263 131 263 122 c 256
 263 88 277 59 304 36 c 256
 331 12 365 0 406 0 c 256
 463 0 508 19 540 58 c 256
 571 96 587 146 587 208 c 256
 587 280 567 338 526 381 c 256
 489 421 443 441 389 441 c 258
 297 441 l 257
NamedP: "hr00"
EndSplineSet
PickledDataWithLists: "(dp1
S'com.adobe.type.autohint'
p2
(S'data'
S'<data>\\n  <hintSetList>\\n    <hintset pointTag=\"hr00\">\\n      <hstem pos=\"0\" width=\"110\"/>\\n      <hstem pos=\"280\" width=\"49\"/>\\n      <hstem pos=\"388\" width=\"53\"/>\\n      <vstem pos=\"21\" width=\"92\"/>\\n      <vstem pos=\"274\" width=\"64\"/>\\n      <vstem pos=\"532\" width=\"55\"/>\\n    </hintset>\\n  </hintSetList>\\n  </data>'
Ntp3
s."
EndChar

StartChar: uni0C2A
Encoding: 156 3114 156
GlifName: uni0C2A_
Width: 620
VWidth: 0
Flags: W
LayerCount: 2
Back
Fore
SplineSet
344 27 m 256
NamedP: "hr00"
 364 9 388 0 415 0 c 256
 480 0 526 23 554 70 c 256
 574 104 584 149 584 206 c 256
 584 270 569 324 540 368 c 256
 509 417 467 441 415 441 c 256
 401 441 391 438 384 431 c 256
 375 424 371 413 371 398 c 256
 371 385 376 375 387 368 c 257
 395 361 406 358 419 358 c 256
 448 358 474 350 496 330 c 256
 522 308 534 280 534 247 c 256
 534 214 530 187 519 165 c 256
 504 134 478 118 445 118 c 256
 400 118 365 150 344 215 c 256
 336 238 332 253 327 262 c 256
 314 283 298 300 278 314 c 256
 253 331 226 340 196 340 c 256
 141 340 98 324 68 292 c 256
 37 259 21 217 21 165 c 256
 21 118 37 79 69 47 c 256
 100 15 138 -1 182 -1 c 256
 213 -1 242 8 268 26 c 256
 290 42 305 59 313 77 c 257
 316 59 327 42 344 27 c 256
NamedP: "hr00"
318 590 m 258
 264 492 224 441 192 441 c 256
 173 441 155 460 139 498 c 256
 122 539 102 559 79 559 c 256
 64 559 53 556 44 549 c 256
 31 538 24 523 24 502 c 256
 24 473 45 446 86 421 c 256
 124 399 159 388 192 388 c 256
 219 388 269 420 341 484 c 258
 374 513 l 257
 404 535 l 258
 444 564 462 592 462 616 c 256
 462 633 456 646 445 656 c 256
 434 667 420 673 404 673 c 256
 389 673 378 671 369 666 c 256
 359 659 349 646 338 626 c 258
 318 590 l 258
254 267 m 256
 274 250 284 231 284 208 c 256
 284 181 278 158 264 139 c 256
 249 118 223 108 189 108 c 256
 156 108 131 119 113 142 c 256
 98 161 91 183 91 208 c 256
 91 231 100 250 118 267 c 256
 137 284 159 292 186 292 c 256
 213 292 235 283 254 267 c 256
EndSplineSet
PickledDataWithLists: "(dp1
S'com.adobe.type.autohint'
p2
(S'data'
S'<data>\\n  <hintSetList>\\n    <hintset pointTag=\"hr00\">\\n      <hstem pos=\"-1\" width=\"109\"/>\\n      <hstem pos=\"0\" width=\"118\"/>\\n      <hstem pos=\"292\" width=\"48\"/>\\n      <hstem pos=\"358\" width=\"83\"/>\\n      <hstem pos=\"388\" width=\"53\"/>\\n      <vstem pos=\"21\" width=\"70\"/>\\n      <vstem pos=\"534\" width=\"50\"/>\\n    </hintset>\\n  </hintSetList>\\n  </data>'
Ntp3
s."
EndChar

StartChar: uni0C2B
Encoding: 157 3115 157
GlifName: uni0C2B_
Width: 620
VWidth: 0
Flags: W
LayerCount: 2
Back
Fore
SplineSet
344 27 m 256
NamedP: "hr00"
 364 9 388 0 415 0 c 256
 480 0 526 23 554 70 c 256
 574 104 584 149 584 206 c 256
 584 270 569 324 540 368 c 256
 509 417 467 441 415 441 c 256
 401 441 391 438 384 431 c 256
 375 424 371 413 371 398 c 256
 371 385 376 375 387 368 c 257
 395 361 406 358 419 358 c 256
 448 358 474 350 496 330 c 256
 522 308 534 280 534 247 c 256
 534 214 530 187 519 165 c 256
 504 134 478 118 445 118 c 256
 400 118 365 150 344 215 c 256
 336 238 332 253 327 262 c 256
 314 283 298 300 278 314 c 256
 253 331 226 340 196 340 c 256
 141 340 98 324 68 292 c 256
 37 259 21 217 21 165 c 256
 21 118 37 79 69 47 c 256
 100 15 138 -1 182 -1 c 256
 213 -1 242 8 268 26 c 256
 290 42 305 59 313 77 c 257
 316 59 327 42 344 27 c 256
NamedP: "hr00"
354 -129 m 256
 363 -119 368 -106 368 -91 c 256
 368 -76 363 -59 352 -40 c 256
 343 -24 332 -8 317 7 c 258
 311 13 l 257
 295 -5 283 -20 274 -33 c 256
 260 -54 253 -74 253 -92 c 256
 253 -110 259 -123 270 -132 c 256
 279 -141 293 -145 311 -145 c 256
 329 -145 343 -140 354 -129 c 256
318 590 m 258
 264 492 224 441 192 441 c 256
 173 441 155 460 139 498 c 256
 122 539 102 559 79 559 c 256
 64 559 53 556 44 549 c 256
 31 538 24 523 24 502 c 256
 24 473 45 446 86 421 c 256
 124 399 159 388 192 388 c 256
 219 388 269 420 341 484 c 258
 374 513 l 257
 404 535 l 258
 444 564 462 592 462 616 c 256
 462 633 456 646 445 656 c 256
 434 667 420 673 404 673 c 256
 389 673 378 671 369 666 c 256
 359 659 349 646 338 626 c 258
 318 590 l 258
254 267 m 256
 274 250 284 231 284 208 c 256
 284 181 278 158 264 139 c 256
 249 118 223 108 189 108 c 256
 156 108 131 119 113 142 c 256
 98 161 91 183 91 208 c 256
 91 231 100 250 118 267 c 256
 137 284 159 292 186 292 c 256
 213 292 235 283 254 267 c 256
EndSplineSet
PickledDataWithLists: "(dp1
S'com.adobe.type.autohint'
p2
(S'data'
S'<data>\\n  <hintSetList>\\n    <hintset pointTag=\"hr00\">\\n      <hstem pos=\"-1\" width=\"109\"/>\\n      <hstem pos=\"0\" width=\"118\"/>\\n      <hstem pos=\"292\" width=\"48\"/>\\n      <hstem pos=\"358\" width=\"83\"/>\\n      <hstem pos=\"388\" width=\"53\"/>\\n      <vstem pos=\"21\" width=\"70\"/>\\n      <vstem pos=\"253\" width=\"115\"/>\\n      <vstem pos=\"534\" width=\"50\"/>\\n    </hintset>\\n  </hintSetList>\\n  </data>'
Ntp3
s."
EndChar

StartChar: uni0C2C
Encoding: 158 3116 158
GlifName: uni0C2C_
Width: 605
VWidth: 0
Flags: W
LayerCount: 2
Back
Fore
SplineSet
496 159 m 256
NamedP: "hr00"
 475 125 445 108 406 108 c 256
 379 108 357 115 342 129 c 256
 327 142 320 161 320 186 c 256
 320 195 319 202 317 208 c 257
 313 213 309 215 304 215 c 256
 297 215 291 213 288 208 c 257
 287 204 287 199 287 192 c 256
 287 167 274 148 251 131 c 256
 231 117 214 108 195 108 c 256
 162 108 139 111 125 117 c 257
 102 124 91 138 91 159 c 256
 91 186 118 206 172 220 c 256
 253 240 293 279 293 336 c 256
 293 371 280 399 253 420 c 256
 228 439 196 448 156 448 c 256
 123 448 94 439 69 422 c 256
 39 403 24 377 24 343 c 256
 24 328 30 314 41 302 c 256
 52 290 64 284 78 284 c 256
 96 284 109 288 118 296 c 256
 125 301 129 308 129 319 c 256
 129 324 127 330 122 338 c 256
 118 346 116 352 116 356 c 256
 116 370 124 380 140 387 c 256
 151 392 163 394 177 394 c 256
 197 394 213 388 226 378 c 256
 240 367 247 351 247 327 c 256
 247 309 238 294 219 283 c 256
 204 274 184 268 159 263 c 256
 119 256 90 247 71 235 c 256
 38 213 21 178 21 131 c 256
 21 91 37 58 68 33 c 256
 95 11 128 0 166 0 c 256
 202 0 232 8 257 23 c 256
 273 32 287 46 298 65 c 257
 308 46 319 32 331 23 c 256
 352 8 378 0 409 0 c 256
 468 0 511 27 539 80 c 256
 560 119 570 168 570 228 c 256
 570 281 553 329 519 373 c 256
 483 418 442 441 396 441 c 256
 381 441 369 438 359 432 c 256
 351 427 347 418 347 407 c 256
 347 394 350 386 357 381 c 256
 364 376 379 373 402 373 c 256
 437 373 466 361 489 336 c 256
 511 311 522 282 522 247 c 256
 522 214 513 185 496 159 c 256
NamedP: "hr00"
EndSplineSet
PickledDataWithLists: "(dp1
S'com.adobe.type.autohint'
p2
(S'data'
S'<data>\\n  <hintSetList>\\n    <hintset pointTag=\"hr00\">\\n      <hstem pos=\"0\" width=\"108\"/>\\n      <hstem pos=\"373\" width=\"68\"/>\\n      <hstem pos=\"394\" width=\"54\"/>\\n      <vstem pos=\"21\" width=\"70\"/>\\n      <vstem pos=\"24\" width=\"92\"/>\\n      <vstem pos=\"247\" width=\"46\"/>\\n      <vstem pos=\"287\" width=\"33\"/>\\n      <vstem pos=\"522\" width=\"48\"/>\\n    </hintset>\\n  </hintSetList>\\n  </data>'
Ntp3
s."
EndChar

StartChar: uni0C2D
Encoding: 159 3117 159
GlifName: uni0C2D_
Width: 659
VWidth: 0
Flags: W
LayerCount: 2
Back
Fore
SplineSet
473 430 m 257
NamedP: "hr00"
 494 444 517 463 543 485 c 258
 571 509 l 257
 601 530 l 258
 642 559 660 588 660 613 c 256
 660 629 654 642 643 653 c 257
 631 663 617 668 601 668 c 256
 587 668 576 666 567 661 c 256
 556 654 546 642 536 623 c 258
 519 590 l 258
 468 490 422 441 389 441 c 256
 370 441 353 459 337 496 c 256
 320 536 300 556 277 556 c 256
 263 556 251 552 241 543 c 257
 228 534 222 519 222 498 c 256
 222 469 243 443 284 420 c 256
 322 399 357 388 389 388 c 258
 416 388 l 258
 455 388 482 373 500 344 c 256
 514 321 522 289 522 247 c 256
 522 214 513 185 496 159 c 256
 475 125 445 108 406 108 c 256
 379 108 357 115 342 129 c 256
 327 142 320 161 320 186 c 256
 320 195 319 202 317 208 c 257
 313 213 309 215 304 215 c 256
 297 215 291 213 288 208 c 257
 287 204 287 199 287 192 c 256
 287 167 276 147 253 131 c 256
 233 116 214 108 195 108 c 256
 162 108 139 111 125 117 c 257
 102 124 91 138 91 159 c 256
 91 186 118 206 172 220 c 256
 253 240 293 279 293 336 c 256
 293 370 280 396 253 415 c 256
 228 432 196 441 156 441 c 256
 122 441 93 434 69 420 c 256
 39 402 24 376 24 343 c 256
 24 328 30 314 41 302 c 256
 52 290 64 284 78 284 c 256
 96 284 109 288 118 296 c 256
 125 301 129 308 129 319 c 256
 129 324 127 330 122 338 c 256
 118 346 116 352 116 356 c 256
 116 370 124 380 140 385 c 256
 149 387 161 388 177 388 c 256
 198 388 215 384 227 377 c 257
 240 366 247 350 247 327 c 256
 247 296 218 276 159 266 c 256
 67 250 21 204 21 131 c 256
 21 91 37 58 68 33 c 256
 95 11 128 0 166 0 c 256
 202 0 232 8 257 23 c 256
 273 32 287 46 298 65 c 257
 308 46 320 32 334 23 c 257
 353 8 378 0 409 0 c 256
 464 0 506 24 537 73 c 256
 563 114 577 161 577 216 c 256
 577 283 562 337 532 378 c 256
 515 402 496 419 473 430 c 257
NamedP: "hr00"
342 -129 m 256
 352 -119 357 -106 357 -91 c 256
 357 -77 352 -61 341 -44 c 256
 332 -30 320 -15 305 0 c 257
 300 13 l 257
 283 -5 270 -20 261 -33 c 256
 248 -54 241 -74 241 -92 c 256
 241 -110 247 -123 259 -132 c 256
 269 -141 283 -145 300 -145 c 256
 318 -145 332 -140 342 -129 c 256
EndSplineSet
PickledDataWithLists: "(dp1
S'com.adobe.type.autohint'
p2
(S'data'
S'<data>\\n  <hintSetList>\\n    <hintset pointTag=\"hr00\">\\n      <hstem pos=\"0\" width=\"108\"/>\\n      <hstem pos=\"388\" width=\"53\"/>\\n      <vstem pos=\"21\" width=\"70\"/>\\n      <vstem pos=\"24\" width=\"92\"/>\\n      <vstem pos=\"241\" width=\"116\"/>\\n      <vstem pos=\"247\" width=\"46\"/>\\n      <vstem pos=\"287\" width=\"33\"/>\\n      <vstem pos=\"522\" width=\"55\"/>\\n    </hintset>\\n  </hintSetList>\\n  </data>'
Ntp3
s."
EndChar

StartChar: uni0C2E
Encoding: 160 3118 160
GlifName: uni0C2E_
Width: 908
VWidth: 0
Flags: W
LayerCount: 2
Back
Fore
SplineSet
404 388 m 258
NamedP: "hr00"
 445 388 480 375 507 350 c 256
 535 323 549 289 549 247 c 256
 549 201 539 166 515 144 c 256
 497 126 472 118 445 118 c 256
 400 118 365 150 344 215 c 256
 336 238 332 253 327 262 c 256
 314 283 298 300 278 314 c 256
 253 331 226 340 196 340 c 256
 141 340 98 324 68 292 c 256
 37 259 21 217 21 165 c 256
 21 118 37 80 69 48 c 256
 101 16 138 0 182 0 c 256
 213 0 242 9 268 27 c 256
 290 42 305 59 313 77 c 257
 316 59 328 42 347 27 c 256
 370 9 399 0 432 0 c 256
 492 0 541 22 569 71 c 258
 577 85 l 257
 582 67 590 51 601 37 c 256
 623 10 655 -3 697 -3 c 256
 760 -3 806 24 837 78 c 256
 860 118 873 168 873 228 c 256
 873 281 856 329 822 373 c 256
 786 418 745 441 699 441 c 256
 684 441 672 438 662 432 c 256
 654 427 650 418 650 407 c 256
 650 394 653 386 660 381 c 256
 667 376 682 373 705 373 c 256
 740 373 769 361 792 336 c 256
 814 311 825 282 825 247 c 256
 825 216 813 188 792 159 c 256
 767 126 736 108 695 108 c 256
 665 108 640 117 620 135 c 256
 612 142 606 148 601 155 c 257
 606 178 608 202 608 229 c 256
 608 290 588 342 547 383 c 256
 508 422 462 441 409 441 c 258
 317 441 l 257
 333 452 356 468 385 494 c 258
 404 511 l 257
 433 532 l 258
 473 561 492 589 492 613 c 256
 492 630 486 644 475 654 c 256
 464 665 450 671 433 671 c 256
 420 671 409 668 399 663 c 257
 390 656 379 643 369 624 c 258
 351 590 l 258
 298 491 255 441 223 441 c 256
 204 441 185 459 169 496 c 256
 151 536 132 556 111 556 c 256
 96 556 83 553 74 546 c 256
 61 535 54 520 54 501 c 256
 54 472 75 445 116 421 c 256
 153 399 188 388 220 388 c 258
 404 388 l 258
NamedP: "hr00"
254 267 m 256
 274 250 284 231 284 208 c 256
 284 181 278 158 264 139 c 256
 249 118 223 108 189 108 c 256
 156 108 131 119 113 142 c 256
 98 161 91 183 91 208 c 256
 91 231 100 250 118 267 c 256
 137 284 159 292 186 292 c 256
 213 292 235 283 254 267 c 256
EndSplineSet
PickledDataWithLists: "(dp1
S'com.adobe.type.autohint'
p2
(S'data'
S'<data>\\n  <hintSetList>\\n    <hintset pointTag=\"hr00\">\\n      <hstem pos=\"-3\" width=\"111\"/>\\n      <hstem pos=\"0\" width=\"118\"/>\\n      <hstem pos=\"0\" width=\"108\"/>\\n      <hstem pos=\"292\" width=\"48\"/>\\n      <hstem pos=\"373\" width=\"68\"/>\\n      <hstem pos=\"388\" width=\"53\"/>\\n      <vstem pos=\"21\" width=\"70\"/>\\n      <vstem pos=\"549\" width=\"59\"/>\\n      <vstem pos=\"825\" width=\"48\"/>\\n    </hintset>\\n  </hintSetList>\\n  </data>'
Ntp3
s."
EndChar

StartChar: uni0C2F
Encoding: 161 3119 161
GlifName: uni0C2F_
Width: 1105
VWidth: 0
Flags: W
LayerCount: 2
Back
Fore
SplineSet
577 388 m 257
NamedP: "hr00"
 583 389 597 388 620 388 c 258
 634 388 l 258
 667 388 696 374 719 346 c 256
 743 317 755 281 755 240 c 256
 755 210 745 182 724 156 c 256
 699 124 666 108 625 108 c 256
 588 108 558 117 536 135 c 256
 517 150 505 172 502 199 c 257
 502 215 l 258
 502 278 483 332 441 374 c 256
 397 420 339 441 268 441 c 256
 191 441 132 418 86 374 c 256
 44 332 21 280 21 215 c 256
 21 155 43 105 86 65 c 256
 132 22 193 0 268 0 c 256
 314 0 354 10 389 28 c 256
 424 46 451 70 470 102 c 257
 481 72 498 48 523 30 c 256
 550 10 581 0 614 0 c 256
 679 0 729 24 762 73 c 257
 767 78 770 83 773 88 c 257
 778 68 786 51 798 37 c 256
 819 10 851 -3 893 -3 c 256
 958 -3 1005 24 1035 78 c 256
 1058 118 1069 168 1069 228 c 256
 1069 281 1052 329 1018 373 c 256
 983 418 942 441 896 441 c 256
 881 441 869 438 860 432 c 256
 851 427 846 418 846 407 c 256
 846 394 849 386 856 381 c 256
 863 376 878 373 901 373 c 256
 936 373 965 361 988 336 c 256
 1010 311 1021 282 1021 247 c 256
 1021 216 1011 187 990 159 c 256
 965 125 933 108 893 108 c 256
 862 108 837 117 816 135 c 256
 809 142 803 148 798 155 c 257
 803 176 805 197 805 220 c 256
 805 282 788 334 753 377 c 256
 727 410 696 430 660 437 c 257
 678 451 698 467 719 485 c 258
 748 509 l 257
 778 530 l 258
 818 558 835 588 835 613 c 256
 835 629 829 642 817 653 c 256
 807 663 794 668 778 668 c 256
 763 668 752 666 743 661 c 256
 733 654 722 643 712 623 c 258
 695 590 l 258
 644 490 599 441 566 441 c 256
 547 441 529 459 513 496 c 256
 496 536 476 556 453 556 c 256
 439 556 427 552 416 543 c 256
 404 534 398 519 398 498 c 256
 398 469 419 444 462 420 c 256
 499 399 533 388 566 388 c 258
 577 388 l 257
NamedP: "hr00"
387 353 m 256
 418 329 433 297 433 260 c 256
 433 219 419 184 391 155 c 256
 360 122 319 105 268 105 c 256
 213 105 170 119 139 148 c 256
 114 173 101 204 101 243 c 256
 101 287 115 322 143 348 c 256
 174 375 215 388 268 388 c 256
 316 388 356 377 387 353 c 256
EndSplineSet
PickledDataWithLists: "(dp1
S'com.adobe.type.autohint'
p2
(S'data'
S'<data>\\n  <hintSetList>\\n    <hintset pointTag=\"hr00\">\\n      <hstem pos=\"-3\" width=\"111\"/>\\n      <hstem pos=\"0\" width=\"105\"/>\\n      <hstem pos=\"0\" width=\"108\"/>\\n      <hstem pos=\"373\" width=\"68\"/>\\n      <hstem pos=\"388\" width=\"53\"/>\\n      <vstem pos=\"21\" width=\"80\"/>\\n      <vstem pos=\"433\" width=\"69\"/>\\n      <vstem pos=\"755\" width=\"50\"/>\\n      <vstem pos=\"1021\" width=\"48\"/>\\n    </hintset>\\n  </hintSetList>\\n  </data>'
Ntp3
s."
EndChar

StartChar: uni0C30
Encoding: 162 3120 162
GlifName: uni0C30_
Width: 554
VWidth: 0
Flags: W
LayerCount: 2
Back
Fore
SplineSet
338 432 m 257
NamedP: "hr00"
 357 447 379 464 404 485 c 258
 432 509 l 257
 462 530 l 258
 502 558 519 588 519 613 c 256
 519 629 513 642 502 653 c 256
 491 663 478 668 462 668 c 256
 448 668 437 666 428 661 c 256
 417 654 406 643 396 623 c 258
 379 590 l 258
 328 490 283 441 250 441 c 256
 231 441 213 459 197 496 c 256
 179 536 161 556 138 556 c 256
 123 556 111 552 101 543 c 257
 88 534 82 519 82 498 c 256
 82 469 103 443 146 420 c 257
 149 417 l 257
 125 406 104 392 86 374 c 256
 43 333 21 280 21 215 c 256
 21 155 43 105 86 65 c 256
 132 22 193 0 268 0 c 256
 339 0 396 22 441 65 c 256
 482 106 502 156 502 215 c 256
 502 278 482 331 441 374 c 256
 412 403 378 422 338 432 c 257
NamedP: "hr00"
387 353 m 256
 418 329 433 297 433 260 c 256
 433 219 419 184 391 155 c 256
 360 122 319 105 268 105 c 256
 213 105 170 119 139 148 c 256
 114 173 101 204 101 243 c 256
 101 287 115 322 143 348 c 256
 174 375 215 388 268 388 c 256
 316 388 356 377 387 353 c 256
EndSplineSet
PickledDataWithLists: "(dp1
S'com.adobe.type.autohint'
p2
(S'data'
S'<data>\\n  <hintSetList>\\n    <hintset pointTag=\"hr00\">\\n      <hstem pos=\"0\" width=\"105\"/>\\n      <hstem pos=\"388\" width=\"53\"/>\\n      <vstem pos=\"21\" width=\"80\"/>\\n      <vstem pos=\"433\" width=\"69\"/>\\n    </hintset>\\n  </hintSetList>\\n  </data>'
Ntp3
s."
EndChar

StartChar: uni0C31
Encoding: 163 3121 163
GlifName: uni0C31_
Width: 612
VWidth: 0
Flags: W
LayerCount: 2
Back
Fore
SplineSet
372 350 m 256
NamedP: "hr00"
 387 367 403 375 422 375 c 256
 454 375 479 359 499 326 c 256
 516 297 526 268 526 238 c 256
 526 195 518 161 499 138 c 256
 477 110 441 98 392 98 c 256
 365 98 345 105 330 117 c 256
 319 126 314 134 314 145 c 256
 314 156 311 164 305 169 c 257
 302 174 297 176 291 176 c 256
 286 176 280 173 274 166 c 256
 271 163 270 156 270 145 c 256
 270 136 264 128 251 121 c 257
 235 110 213 105 185 105 c 256
 146 105 116 120 96 149 c 256
 79 174 71 205 71 242 c 256
 71 273 77 297 89 314 c 257
 90 294 100 277 118 263 c 256
 133 252 151 247 172 247 c 256
 199 247 222 255 241 270 c 256
 265 288 277 312 277 343 c 256
 277 366 267 388 247 408 c 256
 226 429 202 439 173 439 c 256
 130 439 93 418 64 375 c 256
 34 331 21 279 21 220 c 256
 21 155 35 102 64 61 c 256
 93 20 133 0 182 0 c 256
 209 0 232 7 251 20 c 256
 270 32 283 47 290 65 c 257
 295 48 309 33 334 18 c 256
 356 6 379 0 402 0 c 256
 457 0 501 21 532 63 c 256
 562 104 577 158 577 226 c 256
 577 289 560 341 526 383 c 256
 495 420 460 439 421 439 c 256
 390 439 363 428 341 407 c 256
 316 382 304 353 304 319 c 256
 304 302 308 284 317 266 c 256
 326 247 328 239 323 242 c 257
 197 242 l 258
 187 242 179 240 173 235 c 257
 168 229 165 220 165 209 c 256
 165 198 167 190 172 185 c 256
 177 180 186 178 197 178 c 258
 396 178 l 258
 408 178 418 181 425 188 c 257
 436 195 442 205 442 219 c 256
 442 234 437 245 426 252 c 256
 419 257 410 259 399 259 c 256
 386 259 375 265 368 276 c 256
 361 287 357 297 357 307 c 256
 357 322 362 337 372 350 c 256
NamedP: "hr00"
206 370 m 256
 215 361 220 351 220 340 c 256
 220 325 215 314 206 309 c 257
 199 303 187 300 172 300 c 256
 161 300 151 304 142 311 c 256
 131 319 126 328 126 338 c 256
 126 351 130 361 139 370 c 256
 148 379 161 384 176 384 c 256
 187 384 197 379 206 370 c 256
EndSplineSet
PickledDataWithLists: "(dp1
S'com.adobe.type.autohint'
p2
(S'data'
S'<data>\\n  <hintSetList>\\n    <hintset pointTag=\"hr00\">\\n      <hstem pos=\"0\" width=\"98\"/>\\n      <hstem pos=\"0\" width=\"105\"/>\\n      <hstem pos=\"178\" width=\"64\"/>\\n      <hstem pos=\"247\" width=\"53\"/>\\n      <hstem pos=\"375\" width=\"64\"/>\\n      <hstem pos=\"384\" width=\"55\"/>\\n      <vstem pos=\"21\" width=\"50\"/>\\n      <vstem pos=\"89\" width=\"37\"/>\\n      <vstem pos=\"220\" width=\"57\"/>\\n      <vstem pos=\"270\" width=\"44\"/>\\n      <vstem pos=\"304\" width=\"53\"/>\\n      <vstem pos=\"526\" width=\"51\"/>\\n    </hintset>\\n  </hintSetList>\\n  </data>'
Ntp3
s."
EndChar

StartChar: uni0C32
Encoding: 164 3122 164
GlifName: uni0C32_
Width: 603
VWidth: 0
Flags: W
LayerCount: 2
Back
Fore
SplineSet
519 272 m 256
NamedP: "hr00"
 519 216 499 175 459 148 c 256
 424 125 370 114 298 114 c 256
 215 114 154 130 116 161 c 256
 86 186 71 221 71 267 c 256
 71 278 74 294 79 314 c 257
 82 321 l 257
 91 296 106 275 129 263 c 256
 147 253 166 250 185 250 c 256
 220 250 248 260 271 280 c 256
 295 300 307 327 307 360 c 256
 307 391 295 417 271 435 c 256
 250 451 226 458 197 458 c 256
 136 458 90 433 58 383 c 256
 34 345 21 299 21 246 c 256
 21 168 46 108 96 65 c 256
 145 22 211 0 294 0 c 256
 382 0 450 23 499 70 c 256
 544 115 567 177 567 256 c 256
 567 313 550 361 515 400 c 256
 482 438 441 457 394 457 c 256
 379 457 366 454 357 449 c 256
 348 444 344 435 344 422 c 256
 344 410 347 401 354 395 c 256
 361 390 376 388 399 388 c 256
 434 388 463 376 486 353 c 256
 508 331 519 304 519 272 c 256
NamedP: "hr00"
121 357 m 256
 121 371 127 383 138 394 c 257
 149 403 162 408 177 408 c 256
 194 408 209 404 220 395 c 256
 233 386 239 373 239 357 c 256
 239 341 233 328 220 319 c 256
 209 310 194 306 177 306 c 256
 162 306 149 311 138 321 c 256
 127 331 121 343 121 357 c 256
EndSplineSet
PickledDataWithLists: "(dp1
S'com.adobe.type.autohint'
p2
(S'data'
S'<data>\\n  <hintSetList>\\n    <hintset pointTag=\"hr00\">\\n      <hstem pos=\"0\" width=\"114\"/>\\n      <hstem pos=\"250\" width=\"56\"/>\\n      <hstem pos=\"388\" width=\"69\"/>\\n      <hstem pos=\"408\" width=\"50\"/>\\n      <vstem pos=\"21\" width=\"50\"/>\\n      <vstem pos=\"239\" width=\"68\"/>\\n      <vstem pos=\"519\" width=\"48\"/>\\n    </hintset>\\n  </hintSetList>\\n  </data>'
Ntp3
s."
EndChar

StartChar: uni0C33
Encoding: 165 3123 165
GlifName: uni0C33_
Width: 520
VWidth: 0
Flags: W
LayerCount: 2
Back
Fore
SplineSet
391 432 m 257
NamedP: "hr00"
 408 447 428 464 449 486 c 258
 472 511 l 257
 499 532 l 258
 534 559 549 589 549 613 c 256
 549 630 544 644 534 654 c 257
 526 665 514 671 499 671 c 256
 486 671 477 668 470 663 c 256
 461 656 451 643 443 624 c 258
 429 592 l 258
 384 490 345 441 317 441 c 256
 300 441 285 460 271 498 c 256
 257 537 239 556 219 556 c 256
 206 556 196 552 189 545 c 256
 178 535 172 520 172 501 c 256
 172 470 190 444 226 421 c 256
 251 404 275 396 298 391 c 257
 302 389 307 388 313 388 c 256
 327 388 336 387 341 385 c 256
 365 378 377 367 377 350 c 256
 377 321 356 299 314 284 c 256
 287 275 259 270 229 270 c 256
 178 270 141 273 118 280 c 256
 85 289 69 306 69 331 c 257
 77 319 89 310 105 303 c 256
 121 296 137 293 153 293 c 256
 177 293 197 300 214 313 c 256
 232 326 241 343 241 364 c 256
 241 388 232 407 214 420 c 256
 195 434 171 441 140 441 c 256
 104 441 75 431 52 411 c 256
 31 394 21 370 21 341 c 256
 21 311 29 285 49 267 c 256
 63 253 82 245 103 240 c 257
 85 231 71 218 61 202 c 256
 48 183 41 161 41 135 c 256
 41 92 62 58 105 33 c 256
 143 11 191 0 249 0 c 256
 304 0 351 15 391 44 c 256
 431 73 451 109 451 151 c 256
 451 180 442 202 426 220 c 256
 410 237 388 248 357 255 c 257
 378 262 396 273 411 287 c 257
 427 305 435 328 435 356 c 256
 435 375 430 392 419 407 c 256
 412 417 403 425 391 432 c 257
NamedP: "hr00"
337 215 m 256
 364 203 377 187 377 164 c 256
 377 139 363 119 334 105 c 256
 308 92 278 87 244 87 c 256
 210 87 182 92 159 102 c 256
 132 115 118 133 118 156 c 256
 118 182 132 200 156 213 c 256
 179 225 207 232 244 232 c 256
 282 232 313 225 337 215 c 256
172 398 m 256
 179 391 183 382 183 371 c 256
 183 361 178 353 169 346 c 256
 160 339 149 336 136 336 c 256
 125 336 115 339 106 344 c 257
 96 352 91 361 91 370 c 256
 91 381 94 391 101 398 c 256
 109 407 121 411 136 411 c 256
 151 411 163 407 172 398 c 256
EndSplineSet
PickledDataWithLists: "(dp1
S'com.adobe.type.autohint'
p2
(S'data'
S'<data>\\n  <hintSetList>\\n    <hintset pointTag=\"hr00\">\\n      <hstem pos=\"0\" width=\"87\"/>\\n      <hstem pos=\"232\" width=\"38\"/>\\n      <hstem pos=\"293\" width=\"43\"/>\\n      <hstem pos=\"388\" width=\"53\"/>\\n      <hstem pos=\"411\" width=\"30\"/>\\n      <vstem pos=\"21\" width=\"48\"/>\\n      <vstem pos=\"41\" width=\"77\"/>\\n      <vstem pos=\"183\" width=\"58\"/>\\n      <vstem pos=\"377\" width=\"58\"/>\\n      <vstem pos=\"377\" width=\"74\"/>\\n    </hintset>\\n  </hintSetList>\\n  </data>'
Ntp3
s."
EndChar

StartChar: uni0C34
Encoding: 166 3124 166
GlifName: uni0C34_
Width: 594
VWidth: 0
Flags: W
LayerCount: 2
Back
Fore
SplineSet
291 71 m 258
NamedP: "hr00"
 301 51 313 33 331 20 c 256
 350 7 373 0 401 0 c 256
 450 0 488 21 517 63 c 256
 544 102 559 155 559 220 c 256
 559 280 545 331 517 374 c 256
 488 419 451 441 408 441 c 256
 379 441 355 430 335 408 c 256
 317 388 308 368 308 347 c 256
 308 320 319 297 340 280 c 256
 359 264 383 256 411 256 c 256
 432 256 449 262 463 273 c 256
 480 286 490 304 492 327 c 257
 506 306 513 278 513 243 c 256
 513 202 504 168 487 141 c 256
 466 108 437 92 398 92 c 256
 369 92 347 97 331 108 c 256
 317 117 310 129 310 142 c 256
 310 151 308 157 305 161 c 256
 302 166 297 168 291 168 c 258
 288 168 l 258
 283 168 278 166 274 161 c 256
 271 157 270 151 270 142 c 256
 270 129 263 117 249 108 c 256
 232 97 210 92 182 92 c 256
 143 92 113 108 92 141 c 256
 75 168 67 202 67 243 c 256
 67 278 74 306 88 327 c 257
 90 304 99 286 116 273 c 256
 131 262 148 256 169 256 c 256
 196 256 220 264 240 280 c 256
 261 297 271 320 271 347 c 256
 271 368 262 388 244 408 c 256
 224 430 200 441 172 441 c 256
 128 441 91 419 62 374 c 256
 35 331 21 280 21 220 c 256
 21 155 35 102 62 63 c 256
 91 21 130 0 179 0 c 256
 206 0 230 7 249 20 c 256
 267 33 280 50 288 71 c 257
 290 73 l 257
 291 71 l 258
NamedP: "hr00"
377 310 m 256
 366 317 361 328 361 343 c 256
 361 354 366 365 377 374 c 257
 385 383 395 388 406 388 c 256
 421 388 434 383 443 374 c 256
 452 365 456 354 456 341 c 256
 456 331 451 322 441 313 c 257
 430 306 420 302 411 302 c 256
 396 302 384 305 377 310 c 256
203 374 m 256
 214 365 219 354 219 343 c 256
 219 328 214 317 203 310 c 256
 196 305 184 302 169 302 c 256
 160 302 150 306 139 313 c 257
 128 322 123 331 123 341 c 256
 123 354 127 365 136 374 c 256
 145 383 158 388 173 388 c 256
 184 388 194 383 203 374 c 256
EndSplineSet
PickledDataWithLists: "(dp1
S'com.adobe.type.autohint'
p2
(S'data'
S'<data>\\n  <hintSetList>\\n    <hintset pointTag=\"hr00\">\\n      <hstem pos=\"0\" width=\"92\"/>\\n      <hstem pos=\"256\" width=\"46\"/>\\n      <hstem pos=\"388\" width=\"53\"/>\\n      <vstem pos=\"21\" width=\"46\"/>\\n      <vstem pos=\"88\" width=\"35\"/>\\n      <vstem pos=\"219\" width=\"52\"/>\\n      <vstem pos=\"270\" width=\"40\"/>\\n      <vstem pos=\"308\" width=\"53\"/>\\n      <vstem pos=\"456\" width=\"36\"/>\\n      <vstem pos=\"513\" width=\"46\"/>\\n    </hintset>\\n  </hintSetList>\\n  </data>'
Ntp3
s."
EndChar

StartChar: uni0C35
Encoding: 167 3125 167
GlifName: uni0C35_
Width: 644
VWidth: 0
Flags: W
LayerCount: 2
Back
Fore
SplineSet
317 441 m 257
NamedP: "hr00"
 333 452 356 468 385 494 c 258
 404 511 l 257
 433 532 l 258
 473 561 492 589 492 613 c 256
 492 630 486 644 475 654 c 256
 464 665 450 671 433 671 c 256
 420 671 409 668 399 663 c 257
 390 656 379 643 369 624 c 258
 351 590 l 258
 298 491 255 441 223 441 c 256
 204 441 185 459 169 496 c 256
 151 536 132 556 111 556 c 256
 96 556 83 553 74 546 c 256
 61 535 54 520 54 501 c 256
 54 472 75 445 116 421 c 256
 153 399 188 388 220 388 c 258
 404 388 l 258
 445 388 480 375 507 350 c 256
 535 323 549 289 549 247 c 256
 549 201 539 166 515 144 c 256
 497 126 472 118 445 118 c 256
 400 118 365 150 344 215 c 256
 336 238 332 253 327 262 c 256
 314 283 298 300 278 314 c 256
 253 331 226 340 196 340 c 256
 141 340 98 324 68 292 c 256
 37 259 21 217 21 165 c 256
 21 118 37 80 69 48 c 256
 101 16 138 0 182 0 c 256
 213 0 242 9 268 27 c 256
 290 42 305 59 313 77 c 257
 316 59 328 42 347 27 c 256
 370 9 399 0 432 0 c 256
 492 0 539 24 569 71 c 256
 596 113 608 166 608 229 c 256
 608 290 588 342 547 383 c 256
 508 422 462 441 409 441 c 258
 317 441 l 257
NamedP: "hr00"
254 267 m 256
 274 250 284 231 284 208 c 256
 284 181 278 158 264 139 c 256
 249 118 223 108 189 108 c 256
 156 108 131 119 113 142 c 256
 98 161 91 183 91 208 c 256
 91 231 100 250 118 267 c 256
 137 284 159 292 186 292 c 256
 213 292 235 283 254 267 c 256
EndSplineSet
PickledDataWithLists: "(dp1
S'com.adobe.type.autohint'
p2
(S'data'
S'<data>\\n  <hintSetList>\\n    <hintset pointTag=\"hr00\">\\n      <hstem pos=\"0\" width=\"118\"/>\\n      <hstem pos=\"0\" width=\"108\"/>\\n      <hstem pos=\"292\" width=\"48\"/>\\n      <hstem pos=\"388\" width=\"53\"/>\\n      <vstem pos=\"21\" width=\"70\"/>\\n      <vstem pos=\"549\" width=\"59\"/>\\n    </hintset>\\n  </hintSetList>\\n  </data>'
Ntp3
s."
EndChar

StartChar: uni0C36
Encoding: 168 3126 168
GlifName: uni0C36_
Width: 621
VWidth: 0
Flags: W
LayerCount: 2
Back
Fore
SplineSet
257 393 m 257
NamedP: "hr00"
 261 390 267 388 274 388 c 258
 446 388 l 258
 455 388 462 387 468 385 c 256
 478 380 483 373 483 363 c 256
 483 355 479 349 472 344 c 256
 463 339 452 336 438 336 c 257
 427 337 412 338 392 338 c 258
 362 338 l 258
 353 338 339 340 320 340 c 258
 313 340 l 258
 290 340 273 343 264 343 c 256
 195 343 138 329 94 300 c 256
 45 269 21 226 21 171 c 256
 21 152 26 135 37 122 c 256
 50 107 68 100 91 100 c 256
 109 100 123 106 132 117 c 256
 141 128 146 142 146 158 c 256
 146 167 142 179 133 192 c 256
 126 203 122 211 122 218 c 256
 122 246 137 269 167 283 c 256
 188 293 214 298 244 299 c 256
 254 299 261 298 264 297 c 257
 241 286 223 269 210 246 c 256
 196 222 189 194 189 162 c 256
 189 121 206 84 240 53 c 256
 278 18 327 0 387 0 c 256
 448 0 497 19 534 53 c 256
 560 77 576 106 583 142 c 256
 585 151 586 161 586 172 c 256
 586 201 578 228 561 253 c 257
 548 277 530 296 505 310 c 257
 516 317 525 325 532 336 c 256
 537 346 540 357 540 368 c 256
 540 391 532 408 517 421 c 256
 500 434 478 441 451 441 c 258
 385 441 l 257
 402 453 421 468 442 486 c 258
 470 511 l 257
 500 532 l 258
 540 560 559 589 559 613 c 256
 559 630 553 644 542 654 c 256
 530 665 516 671 500 671 c 256
 486 671 475 668 466 663 c 256
 456 656 445 644 435 624 c 258
 419 592 l 258
 368 490 321 441 288 441 c 256
 270 441 253 460 236 498 c 256
 219 537 199 556 176 556 c 256
 162 556 150 552 140 545 c 256
 127 535 121 520 121 501 c 256
 121 470 142 444 185 421 c 256
 210 407 234 398 257 393 c 257
NamedP: "hr00"
476 267 m 256
 502 249 515 226 515 199 c 256
 515 170 501 146 472 128 c 256
 448 113 420 105 387 105 c 256
 352 105 324 112 301 125 c 256
 276 140 263 163 263 192 c 256
 263 223 275 248 300 267 c 256
 323 284 352 293 387 293 c 256
 423 293 453 284 476 267 c 256
EndSplineSet
PickledDataWithLists: "(dp1
S'com.adobe.type.autohint'
p2
(S'data'
S'<data>\\n  <hintSetList>\\n    <hintset pointTag=\"hr00\">\\n      <hstem pos=\"0\" width=\"105\"/>\\n      <hstem pos=\"293\" width=\"45\"/>\\n      <hstem pos=\"299\" width=\"44\"/>\\n      <hstem pos=\"388\" width=\"53\"/>\\n      <vstem pos=\"21\" width=\"101\"/>\\n      <vstem pos=\"189\" width=\"74\"/>\\n      <vstem pos=\"483\" width=\"57\"/>\\n      <vstem pos=\"515\" width=\"71\"/>\\n    </hintset>\\n  </hintSetList>\\n  </data>'
Ntp3
s."
EndChar

StartChar: uni0C37
Encoding: 169 3127 169
GlifName: uni0C37_
Width: 632
VWidth: 0
Flags: W
LayerCount: 2
Back
Fore
SplineSet
355 20 m 256
NamedP: "hr00"
 376 7 400 0 426 0 c 256
 457 0 484 8 507 23 c 257
 499 3 495 -13 495 -26 c 256
 495 -54 501 -76 513 -91 c 256
 524 -106 541 -114 564 -114 c 256
 584 -114 601 -106 614 -91 c 256
 627 -77 633 -61 633 -43 c 256
 633 -32 631 -23 628 -16 c 256
 625 -8 622 -4 617 -4 c 257
 607 -10 l 258
 604 -11 601 -11 597 -11 c 256
 586 -11 576 -7 569 1 c 256
 560 11 556 23 556 37 c 256
 556 53 560 72 567 95 c 256
 578 130 584 167 584 206 c 256
 584 270 569 324 540 368 c 256
 509 417 467 441 415 441 c 256
 401 441 391 438 384 431 c 256
 375 424 371 413 371 398 c 256
 371 385 376 375 387 368 c 257
 395 361 406 358 419 358 c 256
 448 358 473 349 496 330 c 256
 523 307 536 276 536 235 c 256
 536 200 530 172 517 152 c 256
 501 129 477 118 445 118 c 256
 394 118 361 149 344 212 c 256
 338 235 332 252 327 262 c 257
 314 283 298 300 278 314 c 256
 253 331 226 340 196 340 c 256
 141 340 98 324 68 292 c 256
 37 259 21 217 21 165 c 256
 21 118 37 79 69 47 c 256
 100 15 138 -1 182 -1 c 256
 213 -1 242 8 268 26 c 256
 290 42 305 59 313 77 c 257
 318 52 332 33 355 20 c 256
NamedP: "hr00"
318 590 m 258
 264 492 224 441 192 441 c 256
 173 441 155 460 139 498 c 256
 122 539 102 559 79 559 c 256
 64 559 53 556 44 549 c 256
 31 538 24 523 24 502 c 256
 24 473 45 446 86 421 c 256
 124 399 159 388 192 388 c 256
 219 388 269 420 341 484 c 258
 374 513 l 257
 404 535 l 258
 444 564 462 592 462 616 c 256
 462 633 456 646 445 656 c 256
 434 667 420 673 404 673 c 256
 389 673 378 671 369 666 c 256
 359 659 349 646 338 626 c 258
 318 590 l 258
254 267 m 256
 274 250 284 231 284 208 c 256
 284 181 278 158 264 139 c 256
 249 118 223 108 189 108 c 256
 156 108 131 119 113 142 c 256
 98 161 91 183 91 208 c 256
 91 231 100 250 118 267 c 256
 137 284 159 292 186 292 c 256
 213 292 235 283 254 267 c 256
EndSplineSet
PickledDataWithLists: "(dp1
S'com.adobe.type.autohint'
p2
(S'data'
S'<data>\\n  <hintSetList>\\n    <hintset pointTag=\"hr00\">\\n      <hstem pos=\"-1\" width=\"109\"/>\\n      <hstem pos=\"0\" width=\"118\"/>\\n      <hstem pos=\"292\" width=\"48\"/>\\n      <hstem pos=\"358\" width=\"83\"/>\\n      <hstem pos=\"388\" width=\"53\"/>\\n      <vstem pos=\"21\" width=\"70\"/>\\n      <vstem pos=\"495\" width=\"61\"/>\\n      <vstem pos=\"536\" width=\"48\"/>\\n    </hintset>\\n  </hintSetList>\\n  </data>'
Ntp3
s."
EndChar

StartChar: uni0C38
Encoding: 170 3128 170
GlifName: uni0C38_
Width: 622
VWidth: 0
Flags: W
LayerCount: 2
Back
Fore
SplineSet
540 60 m 256
NamedP: "hr00"
 571 97 587 146 587 208 c 256
 587 271 571 325 543 368 c 256
 511 417 469 441 416 441 c 256
 403 441 393 438 387 431 c 257
 378 424 374 413 374 398 c 256
 374 385 379 375 389 368 c 256
 398 361 408 358 421 358 c 256
 449 358 476 350 499 330 c 256
 525 308 537 280 537 247 c 256
 537 196 525 160 502 138 c 256
 482 119 456 110 423 110 c 256
 390 110 367 120 354 141 c 256
 345 154 340 175 338 203 c 256
 336 236 324 265 301 289 c 256
 274 316 240 329 199 329 c 256
 142 329 97 311 65 276 c 256
 36 243 21 200 21 148 c 256
 21 87 36 46 65 23 c 256
 83 8 108 0 140 0 c 256
 151 0 160 6 169 18 c 256
 176 28 180 38 180 47 c 256
 180 69 169 88 149 108 c 256
 124 131 113 159 113 188 c 256
 113 216 119 239 135 256 c 256
 150 272 172 280 199 280 c 256
 217 280 234 274 249 263 c 256
 266 252 274 236 274 216 c 256
 274 196 272 176 268 156 c 256
 265 142 263 131 263 122 c 256
 263 88 277 59 304 36 c 256
 331 13 365 1 406 1 c 256
 463 1 508 21 540 60 c 256
NamedP: "hr00"
317 590 m 258
 267 490 221 441 189 441 c 256
 170 441 152 460 136 498 c 256
 119 539 99 559 76 559 c 256
 61 559 50 556 41 549 c 256
 28 538 21 523 21 502 c 256
 21 473 42 446 84 421 c 256
 121 399 156 388 189 388 c 256
 217 388 266 421 338 484 c 258
 371 513 l 257
 399 535 l 258
 438 566 459 592 459 616 c 256
 459 633 453 646 442 656 c 256
 431 667 416 673 399 673 c 256
 386 673 375 671 367 666 c 256
 356 659 345 646 335 626 c 258
 317 590 l 258
EndSplineSet
PickledDataWithLists: "(dp1
S'com.adobe.type.autohint'
p2
(S'data'
S'<data>\\n  <hintSetList>\\n    <hintset pointTag=\"hr00\">\\n      <hstem pos=\"1\" width=\"109\"/>\\n      <hstem pos=\"280\" width=\"49\"/>\\n      <hstem pos=\"358\" width=\"83\"/>\\n      <hstem pos=\"388\" width=\"53\"/>\\n      <vstem pos=\"21\" width=\"92\"/>\\n      <vstem pos=\"274\" width=\"64\"/>\\n      <vstem pos=\"537\" width=\"50\"/>\\n    </hintset>\\n  </hintSetList>\\n  </data>'
Ntp3
s."
EndChar

StartChar: uni0C39
Encoding: 171 3129 171
GlifName: uni0C39_
Width: 965
VWidth: 0
Flags: W
LayerCount: 2
Back
Fore
SplineSet
786 279 m 256
NamedP: "hr00"
 809 279 827 272 842 259 c 256
 857 246 864 231 864 212 c 256
 864 185 855 164 837 151 c 256
 823 140 806 134 786 134 c 256
 761 134 742 140 729 152 c 256
 714 165 707 185 707 210 c 256
 707 229 714 244 728 257 c 256
 744 272 763 279 786 279 c 256
NamedP: "hr00"
284 208 m 256
 284 181 278 158 264 139 c 256
 249 118 223 108 189 108 c 256
 156 108 131 119 113 142 c 256
 98 161 91 183 91 208 c 256
 91 231 100 250 118 267 c 256
 137 284 159 292 186 292 c 256
 213 292 235 283 254 267 c 256
 274 250 284 231 284 208 c 256
775 361 m 258
 802 361 827 352 850 333 c 256
 873 314 884 294 884 273 c 257
 871 289 855 301 837 310 c 257
 818 317 799 321 778 321 c 256
 736 321 704 308 679 283 c 256
 653 257 640 223 640 178 c 256
 640 138 653 105 679 80 c 256
 708 54 743 41 786 41 c 256
 831 41 864 59 890 92 c 256
 916 126 930 173 930 236 c 256
 930 292 916 339 889 377 c 256
 858 420 814 441 758 441 c 258
 415 441 l 258
 401 441 391 438 384 431 c 256
 375 424 371 413 371 398 c 256
 371 385 376 375 387 368 c 257
 395 361 406 358 419 358 c 256
 448 358 474 350 496 330 c 256
 522 308 534 280 534 247 c 256
 534 214 530 187 519 165 c 256
 504 134 478 118 445 118 c 256
 400 118 365 150 344 215 c 256
 336 238 332 253 327 262 c 256
 314 283 298 300 278 314 c 256
 253 331 226 340 196 340 c 256
 141 340 98 324 68 292 c 256
 37 259 21 217 21 165 c 256
 21 118 37 79 69 47 c 256
 100 15 138 -1 182 -1 c 256
 213 -1 242 8 268 26 c 256
 290 42 305 59 313 77 c 257
 316 59 327 42 344 27 c 256
 364 9 388 0 415 0 c 256
 480 0 526 23 554 70 c 256
 574 104 584 149 584 206 c 256
 584 266 571 318 544 361 c 257
 775 361 l 258
192 441 m 256
 173 441 155 460 139 498 c 256
 122 539 102 559 79 559 c 256
 64 559 53 556 44 549 c 256
 31 538 24 523 24 502 c 256
 24 473 45 446 86 421 c 256
 124 399 159 388 192 388 c 256
 219 388 269 420 341 484 c 258
 374 513 l 257
 404 535 l 258
 444 564 462 592 462 616 c 256
 462 633 456 646 445 656 c 256
 434 667 420 673 404 673 c 256
 389 673 378 671 369 666 c 256
 359 659 349 646 338 626 c 258
 318 590 l 258
 264 492 224 441 192 441 c 256
EndSplineSet
PickledDataWithLists: "(dp1
S'com.adobe.type.autohint'
p2
(S'data'
S'<data>\\n  <hintSetList>\\n    <hintset pointTag=\"hr00\">\\n      <hstem pos=\"-1\" width=\"109\"/>\\n      <hstem pos=\"0\" width=\"118\"/>\\n      <hstem pos=\"41\" width=\"93\"/>\\n      <hstem pos=\"279\" width=\"42\"/>\\n      <hstem pos=\"292\" width=\"48\"/>\\n      <hstem pos=\"361\" width=\"80\"/>\\n      <hstem pos=\"388\" width=\"53\"/>\\n      <vstem pos=\"21\" width=\"70\"/>\\n      <vstem pos=\"534\" width=\"50\"/>\\n      <vstem pos=\"640\" width=\"67\"/>\\n      <vstem pos=\"864\" width=\"66\"/>\\n    </hintset>\\n  </hintSetList>\\n  </data>'
Ntp3
s."
EndChar

StartChar: uni0C3D
Encoding: 172 3133 172
GlifName: uni0C3D_
Width: 655
VWidth: 0
Flags: W
LayerCount: 2
Back
Fore
SplineSet
197 366 m 256
NamedP: "hr00"
 197 351 191 338 180 327 c 256
 169 316 155 310 140 310 c 256
 125 310 113 316 102 327 c 256
 91 338 86 351 86 366 c 256
 86 381 91 394 102 405 c 257
 111 416 124 422 140 422 c 256
 157 422 170 416 180 405 c 256
 191 394 197 381 197 366 c 256
NamedP: "hr00"
21 114 m 256
 22 79 36 51 61 27 c 256
 87 3 116 -11 152 -11 c 258
 584 -11 l 257
 595 -8 604 -4 610 3 c 257
 617 8 620 16 620 26 c 256
 620 36 616 45 608 53 c 256
 601 60 592 64 581 64 c 258
 159 64 l 258
 134 64 114 71 99 80 c 256
 83 89 75 101 75 114 c 256
 76 132 82 146 95 158 c 256
 106 169 122 174 142 175 c 256
 196 176 241 189 277 212 c 256
 314 237 332 268 332 304 c 256
 332 349 317 387 284 417 c 256
 250 448 208 462 162 462 c 256
 125 462 94 451 69 428 c 256
 44 406 31 379 31 347 c 256
 31 324 41 305 61 289 c 256
 81 272 105 263 132 263 c 256
 163 263 187 274 206 293 c 256
 226 314 237 337 237 366 c 257
 231 398 l 257
 248 387 262 373 271 357 c 257
 281 343 286 327 286 310 c 256
 286 287 274 266 246 250 c 256
 219 234 185 228 146 228 c 256
 112 228 83 216 58 193 c 257
 33 174 21 147 21 114 c 256
EndSplineSet
PickledDataWithLists: "(dp1
S'com.adobe.type.autohint'
p2
(S'data'
S'<data>\\n  <hintSetList>\\n    <hintset pointTag=\"hr00\">\\n      <hstem pos=\"-11\" width=\"75\"/>\\n      <hstem pos=\"175\" width=\"53\"/>\\n      <hstem pos=\"263\" width=\"47\"/>\\n      <hstem pos=\"422\" width=\"40\"/>\\n      <vstem pos=\"21\" width=\"54\"/>\\n      <vstem pos=\"31\" width=\"55\"/>\\n      <vstem pos=\"197\" width=\"40\"/>\\n      <vstem pos=\"286\" width=\"46\"/>\\n    </hintset>\\n  </hintSetList>\\n  </data>'
Ntp3
s."
EndChar

StartChar: uni0C3E
Encoding: 173 3134 173
GlifName: uni0C3E_
Width: 658
VWidth: 0
Flags: W
LayerCount: 2
Back
Fore
SplineSet
487 306 m 256
NamedP: "hr00"
 509 306 527 299 542 286 c 256
 557 273 564 258 564 240 c 256
 564 212 555 192 537 178 c 256
 524 168 507 161 487 161 c 256
 462 161 443 169 429 181 c 256
 414 194 407 212 407 238 c 256
 407 257 414 272 429 284 c 257
 444 299 463 306 487 306 c 256
NamedP: "hr00"
340 206 m 256
 340 165 353 133 380 108 c 256
 408 81 444 68 487 68 c 256
 532 68 566 85 591 119 c 256
 616 152 629 200 629 263 c 256
 629 319 616 366 589 404 c 256
 558 447 514 468 459 468 c 258
 -79 468 l 258
 -92 468 -103 464 -112 455 c 257
 -121 448 -126 439 -126 428 c 256
 -126 417 -121 407 -112 400 c 256
 -103 392 -92 388 -79 388 c 258
 474 388 l 258
 503 388 528 379 551 360 c 256
 574 341 585 321 585 300 c 257
 571 317 555 329 537 336 c 256
 519 344 499 348 477 348 c 256
 436 348 404 335 379 310 c 256
 353 285 340 250 340 206 c 256
EndSplineSet
PickledDataWithLists: "(dp1
S'com.adobe.type.autohint'
p2
(S'data'
S'<data>\\n  <hintSetList>\\n    <hintset pointTag=\"hr00\">\\n      <hstem pos=\"68\" width=\"93\"/>\\n      <hstem pos=\"306\" width=\"42\"/>\\n      <hstem pos=\"388\" width=\"80\"/>\\n      <vstem pos=\"340\" width=\"67\"/>\\n      <vstem pos=\"564\" width=\"65\"/>\\n    </hintset>\\n  </hintSetList>\\n  </data>'
Ntp3
s."
EndChar

StartChar: uni0C3F
Encoding: 174 3135 174
GlifName: uni0C3F_
Width: 0
VWidth: 0
Flags: W
LayerCount: 2
Back
Fore
SplineSet
-35 570 m 256
NamedP: "hr00"
 -35 581 -30 591 -19 599 c 256
 -8 608 5 612 19 612 c 256
 37 612 51 608 62 599 c 256
 70 592 74 583 74 570 c 256
 74 559 69 550 59 543 c 256
 48 534 34 530 19 530 c 256
 5 530 -8 534 -19 543 c 257
 -30 550 -35 559 -35 570 c 256
NamedP: "hr00"
-129 559 m 256
 -129 534 -115 515 -86 501 c 256
 -63 490 -36 484 -5 484 c 256
 26 484 54 490 77 503 c 256
 105 520 119 543 119 570 c 256
 119 577 118 582 117 586 c 257
 126 579 133 570 136 559 c 257
 139 552 140 542 140 530 c 256
 140 506 124 483 93 465 c 256
 64 448 34 441 3 441 c 256
 -34 441 -61 446 -79 455 c 257
 -90 462 -100 465 -110 465 c 256
 -118 465 -124 463 -129 458 c 256
 -134 453 -136 448 -136 441 c 256
 -136 428 -123 417 -96 407 c 256
 -69 396 -37 389 2 388 c 256
 57 387 102 401 138 428 c 256
 173 455 191 486 190 521 c 256
 189 562 173 597 143 622 c 256
 115 646 75 656 28 656 c 256
 -18 656 -54 649 -81 636 c 256
 -113 620 -129 594 -129 559 c 256
EndSplineSet
PickledDataWithLists: "(dp1
S'com.adobe.type.autohint'
p2
(S'data'
S'<data>\\n  <hintSetList>\\n    <hintset pointTag=\"hr00\">\\n      <hstem pos=\"388\" width=\"53\"/>\\n      <hstem pos=\"484\" width=\"46\"/>\\n      <hstem pos=\"612\" width=\"44\"/>\\n      <vstem pos=\"-129\" width=\"94\"/>\\n      <vstem pos=\"74\" width=\"45\"/>\\n      <vstem pos=\"140\" width=\"50\"/>\\n    </hintset>\\n  </hintSetList>\\n  </data>'
Ntp3
s."
EndChar

StartChar: uni0C40
Encoding: 175 3136 175
GlifName: uni0C40_
Width: 0
VWidth: 0
Flags: W
LayerCount: 2
Back
Fore
SplineSet
-35 565 m 256
NamedP: "hr00"
 -35 576 -30 586 -19 593 c 256
 -8 600 5 604 19 604 c 256
 37 604 51 600 62 593 c 257
 70 586 74 577 74 565 c 256
 74 554 69 544 59 536 c 256
 48 527 34 523 19 523 c 256
 5 523 -8 527 -19 536 c 256
 -30 544 -35 554 -35 565 c 256
NamedP: "hr00"
-129 553 m 256
 -129 528 -115 508 -86 494 c 256
 -63 482 -36 476 -5 476 c 256
 26 476 54 483 77 498 c 256
 105 515 119 537 119 565 c 256
 119 570 118 575 117 579 c 257
 126 572 133 564 136 553 c 256
 139 544 140 534 140 523 c 256
 140 498 124 477 93 461 c 256
 66 448 36 441 3 441 c 256
 -34 441 -61 444 -79 451 c 256
 -90 456 -100 458 -110 458 c 256
 -119 458 -125 457 -129 455 c 256
 -134 452 -136 448 -136 441 c 256
 -136 428 -123 417 -96 407 c 256
 -69 396 -37 389 2 388 c 256
 57 387 102 400 138 425 c 256
 173 449 190 478 190 513 c 256
 190 550 179 580 156 603 c 256
 135 625 106 639 70 646 c 257
 67 649 65 652 63 656 c 256
 62 659 62 663 62 668 c 256
 62 685 68 698 79 707 c 256
 90 716 104 720 119 720 c 256
 142 720 160 716 173 707 c 256
 186 698 193 684 193 663 c 256
 193 652 191 643 187 636 c 257
 208 631 l 257
 219 643 227 654 232 663 c 257
 236 673 238 684 238 697 c 256
 238 726 229 749 210 768 c 256
 188 789 158 799 120 799 c 256
 84 799 57 789 35 771 c 256
 14 753 3 731 3 703 c 256
 3 695 5 686 9 677 c 256
 13 668 18 659 23 650 c 257
 -22 649 -57 642 -82 629 c 256
 -113 612 -129 586 -129 553 c 256
EndSplineSet
PickledDataWithLists: "(dp1
S'com.adobe.type.autohint'
p2
(S'data'
S'<data>\\n  <hintSetList>\\n    <hintset pointTag=\"hr00\">\\n      <hstem pos=\"388\" width=\"53\"/>\\n      <hstem pos=\"476\" width=\"47\"/>\\n      <hstem pos=\"604\" width=\"46\"/>\\n      <hstem pos=\"720\" width=\"79\"/>\\n      <vstem pos=\"-129\" width=\"94\"/>\\n      <vstem pos=\"3\" width=\"59\"/>\\n      <vstem pos=\"74\" width=\"45\"/>\\n      <vstem pos=\"140\" width=\"50\"/>\\n      <vstem pos=\"193\" width=\"45\"/>\\n    </hintset>\\n  </hintSetList>\\n  </data>'
Ntp3
s."
EndChar

StartChar: uni0C41
Encoding: 176 3137 176
GlifName: uni0C41_
Width: 264
VWidth: 0
Flags: W
LayerCount: 2
Back
Fore
SplineSet
7 407 m 256
NamedP: "hr00"
 7 394 10 386 17 381 c 256
 25 376 40 373 63 373 c 256
 98 373 126 361 149 336 c 256
 171 311 182 282 182 247 c 256
 182 216 170 188 149 159 c 256
 125 126 94 108 54 108 c 256
 24 108 -2 117 -23 135 c 256
 -44 154 -55 176 -55 201 c 257
 -71 135 l 257
 -71 94 -61 62 -41 37 c 256
 -19 10 13 -3 54 -3 c 256
 117 -3 165 24 196 78 c 256
 219 118 231 168 231 228 c 256
 231 281 214 329 179 373 c 256
 144 418 104 441 57 441 c 256
 42 441 30 438 21 432 c 256
 12 427 7 418 7 407 c 256
NamedP: "hr00"
EndSplineSet
PickledDataWithLists: "(dp1
S'com.adobe.type.autohint'
p2
(S'data'
S'<data>\\n  <hintSetList>\\n    <hintset pointTag=\"hr00\">\\n      <hstem pos=\"-3\" width=\"111\"/>\\n      <hstem pos=\"373\" width=\"68\"/>\\n      <vstem pos=\"182\" width=\"49\"/>\\n    </hintset>\\n  </hintSetList>\\n  </data>'
Ntp3
s."
EndChar

StartChar: uni0C42
Encoding: 177 3138 177
GlifName: uni0C42_
Width: 594
VWidth: 0
Flags: W
LayerCount: 2
Back
Fore
SplineSet
417 279 m 256
NamedP: "hr00"
 438 279 457 272 472 259 c 256
 487 246 494 231 494 212 c 256
 494 185 485 164 467 151 c 256
 452 140 436 134 417 134 c 256
 392 134 373 140 360 152 c 256
 345 165 337 185 337 210 c 256
 337 229 344 244 357 257 c 256
 373 272 393 279 417 279 c 256
NamedP: "hr00"
560 236 m 256
 560 292 546 339 518 377 c 256
 487 420 444 441 387 441 c 258
 60 441 l 258
 45 441 33 438 24 432 c 256
 15 427 10 418 10 407 c 256
 10 394 13 386 20 381 c 256
 27 376 42 373 65 373 c 256
 100 373 129 361 152 336 c 256
 174 311 185 282 185 247 c 256
 185 216 175 187 154 159 c 256
 129 125 97 108 57 108 c 256
 26 108 1 115 -20 128 c 256
 -42 141 -53 157 -53 175 c 257
 -81 129 l 257
 -81 90 -70 58 -45 33 c 256
 -20 8 14 -3 57 -3 c 256
 122 -3 169 24 199 78 c 256
 222 118 233 168 233 228 c 256
 233 274 219 318 191 361 c 257
 404 361 l 258
 431 361 457 352 481 333 c 256
 504 314 515 294 515 273 c 257
 501 289 485 301 467 310 c 257
 449 317 429 321 407 321 c 256
 365 321 333 307 309 283 c 256
 284 257 270 223 270 178 c 256
 270 138 283 105 310 80 c 256
 337 54 373 41 417 41 c 256
 462 41 495 58 521 92 c 256
 546 125 560 173 560 236 c 256
EndSplineSet
PickledDataWithLists: "(dp1
S'com.adobe.type.autohint'
p2
(S'data'
S'<data>\\n  <hintSetList>\\n    <hintset pointTag=\"hr00\">\\n      <hstem pos=\"-3\" width=\"111\"/>\\n      <hstem pos=\"41\" width=\"93\"/>\\n      <hstem pos=\"279\" width=\"42\"/>\\n      <hstem pos=\"361\" width=\"80\"/>\\n      <vstem pos=\"-81\" width=\"28\"/>\\n      <vstem pos=\"185\" width=\"48\"/>\\n      <vstem pos=\"270\" width=\"67\"/>\\n      <vstem pos=\"494\" width=\"66\"/>\\n    </hintset>\\n  </hintSetList>\\n  </data>'
Ntp3
s."
EndChar

StartChar: uni0C43
Encoding: 178 3139 178
GlifName: uni0C43_
Width: 203
VWidth: 0
Flags: W
LayerCount: 2
Back
Fore
SplineSet
0 -85 m 256
NamedP: "hr00"
 0 -105 -22 -121 -35 -121 c 256
 -40 -121 -47 -118 -56 -111 c 256
 -67 -104 -72 -96 -72 -87 c 256
 -72 -70 -53 -54 -37 -54 c 256
 -12 -54 0 -64 0 -85 c 256
NamedP: "hr00"
204 -24 m 256
 204 63 177 137 123 198 c 256
 103 221 58 245 31 245 c 257
 23 246 16 244 9 239 c 257
 -6 218 -2 202 19 189 c 257
 49 183 l 257
 65 179 l 258
 92 172 115 150 133 114 c 256
 150 80 159 43 159 3 c 256
 159 -41 144 -87 115 -134 c 257
 82 -175 41 -194 -8 -193 c 256
 -27 -193 -46 -189 -66 -179 c 256
 -75 -175 -83 -167 -91 -158 c 257
 -102 -135 -106 -119 -103 -110 c 257
 -87 -153 -59 -171 -19 -164 c 256
 0 -160 18 -151 35 -139 c 256
 56 -124 66 -107 66 -84 c 256
 66 -68 59 -53 46 -38 c 256
 30 -20 9 -11 -18 -11 c 256
 -55 -11 -84 -25 -107 -54 c 256
 -127 -81 -137 -112 -137 -148 c 256
 -137 -191 -126 -226 -103 -253 c 256
 -77 -282 -40 -297 8 -297 c 256
 86 -297 141 -260 174 -186 c 256
 194 -141 204 -87 204 -24 c 256
EndSplineSet
PickledDataWithLists: "(dp1
S'com.adobe.type.autohint'
p2
(S'data'
S'<data>\\n  <hintSetList>\\n    <hintset pointTag=\"hr00\">\\n      <hstem pos=\"-297\" width=\"104\"/>\\n      <hstem pos=\"-54\" width=\"43\"/>\\n      <hstem pos=\"186\" width=\"59\"/>\\n      <vstem pos=\"-137\" width=\"34\"/>\\n      <vstem pos=\"0\" width=\"66\"/>\\n      <vstem pos=\"159\" width=\"45\"/>\\n    </hintset>\\n  </hintSetList>\\n  </data>'
Ntp3
s."
EndChar

StartChar: uni0C44
Encoding: 179 3140 179
GlifName: uni0C44_
Width: 494
VWidth: 0
Flags: W
LayerCount: 2
Back
Fore
SplineSet
70 188 m 257
NamedP: "hr00"
 86 184 103 173 120 156 c 256
 152 125 173 84 182 31 c 256
 193 -32 190 -84 174 -125 c 256
 156 -174 120 -202 66 -212 c 256
 41 -216 20 -215 2 -206 c 257
 -17 -192 -28 -174 -31 -152 c 257
 -26 -165 -18 -175 -5 -183 c 256
 10 -192 27 -195 46 -192 c 256
 68 -188 84 -178 94 -162 c 256
 105 -146 108 -125 103 -98 c 256
 99 -76 88 -60 71 -47 c 256
 54 -34 35 -26 12 -30 c 256
 -21 -36 -45 -57 -58 -90 c 256
 -69 -116 -71 -148 -65 -185 c 256
 -61 -208 -49 -233 -25 -259 c 257
 8 -288 47 -298 91 -290 c 256
 162 -278 204 -232 221 -152 c 256
 231 -103 232 -47 221 16 c 256
 210 80 186 137 150 186 c 257
 150 187 149 188 148 188 c 257
 352 188 l 258
 375 188 397 180 417 165 c 256
 436 151 446 135 446 118 c 257
 434 131 422 140 410 146 c 257
 397 151 383 154 366 154 c 256
 333 154 307 144 288 124 c 256
 268 104 258 76 258 41 c 256
 258 10 268 -17 289 -37 c 256
 311 -58 339 -67 373 -67 c 256
 408 -67 436 -54 455 -27 c 256
 475 0 485 38 485 88 c 256
 485 133 473 171 450 202 c 256
 423 238 386 256 337 256 c 258
 56 256 l 257
 29 256 l 257
 18 254 10 251 6 246 c 256
 1 241 -2 230 0 215 c 256
 1 202 8 194 19 191 c 256
 24 189 29 188 35 188 c 258
 70 188 l 257
NamedP: "hr00"
35 -75 m 257
 43 -80 49 -87 52 -98 c 257
 53 -107 52 -114 47 -121 c 257
 44 -130 36 -135 25 -138 c 256
 14 -140 5 -138 -2 -132 c 256
 -9 -127 -13 -120 -15 -111 c 256
 -17 -102 -16 -93 -11 -85 c 256
 -6 -78 1 -74 10 -73 c 257
 18 -71 26 -72 35 -75 c 257
330 101 m 257
 341 110 355 115 370 115 c 256
 386 115 399 110 410 101 c 256
 421 92 426 81 426 68 c 256
 426 48 420 33 407 24 c 256
 396 15 384 11 370 11 c 256
 353 11 340 15 330 24 c 256
 320 33 315 48 315 67 c 256
 315 79 320 90 330 101 c 257
EndSplineSet
PickledDataWithLists: "(dp1
S'com.adobe.type.autohint'
p2
(S'data'
S'<data>\\n  <hintSetList>\\n    <hintset pointTag=\"hr00\">\\n      <hstem pos=\"-293\" width=\"81\"/>\\n      <hstem pos=\"-192\" width=\"54\"/>\\n      <hstem pos=\"-75\" width=\"45\"/>\\n      <hstem pos=\"-67\" width=\"78\"/>\\n      <hstem pos=\"115\" width=\"39\"/>\\n      <hstem pos=\"188\" width=\"68\"/>\\n      <vstem pos=\"-68\" width=\"53\"/>\\n      <vstem pos=\"52\" width=\"51\"/>\\n      <vstem pos=\"188\" width=\"41\"/>\\n      <vstem pos=\"258\" width=\"57\"/>\\n      <vstem pos=\"426\" width=\"59\"/>\\n    </hintset>\\n  </hintSetList>\\n  </data>'
Ntp3
s."
EndChar

StartChar: uni0C46
Encoding: 180 3142 180
GlifName: uni0C46_
Width: 0
VWidth: 0
Flags: W
LayerCount: 2
Back
Fore
SplineSet
232 521 m 256
NamedP: "hr00"
 232 558 220 587 195 606 c 256
 177 621 154 629 127 629 c 258
 -170 629 l 258
 -192 629 -208 625 -217 616 c 257
 -226 609 -230 598 -230 583 c 256
 -230 568 -226 557 -217 552 c 257
 -208 544 -192 540 -170 540 c 258
 128 540 l 258
 141 540 151 536 160 529 c 257
 168 520 172 511 172 501 c 256
 172 484 168 469 160 457 c 257
 150 446 139 441 127 441 c 258
 -79 441 l 258
 -87 441 -93 439 -98 435 c 256
 -103 430 -105 424 -105 415 c 256
 -105 405 -103 398 -98 394 c 256
 -94 390 -88 388 -79 388 c 258
 108 388 l 258
 143 388 171 402 195 428 c 256
 219 454 232 484 232 521 c 256
NamedP: "hr00"
EndSplineSet
PickledDataWithLists: "(dp1
S'com.adobe.type.autohint'
p2
(S'data'
S'<data>\\n  <hintSetList>\\n    <hintset pointTag=\"hr00\">\\n      <hstem pos=\"388\" width=\"53\"/>\\n      <hstem pos=\"540\" width=\"89\"/>\\n      <vstem pos=\"172\" width=\"60\"/>\\n    </hintset>\\n  </hintSetList>\\n  </data>'
Ntp3
s."
EndChar

StartChar: uni0C47
Encoding: 181 3143 181
GlifName: uni0C47_
Width: 0
VWidth: 0
Flags: W
LayerCount: 2
Back
Fore
SplineSet
226 735 m 256
NamedP: "hr00"
 226 755 215 775 196 795 c 256
 176 816 154 826 128 826 c 256
 61 826 27 784 27 724 c 256
 27 684 43 650 74 622 c 257
 -202 622 l 258
 -219 622 -228 605 -228 586 c 256
 -228 568 -218 559 -197 559 c 258
 108 559 l 258
 140 559 166 531 166 498 c 256
 166 462 137 441 105 441 c 258
 -25 441 l 258
 -37 441 -43 434 -43 420 c 256
 -43 408 -33 400 -22 400 c 258
 103 400 l 258
 164 400 214 442 214 509 c 256
 214 562 171 614 115 622 c 257
 86 661 l 257
 76 679 71 697 71 714 c 256
 71 754 90 777 126 777 c 256
 151 777 169 759 169 724 c 257
 174 711 183 705 196 705 c 256
 213 705 226 716 226 735 c 256
NamedP: "hr00"
EndSplineSet
PickledDataWithLists: "(dp1
S'com.adobe.type.autohint'
p2
(S'data'
S'<data>\\n  <hintSetList>\\n    <hintset pointTag=\"hr00\">\\n      <hstem pos=\"400\" width=\"41\"/>\\n      <hstem pos=\"559\" width=\"63\"/>\\n      <hstem pos=\"777\" width=\"49\"/>\\n      <vstem pos=\"27\" width=\"44\"/>\\n      <vstem pos=\"166\" width=\"48\"/>\\n      <vstem pos=\"169\" width=\"57\"/>\\n    </hintset>\\n  </hintSetList>\\n  </data>'
Ntp3
s."
EndChar

StartChar: uni0C48
Encoding: 182 3144 182
GlifName: uni0C48_
Width: 679
VWidth: 0
Flags: W
LayerCount: 2
Back
Fore
SplineSet
573 494 m 256
NamedP: "hr00"
 573 533 561 561 536 580 c 256
 517 595 495 602 468 602 c 258
 202 602 l 258
 180 602 165 598 156 590 c 256
 148 583 144 573 144 558 c 256
 144 543 148 532 156 526 c 256
 165 519 180 515 202 515 c 258
 469 515 l 258
 480 515 490 512 499 506 c 257
 508 498 513 487 513 474 c 256
 513 463 509 455 501 449 c 257
 492 444 481 441 468 441 c 258
 262 441 l 258
 254 441 247 439 242 435 c 256
 237 430 235 424 235 415 c 256
 235 405 237 398 242 394 c 256
 247 390 253 388 262 388 c 258
 449 388 l 258
 480 388 507 394 528 407 c 256
 558 425 573 454 573 494 c 256
NamedP: "hr00"
108 -145 m 256
 108 -136 111 -128 117 -122 c 256
 124 -115 133 -111 144 -111 c 256
 152 -111 160 -114 168 -121 c 256
 173 -126 176 -134 176 -145 c 256
 176 -154 173 -162 166 -169 c 256
 159 -175 152 -178 144 -178 c 256
 133 -178 124 -175 118 -169 c 257
 111 -164 108 -156 108 -145 c 256
64 -158 m 256
 64 -187 75 -211 97 -228 c 256
 120 -246 151 -253 189 -253 c 258
 562 -253 l 258
 577 -253 588 -251 594 -246 c 256
 601 -241 604 -232 604 -220 c 256
 604 -208 601 -200 594 -195 c 256
 588 -190 576 -188 558 -188 c 258
 225 -188 l 257
 232 -185 237 -178 240 -168 c 256
 243 -160 245 -153 245 -146 c 256
 245 -123 237 -105 222 -92 c 256
 207 -79 186 -73 159 -73 c 256
 129 -73 105 -81 87 -98 c 256
 72 -113 64 -133 64 -158 c 256
EndSplineSet
PickledDataWithLists: "(dp1
S'com.adobe.type.autohint'
p2
(S'data'
S'<data>\\n  <hintSetList>\\n    <hintset pointTag=\"hr00\">\\n      <hstem pos=\"-253\" width=\"65\"/>\\n      <hstem pos=\"-111\" width=\"38\"/>\\n      <hstem pos=\"388\" width=\"53\"/>\\n      <hstem pos=\"515\" width=\"87\"/>\\n      <vstem pos=\"64\" width=\"44\"/>\\n      <vstem pos=\"176\" width=\"69\"/>\\n      <vstem pos=\"513\" width=\"60\"/>\\n    </hintset>\\n  </hintSetList>\\n  </data>'
Ntp3
s."
EndChar

StartChar: uni0C4A
Encoding: 183 3146 183
GlifName: uni0C4A_
Width: 658
VWidth: 0
Flags: W
LayerCount: 2
Back
Fore
SplineSet
487 388 m 256
NamedP: "hr00"
 510 388 528 380 542 368 c 256
 557 355 564 341 564 323 c 256
 564 294 555 274 537 260 c 256
 524 250 507 243 487 243 c 256
 462 243 443 250 429 263 c 256
 414 276 407 296 407 321 c 256
 407 339 414 355 429 368 c 256
 444 381 463 388 487 388 c 256
NamedP: "hr00"
340 289 m 256
 340 248 353 217 380 191 c 256
 408 165 443 151 487 151 c 256
 532 151 565 168 591 202 c 256
 617 236 631 284 631 346 c 256
 631 409 615 461 584 501 c 256
 551 544 506 565 450 565 c 256
 423 565 399 556 373 540 c 256
 349 525 330 508 319 485 c 257
 307 518 293 543 276 559 c 257
 251 588 219 602 178 602 c 258
 -96 602 l 258
 -131 602 -159 591 -180 570 c 256
 -200 550 -210 525 -210 494 c 256
 -210 468 -200 444 -180 422 c 256
 -160 399 -138 388 -115 388 c 258
 32 388 l 257
 32 441 l 257
 -89 441 l 258
 -106 441 -119 446 -128 455 c 257
 -133 462 -136 471 -136 481 c 256
 -136 490 -133 498 -128 505 c 257
 -121 512 -114 515 -105 515 c 258
 178 515 l 258
 213 515 242 505 264 484 c 256
 285 464 296 441 296 415 c 256
 296 408 298 403 301 398 c 256
 304 391 309 388 316 388 c 256
 325 388 331 391 335 398 c 256
 338 403 340 408 340 415 c 257
 342 432 353 448 373 458 c 256
 396 470 425 475 461 475 c 256
 496 475 526 466 551 448 c 256
 574 430 585 410 585 388 c 257
 571 405 555 419 537 428 c 256
 519 437 499 441 478 441 c 256
 437 441 405 427 379 398 c 256
 354 370 340 334 340 289 c 256
EndSplineSet
PickledDataWithLists: "(dp1
S'com.adobe.type.autohint'
p2
(S'data'
S'<data>\\n  <hintSetList>\\n    <hintset pointTag=\"hr00\">\\n      <hstem pos=\"151\" width=\"92\"/>\\n      <hstem pos=\"388\" width=\"53\"/>\\n      <hstem pos=\"475\" width=\"90\"/>\\n      <hstem pos=\"515\" width=\"87\"/>\\n      <vstem pos=\"-210\" width=\"74\"/>\\n      <vstem pos=\"296\" width=\"44\"/>\\n      <vstem pos=\"340\" width=\"67\"/>\\n      <vstem pos=\"564\" width=\"67\"/>\\n    </hintset>\\n  </hintSetList>\\n  </data>'
Ntp3
s."
EndChar

StartChar: uni0C4B
Encoding: 184 3147 184
GlifName: uni0C4B_
Width: 661
VWidth: 0
Flags: W
LayerCount: 2
Back
Fore
SplineSet
486 388 m 256
NamedP: "hr00"
 509 388 527 380 541 368 c 256
 556 355 564 341 564 323 c 256
 564 294 555 273 537 260 c 256
 522 249 505 243 486 243 c 256
 462 243 443 250 429 263 c 256
 414 276 407 296 407 321 c 256
 407 339 414 355 427 368 c 257
 443 381 463 388 486 388 c 256
NamedP: "hr00"
339 289 m 256
 339 248 352 216 379 191 c 256
 408 164 443 151 486 151 c 256
 531 151 566 168 591 202 c 256
 616 236 629 284 629 346 c 256
 629 401 617 447 592 485 c 256
 563 528 522 552 469 556 c 257
 465 560 462 566 459 573 c 256
 456 579 454 586 454 594 c 256
 454 615 460 631 471 641 c 256
 482 651 495 656 511 656 c 256
 535 656 553 652 565 643 c 257
 580 634 587 620 587 599 c 256
 587 588 584 580 579 573 c 257
 601 569 l 257
 611 580 619 590 624 599 c 256
 629 610 631 622 631 633 c 256
 631 662 621 685 602 704 c 256
 580 725 551 735 514 735 c 256
 477 735 448 726 427 708 c 256
 406 690 396 667 396 639 c 256
 396 624 397 610 400 599 c 256
 405 582 413 566 424 553 c 257
 399 550 377 542 360 529 c 257
 342 518 328 504 319 485 c 257
 306 518 292 543 277 559 c 256
 251 588 218 602 178 602 c 258
 -103 602 l 258
 -138 602 -166 591 -187 570 c 256
 -207 550 -217 526 -217 498 c 256
 -217 471 -207 446 -187 424 c 256
 -167 400 -145 388 -122 388 c 258
 45 388 l 257
 45 441 l 257
 -96 441 l 258
 -113 441 -126 446 -135 455 c 257
 -140 462 -143 471 -143 481 c 256
 -143 490 -140 498 -135 505 c 257
 -128 512 -121 515 -112 515 c 258
 178 515 l 258
 213 515 241 505 264 484 c 256
 285 464 296 441 296 415 c 256
 296 408 297 403 299 398 c 256
 303 391 309 388 316 388 c 256
 324 388 330 391 335 398 c 256
 338 403 339 408 339 415 c 257
 341 432 352 447 373 458 c 256
 396 469 425 475 461 475 c 256
 496 475 527 467 551 448 c 256
 574 431 584 410 584 388 c 257
 569 405 554 419 537 428 c 256
 519 437 499 441 477 441 c 256
 436 441 405 426 379 398 c 256
 353 369 339 334 339 289 c 256
EndSplineSet
PickledDataWithLists: "(dp1
S'com.adobe.type.autohint'
p2
(S'data'
S'<data>\\n  <hintSetList>\\n    <hintset pointTag=\"hr00\">\\n      <hstem pos=\"151\" width=\"92\"/>\\n      <hstem pos=\"388\" width=\"53\"/>\\n      <hstem pos=\"475\" width=\"78\"/>\\n      <hstem pos=\"515\" width=\"87\"/>\\n      <hstem pos=\"656\" width=\"79\"/>\\n      <vstem pos=\"-217\" width=\"74\"/>\\n      <vstem pos=\"296\" width=\"43\"/>\\n      <vstem pos=\"339\" width=\"68\"/>\\n      <vstem pos=\"396\" width=\"58\"/>\\n      <vstem pos=\"564\" width=\"65\"/>\\n      <vstem pos=\"587\" width=\"44\"/>\\n    </hintset>\\n  </hintSetList>\\n  </data>'
Ntp3
s."
EndChar

StartChar: uni0C4C
Encoding: 185 3148 185
GlifName: uni0C4C_
Width: 658
VWidth: 0
Flags: W
LayerCount: 2
Back
Fore
SplineSet
486 415 m 256
NamedP: "hr00"
 509 415 527 407 541 395 c 256
 556 382 564 368 564 350 c 256
 564 323 555 302 537 287 c 256
 522 275 505 270 486 270 c 256
 462 270 443 277 429 290 c 256
 414 303 407 323 407 348 c 256
 407 366 414 382 429 395 c 256
 444 408 463 415 486 415 c 256
NamedP: "hr00"
340 316 m 256
 340 275 353 243 380 218 c 256
 408 191 443 178 486 178 c 256
 531 178 566 195 591 229 c 256
 616 263 629 311 629 373 c 256
 629 430 616 477 589 516 c 256
 559 561 515 583 458 583 c 258
 -153 583 l 258
 -169 583 -180 582 -186 579 c 256
 -195 573 -200 563 -200 548 c 256
 -200 528 -195 515 -186 509 c 256
 -180 505 -169 503 -153 503 c 258
 100 503 l 258
 107 503 112 500 117 494 c 257
 121 487 123 479 123 468 c 256
 123 459 120 452 114 447 c 256
 109 443 102 441 93 441 c 258
 -102 441 l 258
 -109 441 -115 439 -120 434 c 257
 -126 430 -129 423 -129 414 c 256
 -129 405 -126 399 -120 395 c 257
 -115 390 -110 388 -103 388 c 258
 121 388 l 258
 144 388 162 394 173 405 c 256
 186 417 193 434 193 457 c 256
 193 464 191 472 188 481 c 257
 186 492 182 500 175 503 c 257
 456 503 l 258
 495 503 527 493 552 472 c 256
 573 454 584 434 584 411 c 257
 571 427 555 439 537 447 c 256
 519 454 499 458 477 458 c 256
 436 458 404 446 379 421 c 256
 353 396 340 361 340 316 c 256
EndSplineSet
PickledDataWithLists: "(dp1
S'com.adobe.type.autohint'
p2
(S'data'
S'<data>\\n  <hintSetList>\\n    <hintset pointTag=\"hr00\">\\n      <hstem pos=\"178\" width=\"92\"/>\\n      <hstem pos=\"388\" width=\"53\"/>\\n      <hstem pos=\"415\" width=\"43\"/>\\n      <hstem pos=\"503\" width=\"80\"/>\\n      <vstem pos=\"123\" width=\"70\"/>\\n      <vstem pos=\"340\" width=\"67\"/>\\n      <vstem pos=\"564\" width=\"65\"/>\\n    </hintset>\\n  </hintSetList>\\n  </data>'
Ntp3
s."
EndChar

StartChar: uni0C4D
Encoding: 186 3149 186
GlifName: uni0C4D_
Width: 0
VWidth: 0
Flags: W
LayerCount: 2
Back
Fore
SplineSet
298 637 m 256
NamedP: "hr00"
 298 650 295 659 288 666 c 257
 281 671 271 674 258 674 c 258
 -43 674 l 258
 -71 674 -94 665 -113 646 c 256
 -131 629 -140 609 -140 587 c 256
 -140 570 -137 554 -130 539 c 256
 -123 522 -115 512 -104 511 c 257
 -113 504 -119 498 -123 492 c 256
 -130 483 -133 473 -133 462 c 256
 -133 439 -125 421 -109 407 c 256
 -94 394 -78 388 -60 388 c 258
 62 388 l 258
 69 388 75 390 80 395 c 256
 86 400 89 406 89 414 c 256
 89 421 86 427 80 432 c 257
 75 438 70 441 63 441 c 258
 -35 441 l 258
 -42 441 -47 442 -52 444 c 256
 -59 447 -62 453 -62 462 c 256
 -62 471 -58 479 -50 484 c 256
 -47 485 -41 486 -32 486 c 258
 115 486 l 258
 120 486 126 489 132 496 c 256
 137 502 139 509 139 516 c 256
 139 523 137 529 132 535 c 257
 126 540 120 543 115 543 c 258
 -32 543 l 258
 -41 543 -48 545 -53 549 c 256
 -60 554 -63 560 -63 569 c 256
 -63 576 -60 582 -55 586 c 256
 -50 590 -44 592 -35 592 c 258
 258 592 l 258
 271 592 281 596 288 604 c 256
 295 612 298 623 298 637 c 256
NamedP: "hr00"
EndSplineSet
PickledDataWithLists: "(dp1
S'com.adobe.type.autohint'
p2
(S'data'
S'<data>\\n  <hintSetList>\\n    <hintset pointTag=\"hr00\">\\n      <hstem pos=\"388\" width=\"53\"/>\\n      <hstem pos=\"486\" width=\"57\"/>\\n      <hstem pos=\"592\" width=\"82\"/>\\n      <vstem pos=\"-140\" width=\"438\"/>\\n      <vstem pos=\"-140\" width=\"77\"/>\\n      <vstem pos=\"-133\" width=\"71\"/>\\n    </hintset>\\n  </hintSetList>\\n  </data>'
Ntp3
s."
EndChar

StartChar: uni0C55
Encoding: 187 3157 187
GlifName: uni0C55_
Width: 226
VWidth: 0
Flags: W
LayerCount: 2
Back
Fore
SplineSet
0 705 m 256
NamedP: "hr00"
 0 692 2 678 7 661 c 256
 14 640 23 625 33 616 c 257
 80 616 l 257
 74 619 68 626 63 637 c 256
 57 648 54 658 54 666 c 256
 54 684 60 699 71 710 c 256
 80 719 93 724 108 724 c 256
 129 724 146 718 161 704 c 256
 174 691 181 674 181 654 c 256
 181 644 179 635 176 626 c 257
 198 623 l 257
 207 634 215 644 220 654 c 256
 224 663 226 675 226 688 c 256
 226 717 217 741 198 762 c 256
 176 787 147 799 111 799 c 256
 79 799 52 790 30 771 c 256
 10 753 0 731 0 705 c 256
NamedP: "hr00"
EndSplineSet
PickledDataWithLists: "(dp1
S'com.adobe.type.autohint'
p2
(S'data'
S'<data>\\n  <hintSetList>\\n    <hintset pointTag=\"hr00\">\\n      <hstem pos=\"724\" width=\"75\"/>\\n      <vstem pos=\"0\" width=\"54\"/>\\n      <vstem pos=\"181\" width=\"45\"/>\\n    </hintset>\\n  </hintSetList>\\n  </data>'
Ntp3
s."
EndChar

StartChar: uni0C56
Encoding: 188 3158 188
GlifName: uni0C56_
Width: 17
VWidth: 0
Flags: W
LayerCount: 2
Back
Fore
SplineSet
211 -154 m 256
NamedP: "hr00"
 211 -144 214 -136 220 -131 c 256
 227 -125 234 -122 243 -122 c 256
 252 -122 260 -124 266 -129 c 257
 271 -136 273 -144 273 -154 c 256
 273 -162 270 -170 264 -178 c 256
 259 -183 252 -185 243 -185 c 256
 234 -185 227 -183 221 -178 c 256
 214 -171 211 -163 211 -154 c 256
NamedP: "hr00"
187 -104 m 257
 164 -123 154 -149 159 -185 c 256
 161 -203 174 -222 197 -240 c 256
 221 -259 251 -267 287 -267 c 258
 614 -267 l 258
 630 -267 641 -264 648 -259 c 256
 655 -253 659 -244 659 -232 c 256
 659 -217 655 -207 648 -202 c 256
 641 -197 629 -195 611 -195 c 258
 337 -195 l 257
 336 -195 337 -189 341 -178 c 257
 343 -169 344 -162 344 -155 c 256
 344 -131 337 -112 324 -98 c 257
 308 -84 286 -77 258 -77 c 256
 228 -77 204 -86 187 -104 c 257
EndSplineSet
PickledDataWithLists: "(dp1
S'com.adobe.type.autohint'
p2
(S'data'
S'<data>\\n  <hintSetList>\\n    <hintset pointTag=\"hr00\">\\n      <hstem pos=\"-267\" width=\"72\"/>\\n      <hstem pos=\"-122\" width=\"45\"/>\\n      <vstem pos=\"159\" width=\"52\"/>\\n      <vstem pos=\"273\" width=\"71\"/>\\n    </hintset>\\n  </hintSetList>\\n  </data>'
Ntp3
s."
EndChar

StartChar: uni0C58
Encoding: 189 3160 189
GlifName: uni0C58_
Width: 657
VWidth: 0
Flags: W
LayerCount: 2
Back
Fore
SplineSet
505 485 m 257
NamedP: "hr00"
 532 509 l 257
 561 530 l 258
 601 559 620 588 620 613 c 256
 620 629 615 642 604 653 c 256
 593 663 578 668 561 668 c 256
 548 668 538 666 529 661 c 256
 518 654 507 643 497 623 c 258
 480 590 l 258
 428 490 383 441 351 441 c 256
 332 441 315 459 298 496 c 256
 280 536 260 556 239 556 c 256
 224 556 211 552 202 543 c 257
 189 534 183 519 183 498 c 256
 183 469 204 443 246 420 c 256
 281 400 314 388 345 388 c 258
 414 388 l 258
 458 388 495 374 524 347 c 256
 554 320 569 285 569 243 c 256
 569 202 557 169 532 145 c 256
 511 124 485 114 455 114 c 256
 433 114 414 120 399 132 c 256
 384 145 377 160 377 178 c 256
 377 185 375 192 372 198 c 257
 369 201 364 203 359 203 c 256
 354 203 351 201 348 198 c 256
 345 193 344 187 344 178 c 256
 344 158 333 141 311 128 c 256
 293 117 273 112 250 112 c 256
 219 112 194 120 177 135 c 256
 163 146 156 161 156 178 c 256
 156 197 161 211 172 220 c 257
 184 233 204 240 231 240 c 256
 244 240 254 242 261 247 c 256
 271 254 276 263 276 274 c 256
 276 283 273 290 266 296 c 256
 259 303 249 306 236 306 c 258
 64 306 l 258
 49 306 38 303 32 297 c 257
 25 292 21 282 21 267 c 256
 21 254 24 245 31 240 c 256
 38 235 48 233 61 233 c 258
 132 233 l 257
 119 220 110 204 103 186 c 256
 96 170 92 153 92 135 c 256
 92 98 103 66 129 41 c 256
 157 13 195 0 240 0 c 256
 267 0 290 6 310 17 c 256
 326 26 341 40 355 58 c 257
 366 41 381 27 399 17 c 256
 421 5 444 0 468 0 c 256
 507 0 543 16 573 50 c 256
 606 86 621 135 621 195 c 256
 621 260 606 315 577 360 c 256
 546 408 503 434 449 439 c 257
 505 485 l 257
NamedP: "hr00"
497 757 m 256
 497 746 494 738 487 731 c 256
 482 726 474 724 465 724 c 256
 456 724 448 726 443 731 c 256
 436 738 433 747 433 757 c 256
 433 766 436 774 442 779 c 256
 448 785 456 788 465 788 c 256
 474 788 482 785 489 779 c 257
 494 772 497 765 497 757 c 256
550 758 m 257
 543 781 534 797 522 806 c 257
 505 825 480 835 449 835 c 256
 420 835 398 827 382 812 c 256
 368 798 361 779 361 754 c 256
 361 747 362 740 365 731 c 256
 369 720 370 714 369 714 c 257
 88 714 l 258
 70 714 57 712 49 707 c 257
 42 701 38 691 38 676 c 256
 38 663 42 654 49 647 c 257
 57 642 69 639 85 639 c 258
 419 639 l 258
 457 639 488 647 512 667 c 256
 535 686 548 717 550 758 c 257
EndSplineSet
PickledDataWithLists: "(dp1
S'com.adobe.type.autohint'
p2
(S'data'
S'<data>\\n  <hintSetList>\\n    <hintset pointTag=\"hr00\">\\n      <hstem pos=\"21\" width=\"-21\"/>\\n      <hstem pos=\"0\" width=\"112\"/>\\n      <hstem pos=\"233\" width=\"73\"/>\\n      <hstem pos=\"388\" width=\"53\"/>\\n      <hstem pos=\"639\" width=\"75\"/>\\n      <hstem pos=\"788\" width=\"47\"/>\\n      <vstem pos=\"92\" width=\"64\"/>\\n      <vstem pos=\"344\" width=\"33\"/>\\n      <vstem pos=\"361\" width=\"72\"/>\\n      <vstem pos=\"497\" width=\"53\"/>\\n      <vstem pos=\"569\" width=\"52\"/>\\n    </hintset>\\n  </hintSetList>\\n  </data>'
Ntp3
s."
EndChar

